<svg width="61" height="88" viewBox="0 0 61 88" fill="none" xmlns="http://www.w3.org/2000/svg">
<path d="M47.05 23.9308C39.4354 23.9308 33.2697 30.1037 33.2697 37.7111C33.2697 45.3185 39.4426 51.4914 47.05 51.4914C54.6647 51.4914 60.8303 45.3185 60.8303 37.7111C60.8303 30.1037 54.6647 23.9308 47.05 23.9308ZM47.05 46.6081C42.1378 46.6081 38.153 42.6233 38.153 37.7111C38.153 32.7989 42.1378 28.814 47.05 28.814C51.9623 28.814 55.9471 32.7989 55.9471 37.7111C55.9471 42.6233 51.9695 46.6081 47.05 46.6081Z" fill="#EEEEEE"/>
<path d="M60.8376 37.7111C60.8376 30.0964 54.6647 23.9308 47.0573 23.9308C45.6879 23.9308 44.3693 24.1337 43.1232 24.5104L43.7897 29.4444C44.804 29.0459 45.9053 28.814 47.0573 28.814C51.9695 28.814 55.9543 32.7989 55.9543 37.7111C55.9543 40.131 54.9907 42.319 53.4258 43.9202L56.0848 48.1079C58.9901 45.5793 60.8376 41.8698 60.8376 37.7111Z" fill="#FFFAFA"/>
<path d="M26.0174 0H0L12.1284 76.9581H26.0174H39.9063L52.0347 0H26.0174Z" fill="#CCCACA"/>
<path d="M26.0174 3.25305H4.20943L15.3887 70.9083H26.0174H37.001L47.8253 3.25305H26.0174Z" fill="#D4946A"/>
<path d="M47.8253 3.25305L26.0174 5.3469L4.20943 3.25305L8.43334 28.814H43.4275L47.8253 3.25305Z" fill="#AB6F47"/>
<path d="M39.9063 76.958H26.0174H12.1284L7.30312 84.0293C6.73075 84.8625 7.3321 85.9999 8.34642 85.9999H26.0246H43.7028C44.7171 85.9999 45.3185 84.8625 44.7461 84.0293L39.9063 76.958Z" fill="#EEEEEE"/>
<path d="M47.8253 3.25308C33.3639 1.09403 18.6708 1.09403 4.20943 3.25308L5.98448 14.0121H45.6807L47.8253 3.25308Z" fill="#FFE5D7"/>
<path opacity="0.16" d="M10.5852 0L21.1631 76.9581H12.1284L0 0H10.5852Z" fill="#050505"/>
<path opacity="0.1" d="M44.9562 0L33.2697 77.2334L26.0174 76.9581L33.2697 0H44.9562Z" fill="#FCFCFC"/>
<path d="M52.0347 0L39.9063 76.9581L35.4868 77.2334L47.8253 0H52.0347Z" fill="#FFFAFA"/>
<path opacity="0.16" d="M21.1631 76.958L15.4322 85.9999H7.86823C7.05678 85.9999 6.57136 85.0871 7.03505 84.4133L12.1284 76.958H21.1631Z" fill="#050505"/>
<path opacity="0.1" d="M26.0174 76.958V85.9927H35.4868L33.2697 77.2333L26.0174 76.958Z" fill="#FCFCFC"/>
<path d="M35.4868 77.2334L41.4495 86H43.8259C45.1301 86 45.8618 84.4931 45.0504 83.4715L39.9063 76.9653L35.4868 77.2334Z" fill="#FFFAFA"/>
<circle cx="41" cy="78" r="10" fill="#FF6900"/>
<path d="M46 74.25L39.125 81.125L36 78" stroke="white" stroke-width="1.2" stroke-linecap="round" stroke-linejoin="round"/>
</svg>
