<svg width="26" height="24" viewBox="0 0 26 24" fill="none" xmlns="http://www.w3.org/2000/svg">
<path d="M26 8.46008V19.9801C26 20.7801 25.35 21.4201 24.56 21.4201H6.08C5.28 21.4201 4.64 20.7701 4.64 19.9801V18.4301H19.93C21.52 18.4301 22.82 17.1301 22.82 15.5401V7.02008H24.57C25.35 7.02008 26 7.66008 26 8.46008ZM21.37 15.4801V4.08008C21.37 3.25008 20.7 2.58008 19.87 2.58008H1.5C0.67 2.58008 0 3.25008 0 4.08008V15.4901C0 16.3201 0.67 16.9901 1.5 16.9901H19.87C20.69 16.9801 21.37 16.3101 21.37 15.4801Z" fill="#969696"/>
</svg>
