<svg width="26" height="26" viewBox="0 0 26 26" fill="#7E7E7E" xmlns="http://www.w3.org/2000/svg">
<g clip-path="url(#clip0)">
<path d="M21.0932 4.95429C19.0156 2.87668 15.6325 2.87449 13.5519 4.95505C13.4663 5.04077 13.4005 5.14188 13.3213 5.23252C13.4604 5.73307 13.7163 6.19574 14.0912 6.57076C14.9875 7.46639 16.3644 7.71334 17.5137 7.18816C17.7428 7.084 18.0083 7.09817 18.2226 7.22756C18.4383 7.357 18.5759 7.58389 18.5908 7.83455C18.6362 8.57616 18.9508 9.27542 19.4775 9.80207C20.2344 10.5578 21.3011 10.8373 22.2923 10.6173C23.0321 8.67077 22.585 6.44604 21.0932 4.95429Z" />
<path d="M18.4004 10.8792C17.8403 10.3191 17.4401 9.62949 17.2303 8.87889C15.7285 9.20471 14.1254 8.76063 13.0141 7.6478C12.7549 7.38887 12.544 7.09586 12.3565 6.78955L9.06343 14.9696C7.00588 20.0808 2.9969 22.817 1.26369 23.9566C0.798786 24.2624 0.463274 24.4833 0.240852 24.693C0.0734771 24.85 -0.0150346 25.0754 0.0020787 25.3037C0.0273678 25.6481 0.284778 25.9338 0.623946 25.9978C0.629176 25.9985 0.6567 26 0.705044 26C1.8655 26 15.39 25.1079 21.5552 12.2345L21.5656 12.2129C20.4109 12.1954 19.2681 11.7469 18.4004 10.8792Z" />
<path d="M25.961 0.52014C25.8286 0.121457 25.3979 -0.0920276 24.997 0.0381247C23.5468 0.521156 21.8791 1.78139 20.7998 2.8443C21.2401 3.10521 21.6569 3.40629 22.0357 3.76659C22.9176 2.9451 24.3245 1.86818 25.479 1.48417C25.8777 1.35102 26.0934 0.919586 25.961 0.52014Z" />
</g>
<defs>
<clipPath id="clip0">
<rect width="26" height="26"/>
</clipPath>
</defs>
</svg>
