<svg width="26" height="26" viewBox="0 0 26 26" fill="#7E7E7E"  xmlns="http://www.w3.org/2000/svg">
<g clip-path="url(#clip0)">
<path d="M9.34079 5.42325C10.647 5.42325 11.851 5.86877 12.8092 6.61555L14.716 2.06679C14.1952 1.82909 13.6173 1.69547 13.0084 1.69547C10.8615 1.69547 9.09307 3.34324 8.89929 5.44039C9.04507 5.4291 9.19227 5.42325 9.34079 5.42325V5.42325Z" />
<path d="M14.8337 5.73184C15.4114 5.53212 16.0313 5.42331 16.6761 5.42331C17.188 5.42331 17.6841 5.4921 18.156 5.62023L20.0224 1.16794L17.2365 0L14.8337 5.73184Z" />
<path d="M16.6761 6.94864C15.6677 6.94864 14.743 7.31265 14.0254 7.91553C14.5576 8.70182 14.8971 9.62854 14.9759 10.6275H20.7788C20.5544 8.56194 18.8004 6.94864 16.6761 6.94864V6.94864Z" />
<path d="M13.4435 10.6275C13.2191 8.56195 11.465 6.9487 9.34078 6.9487C7.21652 6.9487 5.46248 8.562 5.2381 10.6275H13.4435Z" />
<path d="M22.2286 12.1529H3.77282L3.77139 14.2274L4.37667 14.3484C5.54918 14.5829 6.42567 15.5389 6.55771 16.7274C6.75012 18.459 7.95792 19.8835 9.63823 20.3574L11.178 20.7838V22.5716H10.1574C9.44532 22.5716 8.77674 22.8497 8.27474 23.3546C7.77273 23.8596 7.49857 24.5297 7.50274 25.2418L7.50716 26H18.5097L18.5141 25.2417C18.5183 24.5297 18.2441 23.8595 17.7421 23.3546C17.2401 22.8497 16.5715 22.5716 15.8595 22.5716H14.8389V20.7714L16.3731 20.359L16.3822 20.3565C18.059 19.8836 19.2668 18.4591 19.4592 16.7275C19.5912 15.5391 20.4677 14.583 21.6402 14.3485L22.2286 14.2308V12.1529Z" />
</g>
<defs>
<clipPath id="clip0">
<rect width="26" height="26" />
</clipPath>
</defs>
</svg>
