<svg width="26" height="26" viewBox="0 0 26 26" fill="#7E7E7E" xmlns="http://www.w3.org/2000/svg">
<g clip-path="url(#clip0)">
<path d="M19.9409 10.4772L20.1783 7.91794H5.57932L5.81546 10.4772H19.9409Z" />
<path d="M9.02836 26H9.02933L16.7227 25.9967C17.7371 25.9963 18.5726 25.2343 18.6663 24.2243L18.9589 21.0685H6.79268L7.08407 24.2267C7.17736 25.2377 8.01321 26 9.02836 26Z" />
<path d="M20.1655 0.370363C20.0081 0.201407 19.7493 0 19.4106 0C19.4105 0 19.4104 0 19.4102 0L6.35259 0.00523068C6.01341 0.00538303 5.75421 0.207298 5.59638 0.37666C5.20514 0.796689 4.99998 1.45794 5.0468 2.14671L5.06067 2.29683H20.6995L20.7141 2.13945C20.7612 1.45073 20.5565 0.789884 20.1655 0.370363Z" />
<path d="M21.6796 3.82034H4.32035C3.6856 3.82034 3.16919 4.33671 3.16919 4.97145V5.24335C3.16919 5.87809 3.6856 6.39445 4.32035 6.39445H21.6796C22.3144 6.39445 22.8308 5.87809 22.8308 5.24335V4.97145C22.8308 4.33671 22.3144 3.82034 21.6796 3.82034Z" />
<path d="M19.7997 12.0007H5.95602L6.65211 19.545H19.1001L19.7997 12.0007Z"/>
</g>
<defs>
<clipPath id="clip0">
<rect width="26" height="26"/>
</clipPath>
</defs>
</svg>
