<svg width="26" height="27" viewBox="0 0 26 27" fill="#7E7E7E" xmlns="http://www.w3.org/2000/svg">
<g clip-path="url(#clip0)">
<path d="M23.4102 16.7976H2.58984C1.74845 16.7976 1.06641 16.1156 1.06641 15.2742C1.06641 14.4328 1.74845 13.7508 2.58984 13.7508H23.4102C24.2516 13.7508 24.9336 14.4328 24.9336 15.2742C24.9336 16.1156 24.2516 16.7976 23.4102 16.7976Z"/>
<path d="M18.4844 6.18436L19.3911 4.97541C19.338 4.83855 19.2793 4.69885 19.2134 4.55682C18.6291 3.29724 17.3829 1.61258 14.7643 0.739698C14.5457 0.666827 14.3062 0.694706 14.1123 0.81912C13.9185 0.943483 13.7915 1.14681 13.7666 1.37583C13.7654 1.38635 13.6315 2.43818 12.8275 3.63636C11.9045 5.01202 10.5111 6.02018 8.67841 6.6423C15.823 9.5838 18.458 6.2194 18.4844 6.18436Z"/>
<path d="M8.06508 26.7H10.3377L10.0584 18.3211H7.22719L8.06508 26.7Z" />
<path d="M15.6623 26.7H17.9349L18.7728 18.3211H15.9416L15.6623 26.7Z"/>
<path d="M19.466 26.7H19.8345C20.9561 26.7 21.9041 25.8969 22.0885 24.7905L23.1668 18.3211H20.3039L19.466 26.7Z"/>
<path d="M11.862 26.7H14.138L14.4173 18.3211H11.5827L11.862 26.7Z"/>
<path d="M3.91148 24.7905C4.09591 25.8969 5.0439 26.7 6.16555 26.7H6.53402L5.69613 18.3211H2.83324L3.91148 24.7905Z"/>
<path d="M19.9911 6.71442L19.7031 7.09842C19.6661 7.14783 18.7731 8.31535 16.7878 8.95346C15.9275 9.22997 14.9883 9.36906 13.9859 9.36906C13.6739 9.36906 13.3558 9.35555 13.0319 9.32858C11.3688 9.19 9.54677 8.69153 7.61653 7.84704L6.46826 7.34471C6.01971 7.53981 5.5023 7.81276 4.99439 8.18697C3.97973 8.93467 2.84934 10.2045 2.60345 12.2273H23.6233C23.6252 11.8735 23.5991 11.4845 23.5248 11.0761C23.2783 9.72006 22.4555 7.91047 19.9911 6.71442Z"/>
</g>
<defs>
<clipPath id="clip0">
<rect width="26" height="26" transform="translate(0 0.699997)"/>
</clipPath>
</defs>
</svg>
