<svg width="26" height="26" viewBox="0 0 26 26" fill="#7E7E7E" xmlns="http://www.w3.org/2000/svg">
<g clip-path="url(#clip0)">
<path d="M6.1311 21.7928V26H19.8689V21.7928C17.7843 23.0026 15.427 23.7104 13 23.7104C10.5729 23.7104 8.21568 23.0026 6.1311 21.7928V21.7928Z" />
<path d="M0.0254517 8.4462V9.20941C0.0254517 9.98228 0.108184 10.7482 0.263217 11.499H25.7368C25.8918 10.7482 25.9746 9.98228 25.9746 9.20941V8.4462H0.0254517Z" />
<path d="M13 22.184C18.439 22.184 23.543 18.1314 25.3151 13.0255H0.684937C2.45706 18.1314 7.56099 22.184 13 22.184Z" />
<path d="M9.8963 5.34247H11.4227C11.4227 5.18453 11.4541 5.14296 11.6206 4.9487C11.8457 4.686 12.1859 4.28913 12.1859 3.56154C12.1859 2.83405 11.8457 2.43713 11.6206 2.17449C11.4541 1.98017 11.4227 1.9386 11.4227 1.78062C11.4227 1.62279 11.4541 1.58122 11.6206 1.38706C11.8457 1.12441 12.1859 0.727491 12.1859 0H10.6595C10.6595 0.157832 10.6282 0.19935 10.4616 0.393562C10.2365 0.656207 9.8963 1.05308 9.8963 1.78062C9.8963 2.50821 10.2365 2.90513 10.4616 3.16783C10.6282 3.36209 10.6595 3.40366 10.6595 3.56154C10.6595 3.71948 10.6282 3.76104 10.4616 3.95531C10.2365 4.218 9.8963 4.61492 9.8963 5.34247Z" />
<path d="M13.7123 5.34247H15.2388C15.2388 5.18453 15.2701 5.14296 15.4366 4.9487C15.6618 4.686 16.002 4.28913 16.002 3.56154C16.002 2.83405 15.6618 2.43713 15.4367 2.17449C15.2702 1.98017 15.2388 1.9386 15.2388 1.78062C15.2388 1.62279 15.2701 1.58122 15.4366 1.38706C15.6618 1.12441 16.002 0.727491 16.002 0H14.4755C14.4755 0.157832 14.4442 0.19935 14.2777 0.393562C14.0525 0.656207 13.7123 1.05308 13.7123 1.78062C13.7123 2.50821 14.0525 2.90513 14.2777 3.16783C14.4442 3.36209 14.4755 3.40366 14.4755 3.56154C14.4755 3.71948 14.4442 3.76104 14.2777 3.95531C14.0525 4.218 13.7123 4.61492 13.7123 5.34247Z" />
<path d="M17.5284 6.86886H19.0548C19.0548 6.71093 19.0861 6.66936 19.2527 6.4751C19.4778 6.2124 19.818 5.81553 19.818 5.08794C19.818 4.36045 19.4778 3.96353 19.2527 3.70088C19.0862 3.50657 19.0548 3.465 19.0548 3.30702C19.0548 3.14918 19.0861 3.10761 19.2527 2.91345C19.4778 2.65081 19.818 2.25389 19.818 1.5264H18.2916C18.2916 1.68423 18.2602 1.72575 18.0937 1.91996C17.8686 2.18261 17.5284 2.57947 17.5284 3.30702C17.5284 4.03461 17.8686 4.43153 18.0937 4.69423C18.2602 4.88849 18.2916 4.93006 18.2916 5.08794C18.2916 5.24587 18.2602 5.28744 18.0937 5.4817C17.8686 5.7444 17.5284 6.14132 17.5284 6.86886Z" />
<path d="M6.08022 6.86886H7.60664C7.60664 6.71093 7.63798 6.66936 7.80451 6.4751C8.02966 6.2124 8.36985 5.81553 8.36985 5.08794C8.36985 4.36045 8.02966 3.96353 7.80456 3.70088C7.63803 3.50657 7.60664 3.465 7.60664 3.30702C7.60664 3.14918 7.63798 3.10761 7.80451 2.91345C8.02966 2.65081 8.36985 2.25389 8.36985 1.5264H6.84343C6.84343 1.68423 6.81208 1.72575 6.64555 1.91996C6.42045 2.18261 6.08022 2.57947 6.08022 3.30702C6.08022 4.03461 6.42045 4.43153 6.64555 4.69423C6.81208 4.88849 6.84343 4.93006 6.84343 5.08794C6.84343 5.24587 6.81208 5.28744 6.6455 5.4817C6.42045 5.7444 6.08022 6.14132 6.08022 6.86886V6.86886Z" />
</g>
<defs>
<clipPath id="clip0">
<rect width="26" height="26"/>
</clipPath>
</defs>
</svg>
