<svg width="26" height="26" viewBox="0 0 26 26" fill="#7E7E7E" xmlns="http://www.w3.org/2000/svg">
<g clip-path="url(#clip0)">
<path d="M25.9627 10.017C25.8731 9.7412 25.6348 9.5402 25.3479 9.49856L17.2878 8.3273L13.6831 1.02361C13.5548 0.763611 13.29 0.59903 13.0001 0.59903C12.7101 0.59903 12.4453 0.763611 12.317 1.02361L8.71216 8.3273L0.652192 9.49856C0.365329 9.5402 0.126912 9.7412 0.0373345 10.0169C-0.052294 10.2927 0.0224557 10.5954 0.230099 10.7978L6.0622 16.4829L4.68563 24.5106C4.63657 24.7964 4.75408 25.0851 4.98864 25.2556C5.12133 25.352 5.2785 25.401 5.43643 25.401C5.55769 25.401 5.67936 25.3721 5.79078 25.3135L13 21.5233L20.2089 25.3135C20.4656 25.4484 20.7766 25.4259 21.0111 25.2555C21.2457 25.0851 21.3632 24.7963 21.3142 24.5105L19.9372 16.4829L25.77 10.7977C25.9776 10.5954 26.0524 10.2927 25.9627 10.017Z"/>
</g>
<defs>
<clipPath id="clip0">
<rect width="26" height="26"/>
</clipPath>
</defs>
</svg>
