<svg width="26" height="26" viewBox="0 0 26 26" fill="#7E7E7E" xmlns="http://www.w3.org/2000/svg">
<path d="M13.7617 6.2756V17.1975C14.6979 16.151 15.7775 15.2423 16.9417 14.4498C17.6682 13.9552 18.1603 13.138 18.2072 12.213C18.2424 11.5193 18.0323 10.8759 17.656 10.3617C17.2904 9.86218 17.3117 9.18526 17.6724 8.68222C18.0114 8.20945 18.211 7.62998 18.211 7.0038C18.211 5.88138 17.5697 4.90897 16.6336 4.43244C16.1361 4.1792 15.8379 3.64543 15.8769 3.08857C15.8817 3.02103 15.8841 2.95283 15.8841 2.88407C15.8841 1.29127 14.5928 0 13 0C11.4071 0 10.1159 1.29127 10.1159 2.88412C10.1159 2.95288 10.1183 3.02108 10.123 3.08862C10.162 3.64554 9.86389 4.17925 9.36639 4.43249C8.43029 4.90902 7.78902 5.88143 7.78902 7.00385C7.78902 7.63004 7.98859 8.2095 8.32761 8.68227C8.68831 9.18531 8.70958 9.86223 8.34401 10.3618C7.96772 10.8759 7.75764 11.5193 7.79278 12.213C7.8397 13.138 8.33177 13.9552 9.05825 14.4499C10.2225 15.2424 11.3021 16.1511 12.2383 17.1975V6.2756H13.7617Z"/>
<path d="M24.4962 7.60749C24.1424 7.1756 24.084 6.56704 24.3436 6.07283C24.375 6.01291 24.4046 5.95142 24.4323 5.88845C25.0726 4.42996 24.4094 2.72853 22.9509 2.08818C21.4924 1.44788 19.791 2.11113 19.1506 3.56962C19.123 3.63259 19.0978 3.69597 19.075 3.75975C19.0079 3.94693 18.9024 4.11369 18.7698 4.25299C18.8755 4.38517 18.9743 4.52329 19.0646 4.66761C19.5028 5.36753 19.7344 6.17541 19.7344 7.00391C19.7344 7.91589 19.4586 8.78953 18.9364 9.53342C19.4975 10.3335 19.7784 11.3089 19.7286 12.2902C19.6593 13.6556 18.938 14.9338 17.799 15.7092C16.7994 16.3897 15.9166 17.132 15.1687 17.9193L13.7617 21.124V17.1975C13.5752 17.406 13.3938 17.6195 13.2192 17.8392L13 18.115L12.7808 17.8392C12.6061 17.6195 12.4248 17.406 12.2383 17.1975V21.124L10.8313 17.9192C10.0834 17.1319 9.20054 16.3897 8.20096 15.7091C7.06194 14.9337 6.34059 13.6556 6.27137 12.2902C6.22161 11.3089 6.50253 10.3335 7.06356 9.53337C6.54138 8.78953 6.26558 7.91584 6.26558 7.00386C6.26558 6.17536 6.4972 5.36748 6.93539 4.66756C7.02573 4.52324 7.1245 4.38512 7.23017 4.25294C7.09758 4.11364 6.99206 3.94688 6.92503 3.7597C6.90223 3.69592 6.87699 3.63254 6.84936 3.56957C6.20906 2.11108 4.50759 1.44783 3.0491 2.08813C1.59061 2.72848 0.927357 4.42991 1.56766 5.88845C1.59528 5.95142 1.62489 6.01286 1.65642 6.07283C1.91602 6.56709 1.85757 7.17565 1.50383 7.60749C0.838236 8.4201 0.642017 9.56831 1.09321 10.596C1.34493 11.1694 1.76063 11.6197 2.26108 11.9163C2.79357 12.2319 3.08515 12.8432 2.95124 13.4475C2.81337 14.0696 2.87964 14.7432 3.19073 15.3642C3.60551 16.1923 4.3846 16.7428 5.24859 16.9036C6.63319 17.1613 7.98707 17.5593 9.26488 18.1411L12.2383 24.9136V26H13.7617V24.9136L16.7351 18.1411C18.0129 17.5592 19.3668 17.1613 20.7513 16.9036C21.6153 16.7427 22.3944 16.1923 22.8092 15.3642C23.1203 14.7431 23.1866 14.0696 23.0487 13.4475C22.9148 12.8431 23.2064 12.2319 23.7389 11.9163C24.2393 11.6197 24.655 11.1693 24.9067 10.596C25.358 9.56826 25.1617 8.4201 24.4962 7.60749V7.60749Z"/>
</svg>
