<svg width="26" height="26" viewBox="0 0 26 26" fill="#7E7E7E" xmlns="http://www.w3.org/2000/svg">
<path d="M25.4598 19.4975L16.2752 2.61392C14.7996 0.129651 11.2024 0.126351 9.72476 2.61392L0.540662 19.4975C-0.967846 22.036 0.858502 25.2505 3.81514 25.2505H22.1845C25.1387 25.2505 26.9683 22.0386 25.4598 19.4975ZM13 22.2037C12.1602 22.2037 11.4766 21.52 11.4766 20.6802C11.4766 19.8404 12.1602 19.1568 13 19.1568C13.8398 19.1568 14.5234 19.8404 14.5234 20.6802C14.5234 21.52 13.8398 22.2037 13 22.2037ZM14.5234 16.1099C14.5234 16.9497 13.8398 17.6333 13 17.6333C12.1602 17.6333 11.4766 16.9497 11.4766 16.1099V8.49272C11.4766 7.6529 12.1602 6.96928 13 6.96928C13.8398 6.96928 14.5234 7.6529 14.5234 8.49272V16.1099Z"/>
</svg>
