<svg width="24" height="24" viewBox="0 0 24 24" fill="none" xmlns="http://www.w3.org/2000/svg">
<path fill-rule="evenodd" clip-rule="evenodd" d="M3 6.5H5V17.5H3V6.5ZM7 6.5H8V14.5H9V17.5H8H7V10.5H6V6.5H7ZM10 9.5V14.5H9V9.5H10ZM13 11.5V17.5H12H11V9.5H10V6.5H11H12V11.5H13ZM15 14.5H14V11.5H13V6.5H14H15V14.5ZM15 14.5H16V17.5H15V14.5ZM16 6.5H17H18V8.5H17V11.5H16V6.5ZM17 11.5H18V17.5H17V11.5ZM19 6.5H21V17.5H19V6.5Z" fill="#6B6B6B"/>
<path d="M5 3.5V2.5H2C0.9 2.5 0 3.4 0 4.5V7.5H1V4.5C1 3.95 1.45 3.5 2 3.5H5Z" fill="#1E9553"/>
<path d="M5 20.5V21.5H2C0.9 21.5 0 20.6 0 19.5V16.5H1V19.5C1 20.05 1.45 20.5 2 20.5H5Z" fill="#1E9553"/>
<path d="M19 3.5V2.5H22C23.1 2.5 24 3.4 24 4.5V7.5H23V4.5C23 3.95 22.55 3.5 22 3.5H19Z" fill="#1E9553"/>
<path d="M19 20.5V21.5H22C23.1 21.5 24 20.6 24 19.5V16.5H23V19.5C23 20.05 22.55 20.5 22 20.5H19Z" fill="#1E9553"/>
</svg>
