<svg width="24" height="24" viewBox="0 0 24 24" fill="none" xmlns="http://www.w3.org/2000/svg">
<path d="M11.15 4.91007L2.95001 18.0201C2.53001 18.6901 3.01001 19.5501 3.80001 19.5501H20.2C20.99 19.5501 21.46 18.6901 21.05 18.0201L12.85 4.91007C12.46 4.29007 11.54 4.29007 11.15 4.91007Z" fill="#D62B1F"/>
<path d="M13 10.5601C13 10.0101 12.55 9.56006 12 9.56006C11.45 9.56006 11 10.0101 11 10.5601V13.5601C11 14.1101 11.45 14.5601 12 14.5601C12.55 14.5601 13 14.1101 13 13.5601V10.5601Z" fill="#FEFEFE"/>
<path d="M13 16.5601C13 16.0101 12.55 15.5601 12 15.5601C11.45 15.5601 11 16.0101 11 16.5601C11 17.1101 11.45 17.5601 12 17.5601C12.55 17.5601 13 17.1101 13 16.5601Z" fill="#FEFEFE"/>
</svg>
