<svg width="12" height="12" viewBox="0 0 12 12" fill="none" xmlns="http://www.w3.org/2000/svg">
<path d="M9.99999 10.5C9.86999 10.5 9.73999 10.45 9.64999 10.35L5.99999 6.70999L2.34999 10.36C2.14999 10.56 1.83999 10.56 1.63999 10.36C1.43999 10.16 1.43999 9.84999 1.63999 9.64999L5.28999 5.99999L1.64999 2.34999C1.44999 2.14999 1.44999 1.83999 1.64999 1.63999C1.84999 1.43999 2.15999 1.43999 2.35999 1.63999L5.99999 5.28999L9.64999 1.63999C9.84999 1.43999 10.16 1.43999 10.36 1.63999C10.56 1.83999 10.56 2.14999 10.36 2.34999L6.70999 5.99999L10.36 9.64999C10.56 9.84999 10.56 10.16 10.36 10.36C10.26 10.45 10.13 10.5 9.99999 10.5Z" fill="#D32F31"/>
</svg>
