<svg width="99" height="98" viewBox="0 0 99 98" fill="none" xmlns="http://www.w3.org/2000/svg">
<path d="M48.9976 0.00390625C46.2902 0.00390625 44.0957 2.19838 44.0957 4.90614V20.0845C44.0957 22.7923 46.2902 24.9867 48.9976 24.9867C51.7054 24.9867 53.8999 22.7923 53.8999 20.0845V4.90614C53.8999 2.19838 51.7051 0.00390625 48.9976 0.00390625Z" fill="#FFA92C"/>
<path d="M51.4486 24.3261C49.9847 23.4779 48.9976 21.8986 48.9976 20.0848V4.90641C48.9976 3.0926 49.985 1.51327 51.4486 0.665141C48.1869 -1.22372 44.0957 1.13562 44.0957 4.90641V20.0848C44.0957 23.851 48.183 26.2173 51.4486 24.3261Z" fill="#FF8828"/>
<path d="M14.3477 83.6455C16.2625 85.5599 19.366 85.5599 21.2805 83.6455L32.0133 72.9127C33.9277 70.9982 33.9277 67.8947 32.0133 65.9803C30.0988 64.0652 26.9953 64.0652 25.0808 65.9803L14.3477 76.7124C12.4336 78.6272 12.4336 81.731 14.3477 83.6455Z" fill="#FFA92C"/>
<path d="M65.9739 32.0194C67.8884 33.9339 70.9919 33.9339 72.9064 32.0194L83.6392 21.2872C85.5536 19.3728 85.5536 16.2693 83.6392 14.3548C81.7247 12.4403 78.6209 12.4403 76.7064 14.3548L65.9739 25.087C64.0595 27.0014 64.0595 30.1049 65.9739 32.0194Z" fill="#FFA92C"/>
<path d="M18.0095 79.7135L28.7426 68.9813C29.9277 67.7959 31.5688 67.3462 33.1011 67.6283C31.7988 64.3615 27.5693 63.4919 25.0824 65.9797L14.3494 76.7118C11.5539 79.5082 13.0627 84.286 16.923 84.9973C16.2198 83.2326 16.5812 81.1424 18.0095 79.7135Z" fill="#FF8828"/>
<path d="M69.6341 28.0886L80.3666 17.3564C81.552 16.1713 83.1931 15.7216 84.7257 16.0041C84.4864 15.4037 84.125 14.8407 83.6392 14.3548C81.7247 12.4403 78.6209 12.4403 76.7064 14.3548L65.9739 25.0873C64.0595 27.0017 64.0595 30.1052 65.9739 32.0197C66.703 32.7488 67.6048 33.1982 68.5476 33.3721C67.8441 31.6074 68.2055 29.5172 69.6341 28.0886Z" fill="#FF8828"/>
<path d="M48.9976 73.0127C46.2902 73.0127 44.0957 75.2072 44.0957 77.9149V93.0933C44.0957 95.8011 46.2902 97.9955 48.9976 97.9955C51.7054 97.9955 53.8999 95.8011 53.8999 93.0933V77.9149C53.8999 75.2075 51.7051 73.0127 48.9976 73.0127Z" fill="#FFA92C"/>
<path d="M51.4489 97.3346C49.985 96.4864 48.9979 94.9071 48.9979 93.0933V77.9149C48.9979 76.1011 49.9853 74.5218 51.4489 73.6737C50.7274 73.2559 49.8919 73.0127 48.9976 73.0127C46.2902 73.0127 44.0957 75.2072 44.0957 77.9149V93.0933C44.096 96.8599 48.1833 99.2258 51.4489 97.3346Z" fill="#FF8828"/>
<path d="M14.3555 14.355C12.4413 16.2692 12.4413 19.373 14.3558 21.2875L25.0886 32.0202C27.0031 33.9347 30.1069 33.9347 32.0213 32.0202C33.9358 30.1058 33.9358 27.0023 32.0213 25.0875L21.2883 14.355C19.3738 12.4403 16.27 12.4403 14.3555 14.355Z" fill="#FFA92C"/>
<path d="M33.2855 29.8197C31.651 30.255 29.836 29.8363 28.5533 28.5539L17.8205 17.8211C16.5381 16.5387 16.1191 14.7236 16.5546 13.0889C12.9126 14.0594 11.688 18.6213 14.3541 21.2872L25.0869 32.0199C27.754 34.6867 32.315 33.4612 33.2855 29.8197Z" fill="#FF8828"/>
<path d="M65.9817 65.98C64.0672 67.8945 64.0672 70.998 65.982 72.9125L76.7148 83.6452C78.6293 85.5597 81.7331 85.5597 83.6472 83.6455C85.5617 81.7308 85.5617 78.6273 83.6472 76.7128L72.9145 65.98C71 64.0653 67.8962 64.0653 65.9817 65.98Z" fill="#FFA92C"/>
<path d="M84.9132 81.4447C83.2784 81.8803 81.4637 81.4613 80.1809 80.1789L69.4482 69.4461C68.1657 68.1637 67.7471 66.3486 68.1823 64.7139C64.5366 65.6853 63.3183 70.249 65.9818 72.9122L76.7146 83.6449C79.3783 86.3087 83.9409 85.0908 84.9132 81.4447Z" fill="#FF8828"/>
<path d="M0.00976566 49.0002C0.00946426 51.7073 2.20424 53.9018 4.912 53.9018H20.0904C22.7978 53.9018 24.9923 51.7073 24.9923 48.9999C24.9926 46.2921 22.7978 44.0977 20.0901 44.0977L4.9117 44.098C2.20424 44.0977 0.00976566 46.2924 0.00976566 49.0002Z" fill="#FFA92C"/>
<path d="M24.3265 46.5488C23.4783 48.0121 21.899 48.9998 20.0852 48.9998H4.90681C3.093 48.9998 1.51338 48.0124 0.665545 46.5488C-1.22572 49.8154 1.14055 53.9017 4.90681 53.9017H20.0852C23.8572 53.9014 26.215 49.8093 24.3265 46.5488Z" fill="#FF8828"/>
<path d="M73.0098 48.9999C73.0098 51.7076 75.2042 53.9018 77.9117 53.9018H93.0904C95.7978 53.9018 97.9926 51.7073 97.9926 49.0002C97.9926 46.2921 95.7978 44.0977 93.0904 44.098L77.912 44.0977C75.2042 44.0977 73.0098 46.2924 73.0098 48.9999Z" fill="#FFA92C"/>
<path d="M97.336 46.5488C96.4879 48.0127 94.9085 48.9998 93.0947 48.9998H77.916C76.1022 48.9998 74.5229 48.0121 73.6748 46.5488C71.7862 49.8106 74.1453 53.9017 77.916 53.9017H93.0947C96.8565 53.9017 99.2285 49.8187 97.336 46.5488Z" fill="#FF8828"/>
</svg>
