<svg width="97" height="97" viewBox="0 0 97 97" fill="none" xmlns="http://www.w3.org/2000/svg">
<path d="M48.7155 0.429688C46.0478 0.429688 43.8848 2.59268 43.8848 5.26084V20.2188C43.8848 22.887 46.0478 25.05 48.7155 25.05C51.3836 25.05 53.5466 22.887 53.5466 20.2188V5.26084C53.5462 2.59268 51.3836 0.429688 48.7155 0.429688Z" fill="#F2D422"/>
<path d="M51.1311 24.3981C49.6888 23.5623 48.7159 22.0058 48.7159 20.2185V5.26096C48.7159 3.47371 49.6888 1.91717 51.1311 1.08179C47.9176 -0.780881 43.8848 1.54544 43.8848 5.26096V20.219C43.8852 23.9255 47.9091 26.2635 51.1311 24.3981Z" fill="#E8C018"/>
<path d="M14.572 82.8546C16.4588 84.7409 19.5174 84.7409 21.4037 82.8546L31.9804 72.2779C33.8667 70.3912 33.8667 67.333 31.9804 65.4467C30.0937 63.5594 27.0355 63.5594 25.1487 65.4467L14.5716 76.0224C12.6857 77.9097 12.6857 80.9678 14.572 82.8546Z" fill="#F2D422"/>
<path d="M65.4483 31.9804C67.335 33.8668 70.3937 33.8668 72.28 31.9804L82.8567 21.4042C84.743 19.5179 84.743 16.4593 82.8567 14.5729C80.9699 12.6866 77.9113 12.6866 76.0245 14.5729L65.4483 25.1487C63.5615 27.0351 63.5615 30.0937 65.4483 31.9804Z" fill="#F2D422"/>
<path d="M18.1804 78.9801L28.7575 68.4043C29.9253 67.236 31.5426 66.7929 33.0522 67.0709C31.7715 63.8583 27.6062 62.9899 25.1504 65.4465L14.5733 76.0223C11.819 78.7779 13.3055 83.4868 17.1098 84.187C16.4163 82.4484 16.7724 80.3885 18.1804 78.9801Z" fill="#E8C018"/>
<path d="M69.0566 28.1058L79.6329 17.5301C80.8012 16.3618 82.4184 15.9191 83.9285 16.1975C82.6464 12.9791 78.4771 12.1214 76.0258 14.5723L65.4496 25.1481C62.6944 27.9028 64.1822 32.6121 67.9856 33.3123C67.2926 31.5732 67.6487 29.5138 69.0566 28.1058Z" fill="#E8C018"/>
<path d="M48.7155 72.376C46.0478 72.376 43.8848 74.5385 43.8848 77.2071V92.1647C43.8848 94.8333 46.0478 96.9958 48.7155 96.9958C51.3836 96.9958 53.5466 94.8333 53.5466 92.1647V77.2071C53.5462 74.5385 51.3836 72.376 48.7155 72.376Z" fill="#F2D422"/>
<path d="M51.1311 96.3447C49.6888 95.5093 48.7159 93.9523 48.7159 92.165V77.2075C48.7159 75.4198 49.6888 73.8632 51.1311 73.0278C47.9122 71.1643 43.8848 73.496 43.8848 77.2075V92.165C43.8852 95.8805 47.9153 98.2064 51.1311 96.3447Z" fill="#E8C018"/>
<path d="M14.5719 14.5723C12.6856 16.4586 12.6856 19.5173 14.5724 21.4036L25.149 31.9803C27.0358 33.867 30.094 33.867 31.9807 31.9803C33.8675 30.0935 33.8675 27.0353 31.9807 25.1485L21.4041 14.5723C19.5169 12.6855 16.4582 12.6855 14.5719 14.5723Z" fill="#F2D422"/>
<path d="M33.2279 29.8125C31.6169 30.2414 29.8287 29.829 28.5645 28.5648L17.9878 17.9881C16.724 16.7243 16.3112 14.9357 16.7405 13.3252C13.1477 14.282 11.9478 18.7798 14.5722 21.4042L25.1489 31.9809C27.7773 34.6098 32.272 33.4004 33.2279 29.8125Z" fill="#E8C018"/>
<path d="M65.4473 65.4463C63.5605 67.3326 63.5605 70.3908 65.4473 72.2776L76.024 82.8543C77.9103 84.7406 80.9689 84.7406 82.8557 82.8547C84.7425 80.9675 84.7425 77.9093 82.8557 76.0225L72.279 65.4463C70.3923 63.5596 67.3341 63.5596 65.4473 65.4463Z" fill="#F2D422"/>
<path d="M84.103 80.6856C82.4925 81.1144 80.7039 80.7021 79.4401 79.4378L68.8634 68.8612C67.5997 67.5974 67.1873 65.8088 67.6157 64.1982C64.0238 65.155 62.822 69.6519 65.4474 72.2772L76.024 82.8539C78.6458 85.4752 83.1436 84.2819 84.103 80.6856Z" fill="#E8C018"/>
<path d="M0.430664 48.7134C0.430664 51.3811 2.59321 53.5441 5.26181 53.5441H20.2194C22.8875 53.5441 25.0505 51.3811 25.0505 48.713C25.0505 46.0448 22.888 43.8818 20.2194 43.8818L5.26181 43.8823C2.59321 43.8823 0.430664 46.0453 0.430664 48.7134Z" fill="#F2D422"/>
<path d="M24.3984 46.2979C23.5625 47.7397 22.0064 48.713 20.2187 48.713H5.26118C3.47393 48.713 1.91695 47.7401 1.08156 46.2979C-0.782001 49.5171 1.54968 53.5441 5.26118 53.5441H20.2187C23.9271 53.5441 26.2633 49.5189 24.3984 46.2979Z" fill="#E8C018"/>
<path d="M72.376 48.713C72.376 51.3811 74.5385 53.5441 77.2067 53.5441H92.1647C94.8328 53.5441 96.9954 51.3811 96.9959 48.7134C96.9954 46.0448 94.8328 43.8818 92.1647 43.8823L77.2071 43.8818C74.5385 43.8823 72.376 46.0453 72.376 48.713Z" fill="#F2D422"/>
<path d="M96.3435 46.2979C95.5077 47.7401 93.9512 48.713 92.1639 48.713H77.2059C75.4187 48.713 73.8621 47.7397 73.0263 46.2979C71.165 49.5131 73.4917 53.5441 77.2059 53.5441H92.1639C95.879 53.5441 98.2044 49.5149 96.3435 46.2979Z" fill="#E8C018"/>
</svg>
