<svg width="109" height="109" viewBox="0 0 109 109" fill="none" xmlns="http://www.w3.org/2000/svg">
<g clip-path="url(#clip0)">
<path d="M46.4907 39.2562C46.9403 37.9871 46.276 36.5939 45.007 36.1443C43.738 35.6947 42.3447 36.359 41.8951 37.628C41.4455 38.897 42.1098 40.2903 43.3788 40.7399C44.6479 41.1895 46.0411 40.5252 46.4907 39.2562Z" fill="#6EDCF9"/>
<path d="M57.7767 88.7833C58.1556 87.7137 57.5958 86.5395 56.5262 86.1605C55.4566 85.7816 54.2824 86.3414 53.9034 87.411C53.5245 88.4806 54.0843 89.6548 55.1539 90.0338C56.2235 90.4127 57.3977 89.8529 57.7767 88.7833Z" fill="#8DD83D"/>
<path d="M21.9889 37.7212L19.5219 42.4053L14.2647 43.0282C13.9713 43.0631 13.7231 43.2614 13.6245 43.5397C13.5259 43.818 13.5937 44.1283 13.7999 44.3401L17.4923 48.1339L16.4601 53.3265C16.335 53.9556 16.9881 54.4575 17.5641 54.1738L22.3133 51.8346L26.9329 54.4208C27.4927 54.7341 28.1723 54.2682 28.0798 53.6327L27.3228 48.3931C31.5568 44.4776 31.3265 44.7365 31.4145 44.4883C31.4682 44.3366 31.4745 44.169 31.427 44.0087C31.343 43.7256 31.1059 43.5144 30.8149 43.4642L25.5975 42.5653L23.3802 37.7581C23.1118 37.1754 22.2885 37.1528 21.9889 37.7212Z" fill="#FFA92C"/>
<path d="M25.1138 48.0294L20.3646 50.3686C19.7892 50.652 19.1354 50.1511 19.2606 49.5213L20.2928 44.3287L18.5345 42.5222L14.2647 43.0282C13.9713 43.0631 13.7231 43.2614 13.6245 43.5397C13.5259 43.818 13.5937 44.1283 13.7999 44.3401L17.4923 48.1339L16.4601 53.3265C16.335 53.9556 16.9881 54.4575 17.5641 54.1738L22.3133 51.8346L26.9329 54.4208C27.4927 54.7341 28.1723 54.2682 28.0798 53.6327L27.4601 49.3432L25.1138 48.0294Z" fill="#FF8828"/>
<path d="M55.4877 18.0741L51.4858 20.0015L47.6295 17.7975C47.162 17.5306 46.589 17.9162 46.6612 18.4503L47.2575 22.8516L43.9698 25.8381C43.5717 26.2002 43.7611 26.8644 44.2914 26.9607L48.6617 27.7536L50.486 31.8034C50.7073 32.2943 51.3981 32.3189 51.653 31.8443L53.7577 27.9328L58.173 27.449C58.2799 27.4375 58.3799 27.4 58.4658 27.3419C58.8006 27.1164 58.8511 26.6432 58.5727 26.3517L55.5032 23.1415L56.4074 18.7927C56.5175 18.2661 55.9731 17.8405 55.4877 18.0741Z" fill="#FFA92C"/>
<path d="M52.3663 26.6212L47.996 25.8283C47.4664 25.732 47.2757 25.0685 47.6744 24.7057L50.9621 21.7192L50.6657 19.5318L47.6295 17.7965C47.162 17.5295 46.589 17.9152 46.6612 18.4493L47.2575 22.8506L43.9698 25.8371C43.5717 26.1992 43.7611 26.8634 44.2914 26.9597L48.6617 27.7526L50.486 31.8024C50.7073 32.2933 51.3981 32.3179 51.653 31.8433L53.3219 28.7421L52.3663 26.6212Z" fill="#FF8828"/>
<path d="M84.8904 76.2351C84.8904 76.2351 63.8203 71.5034 49.995 74.4681C48.231 74.9045 46.9768 76.1361 47.3162 78.4296L47.3165 78.4316C47.6823 80.8966 50.2921 80.5403 50.2921 80.5403L50.2922 80.5405C55.4066 78.7468 67.9769 75.1872 84.8904 76.2351Z" fill="#E8C018"/>
<path d="M84.0385 32.3412L84.0385 32.3408C83.9762 32.0435 83.9183 31.7573 83.8646 31.4816C83.5474 30.3901 82.6817 28.7101 80.395 29.256C77.7137 29.8961 78.3497 32.8771 78.4701 33.3549C83.093 49.2662 96.9878 62.0936 96.9878 62.0936C88.7675 50.2019 85.39 38.791 84.0385 32.3412Z" fill="#F2D422"/>
<path d="M65.0088 89.5358C64.5401 89.8602 62.2607 91.5826 63.7486 93.4411C64.6673 94.5883 65.8556 94.5575 67.0044 93.6111C67.0046 93.611 67.0056 93.6101 67.0056 93.6101C71.0122 90.3169 78.883 84.8374 90.0925 81.5534C90.0923 81.5533 75.7607 82.4788 65.0088 89.5358Z" fill="#E8C018"/>
<path d="M39.5903 67.5051C39.3371 67.307 39.3338 67.3886 36.8001 68.609C34.3322 67.1985 34.3589 67.1335 34.0943 67.3117C33.828 67.4912 33.9044 67.5182 34.282 70.3066C32.1792 72.217 32.1243 72.1722 32.2121 72.4791C32.3013 72.7881 32.3506 72.7237 35.1182 73.2261L36.2048 75.6378C36.3363 75.9301 36.7476 75.945 36.8998 75.6622L38.1534 73.3328C40.9774 73.0235 40.995 73.0928 41.1048 72.7921C41.2145 72.4899 41.1371 72.5131 39.1927 70.4795L39.7313 67.8899C39.7611 67.7451 39.7067 67.596 39.5903 67.5051Z" fill="#EA473B"/>
<path d="M38.3376 70.6382C36.9913 73.1401 37.048 73.1828 36.729 73.1715C36.4078 73.1599 36.4584 73.0969 35.3026 70.5315L34.245 70.3397C32.1846 72.2116 32.123 72.1728 32.2109 72.4796C32.3001 72.7886 32.3494 72.7242 35.117 73.2266C36.284 75.8168 36.2244 75.855 36.5434 75.8665C36.8645 75.8779 36.8187 75.8109 38.152 73.3333C40.8897 73.0334 40.8267 73.0685 40.956 72.9817C41.1554 72.8468 41.1851 72.5651 41.0196 72.3921L39.2475 70.5387L38.3376 70.6382Z" fill="#D63322"/>
<path d="M36.9576 48.2321L36.956 48.2336C34.4723 50.5304 34.1969 51.0529 34.7069 54.5832L34.707 54.584C35.1458 57.6211 37.0599 58.2493 37.5877 58.3661C47.2531 60.1271 66.8201 63.9241 85.1903 68.8956C67.846 61.2188 50.3126 51.8872 41.6636 47.1553C40.6778 46.6177 39.4137 45.961 36.9576 48.2321Z" fill="#F2D422"/>
<path d="M38.7045 55.2123C38.1766 55.0957 36.2626 54.4673 35.8238 51.4302L35.8237 51.4295C35.7156 50.681 35.6432 50.0687 35.6193 49.545C34.3891 50.9063 34.3092 51.8309 34.7067 54.5822L34.7068 54.5829C35.1456 57.62 37.0597 58.2483 37.5875 58.365C47.2528 60.1261 66.8199 63.923 85.19 68.8946C79.8592 66.5351 74.5108 64.0193 69.4079 61.5288C56.8786 58.6354 45.4089 56.4339 38.7045 55.2123Z" fill="#E8C018"/>
<path d="M61.6273 33.692C60.9839 32.7266 60.2086 32.6438 59.8784 32.6581L58.0814 32.855C57.2322 32.9483 56.8173 33.4774 56.668 33.7233L56.6002 33.8493L56.6001 33.8494C56.6001 33.8494 56.6001 33.8494 55.8952 35.1594C55.2292 36.3971 56.1009 37.5123 56.1991 37.6317C67.7842 51.055 89.9349 63.8104 89.9349 63.8104C74.9536 52.1148 66.0168 40.3962 61.629 33.6943C61.6286 33.6935 61.6279 33.6929 61.6273 33.692Z" fill="#F2D422"/>
</g>
<defs>
<clipPath id="clip0">
<rect width="84.7731" height="84.7731" fill="white" transform="translate(0.72168 79.9619) rotate(-70.4912)"/>
</clipPath>
</defs>
</svg>
