<svg width="102" height="102" viewBox="0 0 102 102" fill="none" xmlns="http://www.w3.org/2000/svg">
<g clip-path="url(#clip0)">
<path d="M32.4643 9.07904C34.7492 9.07904 36.6015 7.22676 36.6015 4.94186C36.6015 2.65696 34.7492 0.804688 32.4643 0.804688C30.1794 0.804688 28.3271 2.65696 28.3271 4.94186C28.3271 7.22676 30.1794 9.07904 32.4643 9.07904Z" fill="#A274BF"/>
<path d="M4.13718 81.912C6.42207 81.912 8.27435 80.0598 8.27435 77.7749C8.27435 75.49 6.42207 73.6377 4.13718 73.6377C1.85228 73.6377 0 75.49 0 77.7749C0 80.0598 1.85228 81.912 4.13718 81.912Z" fill="#7ACAA6"/>
<path d="M97.8637 81.912C100.149 81.912 102.001 80.0598 102.001 77.7749C102.001 75.49 100.149 73.6377 97.8637 73.6377C95.5788 73.6377 93.7266 75.49 93.7266 77.7749C93.7266 80.0598 95.5788 81.912 97.8637 81.912Z" fill="#A274BF"/>
<path d="M97.6299 10.2421C99.9148 10.2421 101.767 8.38985 101.767 6.10495C101.767 3.82005 99.9148 1.96777 97.6299 1.96777C95.345 1.96777 93.4927 3.82005 93.4927 6.10495C93.4927 8.38985 95.345 10.2421 97.6299 10.2421Z" fill="#26A6FE"/>
<path d="M101.768 6.10442C101.768 8.38886 99.9141 10.2426 97.6296 10.2426C95.9829 10.2426 94.5619 9.28076 93.8975 7.88842C94.3096 8.02787 94.7525 8.10378 95.2139 8.10378C97.5003 8.10378 99.3521 6.25204 99.3521 3.9676C99.3521 3.3299 99.2064 2.72487 98.9481 2.18359C100.587 2.73304 101.768 4.28137 101.768 6.10442Z" fill="#0593FC"/>
<path d="M102 77.7734C102 80.0578 100.147 81.9115 97.8621 81.9115C96.2153 81.9115 94.7943 80.9497 94.1299 79.5574C94.5421 79.6968 94.9849 79.7727 95.4463 79.7727C97.7328 79.7727 99.5845 77.921 99.5845 75.6365C99.5845 74.9988 99.4389 74.3938 99.1805 73.8525C100.819 74.4022 102 75.9503 102 77.7734Z" fill="#925CB4"/>
<path d="M36.6028 4.94133C36.6028 7.22577 34.749 9.0795 32.4646 9.0795C30.8178 9.0795 29.3968 8.11768 28.7324 6.72534C29.1446 6.86479 29.5875 6.94069 30.0489 6.94069C32.3353 6.94069 34.187 5.08895 34.187 2.80451C34.187 2.16681 34.0414 1.56179 33.783 1.02051C35.4216 1.56995 36.6028 3.11828 36.6028 4.94133Z" fill="#925CB4"/>
<path d="M8.27366 77.7734C8.27366 80.0578 6.41993 81.9115 4.13548 81.9115C2.48874 81.9115 1.06771 80.9497 0.40332 79.5574C0.815504 79.6968 1.25837 79.7727 1.71976 79.7727C4.00619 79.7727 5.85793 77.921 5.85793 75.6365C5.85793 74.9988 5.7123 74.3938 5.45391 73.8525C7.09249 74.4022 8.27366 75.9503 8.27366 77.7734Z" fill="#57BE92"/>
<path d="M70.9863 73.6728C77.5795 75.1287 87.4689 79.0772 93.6979 89.7782C95.6693 93.1654 94.2254 97.5157 90.6229 99.059C87.1966 100.527 83.2227 98.8389 81.9358 95.3406C80.0655 90.2562 76.3941 83.0839 69.3776 76.8296C67.9642 75.5698 69.1376 73.2646 70.9863 73.6728Z" fill="#26A6FE"/>
<path d="M90.6222 99.0592C90.3761 99.1658 90.1259 99.2541 89.8757 99.3278C91.1224 97.3509 91.2784 94.7527 90.0028 92.5585C84.4681 83.0516 76.044 78.8724 69.609 77.037C69.5331 76.9693 69.4552 76.8995 69.3773 76.8298C67.9644 75.5687 69.1374 73.2638 70.987 73.6718C77.5799 75.1277 87.4681 79.0774 93.6981 89.7776C95.669 93.1655 94.2252 97.5151 90.6222 99.0592Z" fill="#0593FC"/>
<path d="M37.6825 32.8924C36.0424 26.5585 30.944 12.5791 17.532 10.1809C14.1104 9.56908 10.8002 11.7222 9.94331 15.0906C9.06675 18.5363 11.0577 22.0543 14.4586 23.0907C19.1857 24.5312 26.4655 27.6079 35.8198 34.1782C36.7364 34.8223 37.9634 33.977 37.6825 32.8924Z" fill="#FE7701"/>
<path d="M74.4368 59.3045C78.4038 57.5823 87.7605 54.5512 94.466 60.5626C96.1767 62.0962 96.4017 64.6966 94.9954 66.5132C93.557 68.3716 90.9144 68.7656 88.9907 67.4155C86.3172 65.5389 81.7527 62.9982 74.5244 60.7981C73.8164 60.5825 73.7577 59.5994 74.4368 59.3045Z" fill="#FE7701"/>
<path d="M94.9949 66.5129C94.6381 66.9743 94.2074 67.3435 93.7317 67.6204C93.7952 66.347 93.3032 65.0612 92.2879 64.1506C87.3868 59.758 81.0707 60.1949 76.4753 61.4211C75.8478 61.2099 75.1977 61.0028 74.5252 60.7978C73.8156 60.5824 73.7582 59.6001 74.4369 59.3048C78.405 57.5822 87.7601 54.5515 94.4658 60.5619C96.1761 62.0959 96.4016 64.6961 94.9949 66.5129Z" fill="#F46700"/>
<path d="M27.3319 59.3045C23.3649 57.5823 14.0082 54.5512 7.30266 60.5626C5.59197 62.0962 5.36705 64.6966 6.77333 66.5132C8.21169 68.3716 10.8543 68.7656 12.778 67.4155C15.4515 65.5389 20.016 62.9982 27.2443 60.7981C27.9523 60.5825 28.011 59.5994 27.3319 59.3045Z" fill="#26A6FE"/>
<path d="M50.884 4.19922C47.0164 4.19922 44.6407 7.9525 44.9369 11.9393C45.2854 16.6295 47.9956 20.9386 50.1123 25.0748C50.4505 25.7356 51.3173 25.7356 51.6556 25.0748C53.7723 20.9386 56.4825 16.6295 56.8309 11.9393C57.1274 7.9525 54.7519 4.19922 50.884 4.19922Z" fill="#26A6FE"/>
<path d="M56.8311 11.9395C56.4824 16.6293 53.7735 20.9398 51.6571 25.0759C51.3189 25.7362 50.4513 25.7362 50.113 25.0759C49.6373 24.147 49.1307 23.2077 48.6304 22.2584C50.3612 18.9834 52.0488 15.5752 52.3196 11.9395C52.5532 8.80195 51.1302 5.80789 48.6284 4.67593C49.3052 4.37033 50.0618 4.2002 50.8842 4.2002C54.7518 4.2002 57.1285 7.95308 56.8311 11.9395Z" fill="#0593FC"/>
<path d="M59.0654 79.2193C62.0734 82.3265 68.2031 90.0183 64.9357 98.4102C64.1022 100.551 61.7472 101.677 59.5518 101C57.3063 100.307 56.0073 97.9721 56.5944 95.6966C57.4102 92.5338 58.1824 87.3673 57.6983 79.8271C57.6509 79.0882 58.5504 78.6872 59.0654 79.2193Z" fill="#7ACAA6"/>
<path d="M64.9373 98.4097C64.1027 100.551 61.7486 101.676 59.5544 101C59.2631 100.909 58.9864 100.793 58.728 100.649C59.5996 100.173 60.309 99.4002 60.6947 98.4097C63.0407 92.3849 60.5409 86.719 57.832 82.8535C57.8114 81.8897 57.7684 80.8829 57.7007 79.8268C57.6515 79.0885 58.5517 78.6867 59.0663 79.2198C62.0745 82.3264 68.2038 90.0184 64.9373 98.4097Z" fill="#57BE92"/>
<path d="M30.7806 73.6728C24.1874 75.1287 14.298 79.0772 8.06902 89.7782C6.09755 93.1654 7.54149 97.5157 11.144 99.059C14.5703 100.527 18.5441 98.8389 19.8311 95.3406C21.7014 90.2562 25.3728 83.0839 32.3892 76.8296C33.8025 75.5698 32.6293 73.2646 30.7806 73.6728Z" fill="#A274BF"/>
<path d="M72.1772 41.3917C76.3287 38.455 86.3689 32.7151 95.5332 38.0209C97.871 39.3744 98.7557 42.3133 97.5742 44.7428C96.3657 47.2278 93.4189 48.3171 90.88 47.226C87.3513 45.7094 81.4865 43.8831 72.6376 43.0898C71.7706 43.0119 71.4664 41.8945 72.1772 41.3917Z" fill="#A274BF"/>
<path d="M97.5717 44.7439C97.3297 45.2421 97.0181 45.6832 96.6531 46.0625C96.7372 44.1984 95.8041 42.361 94.096 41.3727C86.4264 36.9331 78.1417 40.2304 73.212 43.1444C73.0214 43.1238 72.8305 43.1053 72.6359 43.089C71.7685 43.0131 71.4649 41.8955 72.1765 41.391C76.327 38.4545 86.3671 32.7146 95.5315 38.0218C97.8692 39.3753 98.7549 42.314 97.5717 44.7439Z" fill="#925CB4"/>
<path d="M42.7008 79.2193C39.6928 82.3265 33.563 90.0183 36.8304 98.4102C37.6639 100.551 40.0189 101.677 42.2143 101C44.4599 100.307 45.7588 97.9721 45.1719 95.6966C44.3561 92.5338 43.5839 87.3673 44.068 79.8271C44.1152 79.0882 43.2157 78.6872 42.7008 79.2193Z" fill="#FE7701"/>
<path d="M29.5914 41.3917C25.4399 38.455 15.3997 32.7151 6.23543 38.0209C3.8976 39.3744 3.01287 42.3133 4.19443 44.7428C5.40289 47.2278 8.34974 48.3171 10.8886 47.226C14.4173 45.7094 20.2821 43.8831 29.131 43.0898C29.998 43.0119 30.3022 41.8945 29.5914 41.3917Z" fill="#7ACAA6"/>
<path d="M64.0847 32.8922C65.7251 26.5583 70.8235 12.5789 84.2355 10.1809C87.6571 9.56908 90.9673 11.7222 91.8242 15.0906C92.7007 18.5363 90.7097 22.0543 87.3089 23.0907C82.5818 24.5312 75.302 27.6079 65.9476 34.1782C65.031 34.8221 63.804 33.9768 64.0847 32.8922Z" fill="#7ACAA6"/>
<path d="M91.9011 15.4438C90.4534 14.2607 88.5216 13.6987 86.5551 14.0493C75.3524 16.0506 69.9508 26.1339 67.5187 33.0938C67.0019 33.4444 66.479 33.8054 65.9479 34.1785C65.0313 34.8224 63.8029 33.9755 64.0838 32.8928C65.7244 26.5582 70.8224 12.579 84.2356 10.1797C87.6562 9.56866 90.9658 11.7218 91.823 15.091C91.8541 15.2079 91.8786 15.3269 91.9011 15.4438Z" fill="#57BE92"/>
<path d="M53.1638 36.5757L56.8856 44.1169C57.2559 44.8674 57.9719 45.3875 58.8001 45.5079L67.1224 46.7171C69.2081 47.0201 70.0408 49.5831 68.5317 51.0541L62.5097 56.9241C61.9105 57.5082 61.637 58.3499 61.7784 59.1747L63.2 67.4634C63.5562 69.5405 61.3762 71.1244 59.5107 70.1439L52.0671 66.2304C51.3264 65.841 50.4415 65.841 49.7006 66.2304L42.257 70.1439C40.3915 71.1246 38.2114 69.5406 38.5676 67.4634L39.9893 59.1747C40.1307 58.3499 39.8572 57.5082 39.2579 56.9241L33.2359 51.0541C31.7269 49.5831 32.5596 47.0201 34.6452 46.7171L42.9676 45.5079C43.7957 45.3875 44.5117 44.8674 44.8821 44.1169L48.6039 36.5757C49.5362 34.6857 52.2311 34.6857 53.1638 36.5757Z" fill="#FDB441"/>
<path d="M62.5113 56.9236C61.9104 57.5081 61.6377 58.3508 61.7792 59.1752L63.2002 67.4639C63.557 69.5411 61.3771 71.1243 59.5111 70.1442L57.85 69.2706C58.6026 68.7026 59.064 67.749 58.8793 66.6684L57.372 57.8773C57.2202 57.0017 57.5115 56.1096 58.1472 55.4902L64.533 49.2644C65.3531 48.4668 65.5213 47.3655 65.1934 46.4365L67.123 46.7174C69.2086 47.0208 70.0412 49.5842 68.5319 51.0546L62.5113 56.9236Z" fill="#FEA613"/>
</g>
<defs>
<clipPath id="clip0">
<rect width="102" height="102" fill="white"/>
</clipPath>
</defs>
</svg>
