<svg width="141" height="150" viewBox="0 0 141 150" fill="none" xmlns="http://www.w3.org/2000/svg">
<g clip-path="url(#clip0)">
<path d="M96.327 73.6117C97.5181 74.8028 99.4492 74.8028 100.64 73.6117C101.831 72.4206 101.831 70.4894 100.64 69.2983C99.4492 68.1072 97.5181 68.1072 96.327 69.2983C95.1358 70.4894 95.1358 72.4206 96.327 73.6117Z" fill="#6EDCF9"/>
<path d="M34.3151 59.6856C35.319 60.6895 36.9466 60.6895 37.9505 59.6856C38.9544 58.6817 38.9544 57.0541 37.9505 56.0501C36.9466 55.0462 35.319 55.0462 34.3151 56.0501C33.3112 57.054 33.3112 58.6817 34.3151 59.6856Z" fill="#8DD83D"/>
<path d="M111.253 46.7656L107.292 41.4571L109.419 35.1843C109.538 34.8342 109.447 34.4471 109.186 34.1859C108.925 33.9247 108.538 33.8342 108.188 33.953L101.915 36.0802L96.6064 32.1184C95.9631 31.6384 95.0447 32.1057 95.0549 32.909L95.1395 39.5323L89.7311 43.3569C89.0759 43.8205 89.2361 44.8388 90.0036 45.0766L96.3288 47.043C98.4708 53.9332 98.3025 53.5337 98.5354 53.7666C98.6778 53.909 98.8637 54.0064 99.0704 54.0391C99.4353 54.0967 99.8015 53.9426 100.015 53.641L103.839 48.2326L110.463 48.317C111.265 48.3277 111.734 47.4099 111.253 46.7656Z" fill="#FFA92C"/>
<path d="M97.9287 44.7441L97.8442 38.1208C97.8339 37.3183 98.7517 36.8497 99.3956 37.3302L104.704 41.292L107.691 40.2791L109.419 35.1843C109.537 34.8342 109.447 34.4471 109.186 34.1859C108.925 33.9247 108.538 33.8342 108.187 33.953L101.915 36.0802L96.6061 32.1184C95.9629 31.6384 95.0444 32.1057 95.0547 32.909L95.1392 39.5323L89.7309 43.3569C89.0756 43.8205 89.2359 44.8388 90.0033 45.0766L95.1816 46.6865L97.9287 44.7441Z" fill="#FF8828"/>
<path d="M115.404 95.1766L115.383 89.6191L119.948 86.4506C120.501 86.0664 120.374 85.2117 119.732 85.0056L114.441 83.309L112.838 77.9878C112.643 77.3433 111.791 77.1996 111.397 77.7465L108.148 82.2553L102.592 82.1349C101.919 82.1206 101.519 82.8874 101.918 83.4309L105.202 87.9142L103.371 93.1612C103.326 93.2881 103.315 93.4212 103.334 93.5496C103.408 94.0491 103.916 94.3609 104.395 94.2035L109.673 92.4654L114.098 95.8283C114.633 96.2362 115.407 95.8505 115.404 95.1766Z" fill="#FFA92C"/>
<path d="M107.432 87.0485L110.681 82.5397C111.075 81.9934 111.927 82.1354 112.122 82.7809L113.724 88.1021L116.354 88.9453L119.949 86.4507C120.502 86.0664 120.375 85.2117 119.733 85.0056L114.441 83.309L112.839 77.9878C112.644 77.3433 111.792 77.1996 111.398 77.7465L108.149 82.2553L102.593 82.1349C101.919 82.1206 101.52 82.8874 101.918 83.4309L104.522 86.9856L107.432 87.0485Z" fill="#FF8828"/>
<path d="M33.8865 97.0644C33.8865 97.0644 50.5761 75.8162 54.6724 58.6058C55.1294 56.3786 54.4139 54.299 51.6409 53.4473L51.6384 53.4466C48.6576 52.5324 47.6546 55.6717 47.6546 55.6717L47.6543 55.6717C46.9262 62.4136 44.1775 78.5269 33.8865 97.0644Z" fill="#E8C018"/>
<path d="M83.9187 119.741L83.9192 119.741C84.2885 119.831 84.6429 119.92 84.9832 120.007C86.3867 120.237 88.7502 120.164 89.365 117.287C90.0859 113.915 86.3767 113.028 85.7723 112.906C65.3131 109.559 43.3443 118.345 43.3443 118.345C61.2009 115.464 75.9068 117.794 83.9187 119.741Z" fill="#F2D422"/>
<path d="M29.5703 67.4515C29.4564 66.7475 28.7386 63.2456 25.8385 63.9253C24.0482 64.3451 23.443 65.7038 23.8933 67.5108C23.8933 67.5111 23.8938 67.5127 23.8938 67.5127C25.4556 73.8109 27.4058 85.6505 25.0787 100.079C25.0789 100.079 31.7508 83.3944 29.5703 67.4515Z" fill="#E8C018"/>
<path d="M68.1384 50.6033C68.4985 50.424 68.4081 50.3764 68.3942 46.8576C71.316 44.83 71.375 44.8952 71.3162 44.5004C71.2569 44.103 71.1853 44.1746 67.8328 43.0997C66.8076 39.6962 66.8877 39.6582 66.4938 39.5922C66.0969 39.5265 66.143 39.6169 64.0853 42.472L60.7765 42.4006C60.3756 42.3916 60.1373 42.8482 60.3747 43.1724L62.3305 45.8424C61.1592 49.1983 61.0714 49.1809 61.3518 49.4668C61.6341 49.7535 61.6496 49.6536 64.9932 48.5526L67.6279 50.5554C67.7753 50.667 67.973 50.6857 68.1384 50.6033Z" fill="#EA473B"/>
<path d="M65.2747 47.5027C63.1741 44.6351 63.0953 44.6762 63.2799 44.322C63.4659 43.9654 63.5099 44.0565 67.0294 44.1326L67.8156 43.0414C66.811 39.7065 66.8879 39.6578 66.4942 39.5918C66.0972 39.5262 66.1434 39.6166 64.0857 42.4717C60.532 42.395 60.5208 42.3071 60.3361 42.6611C60.1504 43.0177 60.2507 43.002 62.331 45.8419C61.1954 49.0953 61.1897 49.0052 61.2181 49.198C61.2631 49.4958 61.5653 49.6811 61.8498 49.5873L64.8972 48.5839L65.2747 47.5027Z" fill="#D63322"/>
<path d="M91.3226 58.0118L91.3217 58.0092C90.0652 53.9674 89.6234 53.375 85.3617 52.05L85.3608 52.0497C81.6945 50.9099 79.9543 52.7334 79.5382 53.2666C72.3448 63.2341 57.5203 83.2881 42.0137 101.358C60.0231 85.9035 80.0033 71.1264 90.0047 63.9065C91.1426 63.0826 92.5649 62.0086 91.3226 58.0118Z" fill="#F2D422"/>
<path d="M82.4978 56.2265C82.9137 55.6931 84.6541 53.8698 88.3204 55.0096L88.3213 55.0099C89.2248 55.2909 89.9553 55.5389 90.5596 55.7939C89.6846 53.6715 88.6834 53.0834 85.3622 52.0508L85.3613 52.0505C81.6949 50.9107 79.9547 52.7341 79.5387 53.2674C72.3453 63.2349 57.5207 83.2889 42.0142 101.359C47.5494 96.6086 53.2706 91.923 58.8312 87.5009C68.8456 74.9087 77.508 63.1406 82.4978 56.2265Z" fill="#E8C018"/>
<path d="M94.4598 93.7015C95.8965 93.4946 96.4076 92.6636 96.5692 92.2829L97.3145 90.1474C97.6663 89.1382 97.2922 88.3847 97.0949 88.0836L96.9891 87.9392L96.989 87.939C96.989 87.939 96.989 87.939 95.8892 86.4376C94.8499 85.0189 93.1211 85.403 92.9333 85.4495C71.5351 91.3054 45.2019 109.453 45.2019 109.453C66.4777 98.8316 84.5246 95.0488 94.4563 93.702C94.4574 93.702 94.4585 93.7016 94.4598 93.7015Z" fill="#F2D422"/>
</g>
<defs>
<clipPath id="clip0">
<rect width="106.066" height="106.066" fill="white" transform="translate(75) rotate(45)"/>
</clipPath>
</defs>
</svg>
