<svg width="67" height="51" viewBox="0 0 67 51" fill="none" xmlns="http://www.w3.org/2000/svg">
<path d="M61.4167 0H5.58333C2.50692 0 0 1.7989 0 4.00646V48.0776C0 49.1834 1.25067 50.0808 2.79167 50.0808H64.2083C65.7493 50.0808 67 49.1834 67 48.0776V4.00646C67 1.7989 64.4987 0 61.4167 0Z" fill="#ECEFF1"/>
<path d="M13.6198 16.7503H52.7031C54.2441 16.7503 55.4948 15.4997 55.4948 13.9587C55.4948 12.4177 54.2441 11.167 52.7031 11.167H13.6198C12.0788 11.167 10.8281 12.4177 10.8281 13.9587C10.8281 15.4997 12.0788 16.7503 13.6198 16.7503Z" fill="#90A4AE"/>
<path d="M52.7031 22.334H13.6198C12.0788 22.334 10.8281 23.5847 10.8281 25.1257C10.8281 26.6667 12.0788 27.9173 13.6198 27.9173H52.7031C54.2441 27.9173 55.4948 26.6667 55.4948 25.1257C55.4948 23.5847 54.2441 22.334 52.7031 22.334Z" fill="#90A4AE"/>
<path d="M35.9531 33.5H13.6198C12.0788 33.5 10.8281 34.7507 10.8281 36.2917C10.8281 37.8327 12.0788 39.0833 13.6198 39.0833H35.9531C37.4941 39.0833 38.7448 37.8327 38.7448 36.2917C38.7448 34.7507 37.4941 33.5 35.9531 33.5Z" fill="#90A4AE"/>
</svg>
