<svg width="32" height="32" viewBox="0 0 32 32" fill="none" xmlns="http://www.w3.org/2000/svg">
<path fill-rule="evenodd" clip-rule="evenodd" d="M11.84 7.26997C12.26 5.08997 14.14 3.46997 16.38 3.46997C18.62 3.46997 20.51 5.09997 20.92 7.26997H11.84ZM10.32 7.26997C10.75 4.27997 13.3 1.96997 16.38 1.96997C19.46 1.96997 22.01 4.27997 22.44 7.26997H26C27.66 7.26997 29 8.60997 29 10.27V27.03C29 28.69 27.66 30.03 26 30.03H6C4.34 30.03 3 28.69 3 27.03V10.27C3 8.60997 4.34 7.26997 6 7.26997H10.32Z" fill="#E3562F"/>
</svg>
