<svg width="24" height="24" viewBox="0 0 24 24" fill="none" xmlns="http://www.w3.org/2000/svg">
<path fill-rule="evenodd" clip-rule="evenodd" d="M10 4H19C19.55 4 20 4.45 20 5V19C20 19.55 19.55 20 19 20H10C9.45 20 9 19.55 9 19V12.5H14.79L12.46 14.83C12.27 15.03 12.27 15.34 12.46 15.54C12.66 15.74 12.97 15.74 13.17 15.54L16.35 12.36C16.55 12.16 16.55 11.85 16.35 11.65L13.17 8.47C12.97 8.27 12.66 8.27 12.46 8.47C12.27 8.67 12.27 8.98 12.46 9.18L14.79 11.51H9V5C9 4.45 9.45 4 10 4ZM8 11.5V5C8 3.9 8.89 3 10 3H19C20.11 3 21 3.9 21 5V19C21 20.1 20.11 21 19 21H10C8.89 21 8 20.1 8 19V12.5H2V11.5H8Z" fill="#787878"/>
</svg>
