<?xml version="1.0" encoding="utf-8"?>
<!-- Generator: Adobe Illustrator 23.0.1, SVG Export Plug-In . SVG Version: 6.00 Build 0)  -->
<svg version="1.1" xmlns="http://www.w3.org/2000/svg" xmlns:xlink="http://www.w3.org/1999/xlink" x="0px" y="0px" width="32px"
	 height="24px" viewBox="0 0 32 24" style="enable-background:new 0 0 32 24;" xml:space="preserve">
<style type="text/css">
	.st0{fill:#FEFEFE;}
	.st1{fill:none;stroke:#272425;stroke-linejoin:round;stroke-miterlimit:10;}
	
		.st2{fill-rule:evenodd;clip-rule:evenodd;fill:none;stroke:#272425;stroke-width:1.5;stroke-linecap:round;stroke-linejoin:round;stroke-miterlimit:10;}
	.st3{fill:#272425;}
	.st4{fill:#989898;}
	.st5{fill:#E45E2F;}
	.st6{fill:#E35E31;}
	.st7{fill:none;stroke:#E25E32;stroke-width:1.3;stroke-miterlimit:10;}
	.st8{fill:#383838;}
	.st9{fill:#E25E32;}
	.st10{fill:#7A7A7A;}
	.st11{fill:#000100;}
	.st12{fill:#787878;}
	.st13{fill:#D32F31;}
	.st14{fill:#1E9553;}
	.st15{fill-rule:evenodd;clip-rule:evenodd;fill:#787878;}
	.st16{fill-rule:evenodd;clip-rule:evenodd;fill:#6B6B6B;}
	.st17{fill:#F3C322;}
	.st18{fill:#E3562F;}
	.st19{fill:#8F6849;}
	.st20{fill-rule:evenodd;clip-rule:evenodd;fill:#8F6849;}
	.st21{fill:#C3C3C2;}
	.st22{fill:none;stroke:#787878;}
	.st23{fill-rule:evenodd;clip-rule:evenodd;fill:#929292;}
	.st24{fill-rule:evenodd;clip-rule:evenodd;fill:#E3562F;}
	.st25{fill:#C89948;}
</style>
<g id="Слой_1">
	<path d="M31.56,12c0,6.39-5.18,11.56-11.56,11.56c-0.55,0-1.09-0.05-1.62-0.13c4.01-2.24,6.73-6.53,6.73-11.44
		c0-4.91-2.72-9.19-6.73-11.44c0.53-0.07,1.07-0.13,1.62-0.13C26.38,0.44,31.56,5.61,31.56,12z M12.96,7.19h-1.97v4.87h1.97
		c0.86,0,1.52-0.22,1.98-0.66c0.43-0.42,0.65-1.02,0.65-1.78c0-0.76-0.22-1.35-0.65-1.77C14.49,7.41,13.83,7.19,12.96,7.19z
		 M23.57,12c0,6.39-5.18,11.56-11.56,11.56S0.44,18.39,0.44,12S5.62,0.44,12,0.44S23.57,5.61,23.57,12z M17.18,9.61
		c0-1.1-0.35-2.01-1.04-2.71c-0.71-0.73-1.63-1.09-2.78-1.09H9.45v6.24H7.73v1.34h1.71v1.9H7.73v1.17h1.71v1.73h1.54v-1.73h3.56
		v-1.17h-3.56v-1.9h2.36c1.15,0,2.08-0.36,2.79-1.07C16.83,11.62,17.18,10.72,17.18,9.61z"/>
</g>
<g id="Слой_2">
</g>
<g id="Слой_3">
</g>
</svg>
