<svg width="24" height="24" viewBox="0 0 24 24" fill="none" xmlns="http://www.w3.org/2000/svg">
<path fill-rule="evenodd" clip-rule="evenodd" d="M19.5 4.10012V3.37012L18.82 3.63012L9.82 7.13012L9.5 7.25012V7.60012V15.4001C8.97 14.9201 8.27 14.6401 7.5 14.6401C5.84 14.6401 4.5 15.9801 4.5 17.6401C4.5 19.3001 5.84 20.6401 7.5 20.6401C9.16 20.6401 10.5 19.3001 10.5 17.6401C10.5 17.6301 10.5 17.6201 10.5 17.6001V10.9401L18.5 7.83012V13.4001C17.97 12.9201 17.27 12.6401 16.5 12.6401C14.84 12.6401 13.5 13.9801 13.5 15.6401C13.5 17.3001 14.84 18.6401 16.5 18.6401C18.16 18.6401 19.5 17.3001 19.5 15.6401C19.5 15.6301 19.5 15.6201 19.5 15.6001V4.10012ZM18.5 6.75012V4.83012L10.5 7.94012V9.87012L18.5 6.75012ZM9.5 17.6301C9.5 18.7301 8.6 19.6301 7.5 19.6301C6.4 19.6301 5.5 18.7301 5.5 17.6301C5.5 16.5301 6.4 15.6301 7.5 15.6301C8.6 15.6301 9.5 16.5301 9.5 17.6301ZM16.5 17.6301C17.61 17.6301 18.5 16.7301 18.5 15.6301C18.5 14.5301 17.61 13.6301 16.5 13.6301C15.39 13.6301 14.5 14.5301 14.5 15.6301C14.5 16.7301 15.39 17.6301 16.5 17.6301Z" fill="#787878"/>
</svg>
