<?xml version="1.0" encoding="utf-8"?>
<!-- Generator: Adobe Illustrator 23.0.1, SVG Export Plug-In . SVG Version: 6.00 Build 0)  -->
<svg version="1.1" xmlns="http://www.w3.org/2000/svg" xmlns:xlink="http://www.w3.org/1999/xlink" x="0px" y="0px" width="26px"
	 height="24px" viewBox="0 0 26 24" style="enable-background:new 0 0 26 24;" xml:space="preserve">
<style type="text/css">
	.st0{fill:#FEFEFE;}
	.st1{fill:none;stroke:#000000;stroke-linejoin:round;stroke-miterlimit:10;}
	
		.st2{fill-rule:evenodd;clip-rule:evenodd;fill:none;stroke:#000000;stroke-width:1.5;stroke-linecap:round;stroke-linejoin:round;stroke-miterlimit:10;}
	.st3{fill:#989898;}
	.st4{fill:#E45E2F;}
	.st5{fill:#E35E31;}
	.st6{fill:none;stroke:#E25E32;stroke-width:1.3;stroke-miterlimit:10;}
	.st7{fill:#383838;}
	.st8{fill:#E25E32;}
	.st9{fill:#7A7A7A;}
	.st10{fill:#000100;}
	.st11{fill:#787878;}
	.st12{fill:#D32F31;}
	.st13{fill:#1E9553;}
	.st14{fill-rule:evenodd;clip-rule:evenodd;fill:#787878;}
	.st15{fill-rule:evenodd;clip-rule:evenodd;fill:#6B6B6B;}
	.st16{fill:#F3C322;}
	.st17{fill:#E3562F;}
	.st18{fill:#8F6849;}
	.st19{fill-rule:evenodd;clip-rule:evenodd;fill:#8F6849;}
	.st20{fill:#C3C3C2;}
	.st21{fill:none;stroke:#787878;}
	.st22{fill-rule:evenodd;clip-rule:evenodd;fill:#929292;}
	.st23{fill-rule:evenodd;clip-rule:evenodd;fill:#E3562F;}
	.st24{fill:#C89948;}
</style>
<g id="Слой_1">
	<g>
		<path d="M13.97,7.11h-2v4.95h2c0.88,0,1.55-0.22,2.01-0.67c0.44-0.43,0.66-1.03,0.66-1.81c0-0.77-0.22-1.37-0.66-1.79
			C15.53,7.33,14.86,7.11,13.97,7.11z"/>
		<path d="M13,0.25C6.51,0.25,1.25,5.51,1.25,12c0,6.49,5.26,11.75,11.75,11.75S24.75,18.49,24.75,12C24.75,5.51,19.49,0.25,13,0.25
			z M17.2,12.33c-0.72,0.73-1.66,1.09-2.83,1.09h-2.4v1.93h3.62v1.18h-3.62v1.76H10.4v-1.76H8.66v-1.18h1.74v-1.93H8.66v-1.36h1.74
			V5.71h3.98c1.16,0,2.1,0.37,2.82,1.11c0.7,0.71,1.05,1.63,1.05,2.75C18.26,10.69,17.91,11.61,17.2,12.33z"/>
	</g>
</g>
<g id="Слой_2">
</g>
<g id="Слой_3">
</g>
</svg>
