<svg width="24" height="24" viewBox="0 0 24 24" fill="none" xmlns="http://www.w3.org/2000/svg">
<path fill-rule="evenodd" clip-rule="evenodd" d="M12 17C7.63 17 3.75 15.04 1.26 12C3.75 8.96 7.63 7 12 7C16.37 7 20.25 8.96 22.74 12C20.25 15.04 16.37 17 12 17ZM12 6C16.97 6 21.36 8.37 24 12C21.36 15.63 16.97 18 12 18C7.03 18 2.64 15.63 0 12C2.64 8.37 7.03 6 12 6ZM14 12C14 13.11 13.1 14 12 14C10.9 14 10 13.11 10 12C10 10.89 10.9 10 12 10C13.1 10 14 10.89 14 12ZM15 12C15 13.66 13.66 15 12 15C10.34 15 9 13.66 9 12C9 10.34 10.34 9 12 9C13.66 9 15 10.34 15 12Z" fill="#787878"/>
</svg>
