<svg width="24" height="24" viewBox="0 0 24 24" fill="none" xmlns="http://www.w3.org/2000/svg">
<path fill-rule="evenodd" clip-rule="evenodd" d="M11.65 2.4L8.46 5.58C8.26 5.78 8.26 6.09 8.46 6.29C8.66 6.49 8.97 6.49 9.17 6.29L11.5 3.96V16.75H12.5V3.96L14.83 6.29C15.03 6.49 15.34 6.49 15.54 6.29C15.74 6.09 15.74 5.78 15.54 5.58L12.35 2.4C12.16 2.2 11.84 2.2 11.65 2.4ZM5 8.75H10V9.75H5C4.45 9.75 4 10.2 4 10.75V19.75C4 20.3 4.45 20.75 5 20.75H19C19.55 20.75 20 20.3 20 19.75V10.75C20 10.2 19.55 9.75 19 9.75H14V8.75H19C20.1 8.75 21 9.65 21 10.75V19.75C21 20.85 20.1 21.75 19 21.75H5C3.9 21.75 3 20.85 3 19.75V10.75C3 9.65 3.9 8.75 5 8.75Z" fill="#787878"/>
</svg>
