<svg width="20" height="20" viewBox="0 0 20 20" fill="none" xmlns="http://www.w3.org/2000/svg">
<path d="M15.38 4.56002C15.22 4.10002 14.78 3.77002 14.28 3.77002H5.72C5.21 3.77002 4.77 4.10002 4.62 4.56002L3 9.22002V15.44C3 15.87 3.35 16.22 3.78 16.22H4.56C4.99 16.22 5.34 15.87 5.34 15.44V14.66H14.67V15.44C14.67 15.87 15.02 16.22 15.45 16.22H16.23C16.66 16.22 17.01 15.87 17.01 15.44V9.22002L15.38 4.56002ZM5.72 12.33C5.07 12.33 4.55 11.81 4.55 11.16C4.55 10.51 5.07 9.99002 5.72 9.99002C6.37 9.99002 6.89 10.51 6.89 11.16C6.89 11.81 6.37 12.33 5.72 12.33ZM14.28 12.33C13.63 12.33 13.11 11.81 13.11 11.16C13.11 10.51 13.63 9.99002 14.28 9.99002C14.92 9.99002 15.45 10.51 15.45 11.16C15.45 11.81 14.92 12.33 14.28 12.33ZM4.56 8.44002L5.73 4.94002H14.29L15.46 8.44002H4.56Z" fill="#000100"/>
</svg>
