<svg width="24" height="24" viewBox="0 0 24 24" fill="none" xmlns="http://www.w3.org/2000/svg">
<path fill-rule="evenodd" clip-rule="evenodd" d="M6 4.5V3.5H7V4.5H17V3.5H18V4.5H19C20.11 4.5 21 5.4 21 6.5V18.5C21 19.6 20.11 20.5 19 20.5H5C3.89 20.5 3 19.6 3 18.5V6.5C3 5.4 3.89 4.5 5 4.5H6ZM5 5.5H19C19.55 5.5 20 5.95 20 6.5V7.5H4V6.5C4 5.95 4.45 5.5 5 5.5ZM4 8.5V18.5C4 19.05 4.45 19.5 5 19.5H19C19.55 19.5 20 19.05 20 18.5V8.5H4ZM8 10.5V12.5H6V10.5H8ZM5 9.5H6H8H9V10.5V12.5V13.5H8H6H5V12.5V10.5V9.5ZM6 15.5V17.5H8V15.5H6ZM6 14.5H5V15.5V17.5V18.5H6H8H9V17.5V15.5V14.5H8H6ZM11 10.5H13V12.5H11V10.5ZM10 9.5H11H13H14V10.5V12.5V13.5H13H11H10V12.5V10.5V9.5ZM13 15.5H11V17.5H13V15.5ZM11 14.5H10V15.5V17.5V18.5H11H13H14V17.5V15.5V14.5H13H11ZM16 12.5V10.5H18V12.5H16ZM15 9.5H16H18H19V10.5V12.5V13.5H18H16H15V12.5V10.5V9.5ZM18 17.5V15.5H16V17.5H18ZM16 14.5H15V15.5V17.5V18.5H16H18H19V17.5V15.5V14.5H18H16Z" fill="#787878"/>
</svg>
