<svg width="24" height="24" viewBox="0 0 24 24" fill="none" xmlns="http://www.w3.org/2000/svg">
<path fill-rule="evenodd" clip-rule="evenodd" d="M21 4.5H3C2.91 4.5 2.82 4.51 2.74 4.53L10.94 12.73C11.53 13.32 12.48 13.32 13.06 12.73L21.26 4.53C21.18 4.51 21.09 4.5 21 4.5ZM2 5.5C2 5.41 2.01 5.32 2.03 5.24L10.23 13.44C11.21 14.42 12.79 14.42 13.77 13.44L21.97 5.24C21.99 5.32 22 5.41 22 5.5V18.5C22 18.59 21.99 18.68 21.97 18.76L16.36 13.15C16.16 12.96 15.85 12.96 15.65 13.15C15.45 13.35 15.45 13.66 15.65 13.86L21.26 19.47C21.18 19.49 21.09 19.5 21 19.5H3C2.91 19.5 2.82 19.49 2.74 19.47L8.35 13.86C8.55 13.66 8.55 13.35 8.35 13.15C8.15 12.96 7.84 12.96 7.64 13.15L2.03 18.76C2.01 18.68 2 18.59 2 18.5V5.5ZM3 3.5C1.89 3.5 1 4.4 1 5.5V18.5C1 19.6 1.89 20.5 3 20.5H21C22.11 20.5 23 19.6 23 18.5V5.5C23 4.4 22.11 3.5 21 3.5H3Z" fill="#787878"/>
</svg>
