<svg width="20" height="20" viewBox="0 0 20 20" fill="none" xmlns="http://www.w3.org/2000/svg">
<path d="M19 19.75C18.81 19.75 18.62 19.68 18.47 19.53L13.56 14.62C12.1 15.83 10.28 16.49 8.37 16.49C3.89 16.49 0.25 12.85 0.25 8.37C0.25 3.89 3.89 0.25 8.37 0.25C12.85 0.25 16.49 3.89 16.49 8.37C16.49 8.78 16.15 9.12 15.74 9.12C15.33 9.12 14.99 8.78 14.99 8.37C14.99 4.72 12.02 1.75 8.37 1.75C4.72 1.75 1.75 4.72 1.75 8.37C1.75 12.02 4.72 14.99 8.37 14.99C10.13 14.99 11.8 14.3 13.06 13.05C13.35 12.76 13.83 12.76 14.12 13.05L19.53 18.46C19.82 18.75 19.82 19.23 19.53 19.52C19.38 19.68 19.19 19.75 19 19.75Z" fill="#787878"/>
</svg>
