<svg width="24" height="24" viewBox="0 0 24 24" fill="none" xmlns="http://www.w3.org/2000/svg">
<path fill-rule="evenodd" clip-rule="evenodd" d="M22 12C22 17.52 17.52 22 12 22C6.48 22 2 17.52 2 12C2 6.48 6.48 2 12 2C17.52 2 22 6.48 22 12ZM12 23C18.08 23 23 18.07 23 12C23 5.93 18.08 1 12 1C5.92 1 1 5.93 1 12C1 18.07 5.92 23 12 23ZM12.5 7.5V6.5H11.5V7.5V10.5V11.5H10.5H7.5H6.5V12.5H7.5H10.5H11.5V13.5V16.5V17.5H12.5V16.5V13.5V12.5H13.5H16.5H17.5V11.5H16.5H13.5H12.5V10.5V7.5Z" fill="#787878"/>
</svg>
