<svg width="24" height="24" viewBox="0 0 24 24" fill="none" xmlns="http://www.w3.org/2000/svg">
<path d="M1.8 9.80005C1.6 9.25005 1.5 8.67005 1.5 8.05005C1.5 5.15005 3.86 2.80005 6.75 2.80005C8.84 2.80005 10.66 4.03005 11.5 5.80005C11.7 6.22005 12.29 6.22005 12.5 5.80005C13.35 4.02005 15.16 2.80005 17.25 2.80005C20.14 2.80005 22.5 5.15005 22.5 8.05005C22.5 8.67005 22.39 9.27005 22.19 9.83005C21.93 10.56 21.51 11.21 20.97 11.76L12.02 20.66L3.4 12.09L3.39 12.08L3.38 12.07C3.17 11.89 2.98 11.7 2.8 11.49C2.35 10.99 2.02 10.42 1.8 9.80005Z" stroke="#787878"/>
</svg>
