<svg width="41" height="46" viewBox="0 0 41 46" fill="none" xmlns="http://www.w3.org/2000/svg">
<path d="M41 20.5C41 9.18 31.82 0 20.5 0C9.18 0 0 9.18 0 20.5C0 30.47 7.12 38.77 16.55 40.61L19.76 45.59C20.11 46.13 20.89 46.13 21.24 45.59L24.45 40.61C33.88 38.77 41 30.47 41 20.5Z" fill="#E3562F"/>
<path d="M25.34 12C29.02 12 32 14.96 32 18.62C32 24.44 21 32 21 32C21 32 10 24.44 10 18.62C10 14.97 12.99 12 16.67 12.01C17.18 12.01 17.69 12.07 18.19 12.19C16.67 14.24 16.35 16.93 17.36 19.27C17.38 19.33 17.45 19.36 17.51 19.34C17.55 19.32 17.58 19.29 17.59 19.24C18.31 15.27 21.35 12 25.34 12ZM25.33 15.9C23.82 15.9 22.6 17.12 22.6 18.61C22.6 20.1 23.83 21.32 25.33 21.32C26.84 21.32 28.06 20.1 28.06 18.61C28.06 17.12 26.84 15.9 25.33 15.9Z" fill="#FEFEFE"/>
</svg>
