<svg width="24" height="24" viewBox="0 0 26 26" fill="none" xmlns="http://www.w3.org/2000/svg">
<path d="M24.9656 10.2464C24.8829 9.99184 24.6629 9.80631 24.398 9.76787L16.9579 8.6867L13.6305 1.94484C13.5121 1.70484 13.2677 1.55292 13.0001 1.55292C12.7324 1.55292 12.488 1.70484 12.3695 1.94484L9.04199 8.6867L1.60202 9.76787C1.33723 9.80631 1.11715 9.99184 1.03446 10.2464C0.951728 10.5009 1.02073 10.7804 1.2124 10.9672L6.59588 16.215L5.3252 23.6251C5.27991 23.8889 5.38838 24.1554 5.6049 24.3128C5.72738 24.4018 5.87246 24.4471 6.01824 24.4471C6.13018 24.4471 6.24249 24.4204 6.34533 24.3663L13 20.8676L19.6544 24.3662C19.8914 24.4908 20.1784 24.4701 20.3949 24.3128C20.6114 24.1554 20.7199 23.8888 20.6747 23.625L19.4036 16.215L24.7877 10.9671C24.9793 10.7804 25.0483 10.5009 24.9656 10.2464Z" fill="#FFEA2E" stroke="white" stroke-width="2"/>
</svg>
