<svg width="24" height="24" viewBox="0 0 24 24" fill="none" xmlns="http://www.w3.org/2000/svg">
<path d="M11.9999 1.69231C6.30721 1.69231 1.69232 6.30734 1.69232 11.9998C1.69232 17.6923 6.30717 22.3077 11.9999 22.3077C17.6925 22.3077 22.3077 17.6923 22.3077 11.9998C22.3077 6.3073 17.6925 1.69231 11.9999 1.69231Z" fill="white" stroke="white" stroke-width="2"/>
<path d="M11.9999 2.69231C6.85951 2.69231 2.69232 6.85962 2.69232 11.9998C2.69232 17.1401 6.85951 21.3077 11.9999 21.3077C17.1402 21.3077 21.3077 17.1401 21.3077 11.9998C21.3077 6.85962 17.1402 2.69231 11.9999 2.69231ZM16.0238 13.7701H12.0777C12.0644 13.7701 12.052 13.7669 12.0388 13.7664C12.0255 13.767 12.0132 13.7701 11.9998 13.7701C11.6443 13.7701 11.3561 13.4819 11.3561 13.1264V6.555C11.3561 6.1995 11.6443 5.91127 11.9998 5.91127C12.3553 5.91127 12.6435 6.1995 12.6435 6.555V12.4827H16.0235C16.379 12.4827 16.6672 12.7709 16.6672 13.1264C16.6672 13.4819 16.3793 13.7701 16.0238 13.7701Z" fill="#EB3800"/>
</svg>
