<svg width="24" height="24" viewBox="0 0 24 24" fill="none" xmlns="http://www.w3.org/2000/svg">
<path d="M15.2539 3.98936L15.2448 3.97277L15.2352 3.95653C13.7778 1.50307 10.2244 1.49922 8.76478 3.95652L8.75513 3.97277L8.74609 3.98938L2.09352 16.2191C0.62227 18.7237 2.42507 21.885 5.33844 21.885H18.6613C21.5721 21.885 23.3783 18.7264 21.9069 16.2193L15.2539 3.98936Z" fill="white" stroke="white" stroke-width="2"/>
<path d="M15.2539 3.98936L15.2448 3.97277L15.2352 3.95653C13.7778 1.50307 10.2244 1.49922 8.76478 3.95652L8.75513 3.97277L8.74609 3.98938L2.09352 16.2191C0.622271 18.7237 2.42507 21.885 5.33844 21.885H18.6613C21.5721 21.885 23.3783 18.7264 21.9069 16.2193L15.2539 3.98936ZM12 17.6752C11.9432 17.6752 11.8951 17.6271 11.8951 17.5703C11.8951 17.5135 11.9432 17.4654 12 17.4654C12.0568 17.4654 12.1049 17.5135 12.1049 17.5703C12.1049 17.6271 12.0568 17.6752 12 17.6752ZM12.1049 14.2555C12.1049 14.3123 12.0568 14.3604 12 14.3604C11.9432 14.3604 11.8951 14.3123 11.8951 14.2555V8.73097C11.8951 8.67415 11.9432 8.62606 12 8.62606C12.0568 8.62606 12.1049 8.67415 12.1049 8.73097V14.2555Z" fill="#BE0000" stroke="white" stroke-width="2"/>
</svg>
