<svg width="20" height="20" viewBox="0 0 20 20" fill="none" xmlns="http://www.w3.org/2000/svg">
<path d="M0 3.75V0.78125C0 0.349731 0.349731 0 0.78125 0H3.75C4.18152 0 4.53125 0.349731 4.53125 0.78125C4.53125 1.21277 4.18152 1.5625 3.75 1.5625H1.5625V3.75C1.5625 4.18152 1.21277 4.53125 0.78125 4.53125C0.349731 4.53125 0 4.18152 0 3.75ZM19.2188 0H16.25C15.8185 0 15.4688 0.349731 15.4688 0.78125C15.4688 1.21277 15.8185 1.5625 16.25 1.5625H18.4375V3.75C18.4375 4.18152 18.7872 4.53125 19.2188 4.53125C19.6503 4.53125 20 4.18152 20 3.75V0.78125C20 0.349731 19.6503 0 19.2188 0ZM3.75 18.4375H1.5625V16.25C1.5625 15.8185 1.21277 15.4688 0.78125 15.4688C0.349731 15.4688 0 15.8185 0 16.25V19.2188C0 19.6503 0.349731 20 0.78125 20H3.75C4.18152 20 4.53125 19.6503 4.53125 19.2188C4.53125 18.7872 4.18152 18.4375 3.75 18.4375ZM19.2188 15.4688C18.7872 15.4688 18.4375 15.8185 18.4375 16.25V18.4375H16.25C15.8185 18.4375 15.4688 18.7872 15.4688 19.2188C15.4688 19.6503 15.8185 20 16.25 20H19.2188C19.6503 20 20 19.6503 20 19.2188V16.25C20 15.8185 19.6503 15.4688 19.2188 15.4688ZM9.31641 3.84766V8.53516C9.31641 8.96667 8.96667 9.31641 8.53516 9.31641H3.84766C3.41614 9.31641 3.06641 8.96667 3.06641 8.53516V3.84766C3.06641 3.41614 3.41614 3.06641 3.84766 3.06641H8.53516C8.96667 3.06641 9.31641 3.41614 9.31641 3.84766ZM7.75391 4.62891H4.62891V7.75391H7.75391V4.62891ZM16.543 9.31641H11.8555C11.424 9.31641 11.0742 8.96667 11.0742 8.53516V3.84766C11.0742 3.41614 11.424 3.06641 11.8555 3.06641H16.543C16.9745 3.06641 17.3242 3.41614 17.3242 3.84766V8.53516C17.3242 8.96667 16.9745 9.31641 16.543 9.31641ZM15.7617 4.62891H12.6367V7.75391H15.7617V4.62891ZM9.31641 11.8555V16.543C9.31641 16.9745 8.96667 17.3242 8.53516 17.3242H3.84766C3.41614 17.3242 3.06641 16.9745 3.06641 16.543V11.8555C3.06641 11.424 3.41614 11.0742 3.84766 11.0742H8.53516C8.96667 11.0742 9.31641 11.424 9.31641 11.8555ZM7.75391 12.6367H4.62891V15.7617H7.75391V12.6367ZM15.5371 16.3184H12.8613C12.4298 16.3184 12.0801 15.9686 12.0801 15.5371V12.8613C12.0801 12.4298 12.4298 12.0801 12.8613 12.0801H15.5371C15.9686 12.0801 16.3184 12.4298 16.3184 12.8613V15.5371C16.3184 15.9686 15.9686 16.3184 15.5371 16.3184ZM14.7559 13.6426H13.6426V14.7559H14.7559V13.6426Z" fill="white"/>
</svg>
