<svg width="20" height="20" viewBox="0 0 20 20" xmlns="http://www.w3.org/2000/svg">
<path fill-rule="evenodd" clip-rule="evenodd" d="M4.28 3.21994C3.99 2.92994 3.51 2.92994 3.22 3.21994C2.93 3.50994 2.93 3.98994 3.22 4.27994L8.94 9.99994L3.22 15.7199C2.93 16.0099 2.93 16.4899 3.22 16.7799C3.51 17.0699 3.99 17.0699 4.28 16.7799L10 11.0599L15.72 16.7799C16.01 17.0699 16.49 17.0699 16.78 16.7799C17.07 16.4899 17.07 16.0099 16.78 15.7199L11.06 9.99994L16.78 4.27994C17.07 3.98994 17.07 3.50994 16.78 3.21994C16.49 2.92994 16.01 2.92994 15.72 3.21994L10 8.93994L4.28 3.21994Z" fill="#000000"/>
</svg>
