<svg width="356" height="356" viewBox="0 0 356 356" fill="none" xmlns="http://www.w3.org/2000/svg">
<path d="M356 272.269H0V272.447H356V272.269Z" fill="#ECECEC"/>
<path d="M320.329 283.725H296.748V283.903H320.329V283.725Z" fill="#ECECEC"/>
<path d="M235.829 285.662H229.642V285.84H235.829V285.662Z" fill="#ECECEC"/>
<path d="M296.035 277.118H282.372V277.296H296.035V277.118Z" fill="#ECECEC"/>
<path d="M68.1028 278.314H37.3516V278.492H68.1028V278.314Z" fill="#ECECEC"/>
<path d="M78.9537 278.314H74.4468V278.492H78.9537V278.314Z" fill="#ECECEC"/>
<path d="M160.307 281.318H93.6064V281.496H160.307V281.318Z" fill="#ECECEC"/>
<path d="M168.751 240.514H31.2711C29.0283 240.514 27.2056 238.691 27.2056 236.448V43.1899C27.2056 40.9471 29.0283 39.1244 31.2711 39.1244H168.758C171.001 39.1244 172.824 40.9471 172.824 43.1899V236.448C172.817 238.691 170.994 240.514 168.751 240.514ZM31.2711 39.3024C29.128 39.3024 27.3836 41.0468 27.3836 43.1899V236.448C27.3836 238.591 29.128 240.336 31.2711 240.336H168.758C170.901 240.336 172.646 238.591 172.646 236.448V43.1899C172.646 41.0468 170.901 39.3024 168.758 39.3024H31.2711Z" fill="#ECECEC"/>
<path d="M322.757 240.514H185.27C183.027 240.514 181.204 238.691 181.204 236.448V43.1899C181.204 40.9471 183.027 39.1244 185.27 39.1244H322.757C325 39.1244 326.822 40.9471 326.822 43.1899V236.448C326.822 238.691 325 240.514 322.757 240.514ZM185.27 39.3024C183.126 39.3024 181.382 41.0468 181.382 43.1899V236.448C181.382 238.591 183.126 240.336 185.27 240.336H322.757C324.9 240.336 326.644 238.591 326.644 236.448V43.1899C326.644 41.0468 324.9 39.3024 322.757 39.3024H185.27Z" fill="#ECECEC"/>
<path d="M155.536 203.539H65.5254V209.89H155.536V203.539Z" fill="#ECECEC"/>
<path d="M155.537 203.539H116.398V209.89H155.537V203.539Z" fill="#E1E1E1"/>
<path d="M78.8255 209.89H65.5254V272.269H78.8255V209.89Z" fill="#ECECEC"/>
<path d="M78.8255 216.327L65.5254 211.799V209.89H78.8255V216.327Z" fill="#E1E1E1"/>
<path d="M155.536 209.89H142.236V272.269H155.536V209.89Z" fill="#E1E1E1"/>
<path d="M129.698 209.89H116.398V272.269H129.698V209.89Z" fill="#ECECEC"/>
<path d="M129.691 216.327L116.398 211.799V209.89H129.691V216.327Z" fill="#E1E1E1"/>
<path d="M104.664 209.89H91.3638V272.269H104.664V209.89Z" fill="#E1E1E1"/>
<path d="M163.995 62.0645H50.5518V158.662H163.995V62.0645Z" fill="#ECECEC"/>
<path d="M163.998 158.655H165.265V62.0577H163.998V158.655Z" fill="#E1E1E1"/>
<path d="M159.728 154.385L159.728 66.3322L54.8286 66.3322L54.8286 154.385H159.728Z" fill="#F5F5F5"/>
<path d="M106.009 141.019C112.403 119.637 114.197 88.1527 127.832 92.503C141.467 96.8462 123.603 143.432 123.603 143.432L106.009 141.019Z" fill="white"/>
<path d="M117.017 142.08C110.495 111.122 112.14 70.0181 91.8761 70.965C71.6126 71.9049 91.8761 143.425 91.8761 143.425L117.017 142.08Z" fill="white"/>
<path d="M131.335 138.605H86.9777C85.0054 138.605 83.5102 140.05 83.4248 141.88C82.5205 162.315 85.8669 183.141 92.0969 203.532H126.066C132.296 183.141 135.643 162.315 134.739 141.88C134.66 140.058 133.165 138.605 131.335 138.605Z" fill="#ECECEC"/>
<path d="M232.254 72.8376H229.755V272.269H232.254V72.8376Z" fill="#E1E1E1"/>
<path d="M290.987 72.8376H288.488V272.269H290.987V72.8376Z" fill="#E1E1E1"/>
<path d="M214.532 72.8376H212.033V272.269H214.532V72.8376Z" fill="#ECECEC"/>
<path d="M273.265 72.8376H270.766V272.269H273.265V72.8376Z" fill="#ECECEC"/>
<path d="M290.987 71.4706H212.033V74.1975H290.987V71.4706Z" fill="#ECECEC"/>
<path d="M290.987 120.307H212.033V123.034H290.987V120.307Z" fill="#ECECEC"/>
<path d="M290.987 169.143H212.033V171.87H290.987V169.143Z" fill="#ECECEC"/>
<path d="M290.987 217.979H212.033V220.706H290.987V217.979Z" fill="#ECECEC"/>
<path d="M290.987 266.815H212.033V269.542H290.987V266.815Z" fill="#ECECEC"/>
<path d="M290.987 71.4706H273.265V74.1975H290.987V71.4706Z" fill="#E1E1E1"/>
<path d="M290.987 120.307H273.265V123.034H290.987V120.307Z" fill="#E1E1E1"/>
<path d="M290.987 169.143H273.265V171.87H290.987V169.143Z" fill="#E1E1E1"/>
<path d="M290.987 217.979H273.265V220.706H290.987V217.979Z" fill="#E1E1E1"/>
<path d="M290.987 266.815H273.265V269.542H290.987V266.815Z" fill="#E1E1E1"/>
<path d="M243.881 88.0815V84.2367H234.39V88.0815C234.39 90.5949 232.354 92.6312 229.84 92.6312C227.327 92.6312 225.291 94.6675 225.291 97.1809V120.314H252.973V97.1809C252.973 94.6675 250.937 92.6312 248.423 92.6312C245.917 92.6312 243.881 90.5949 243.881 88.0815Z" fill="#F0F0F0"/>
<path d="M263.525 153.264H221.93V169.149H263.525V153.264Z" fill="#F0F0F0"/>
<path d="M263.527 169.141H270.768V153.256H263.527V169.141Z" fill="#E7E7E7"/>
<path d="M263.527 162.077H270.768V160.326H263.527V162.077Z" fill="#ECECEC"/>
<path d="M263.525 160.328H221.93V162.08H263.525V160.328Z" fill="#F5F5F5"/>
<path d="M252.382 238.734H219.894V266.815H252.382V238.734Z" fill="#F0F0F0"/>
<path d="M252.38 266.819H258.034V238.737H252.38V266.819Z" fill="#E7E7E7"/>
<path d="M252.38 254.323H258.034V251.226H252.38V254.323Z" fill="#ECECEC"/>
<path d="M252.382 251.229H219.894V254.326H252.382V251.229Z" fill="#F5F5F5"/>
<path d="M252.38 249.058H258.034V247.954H252.38V249.058Z" fill="#ECECEC"/>
<path d="M252.382 247.954H219.894V249.058H252.382V247.954Z" fill="#F5F5F5"/>
<path d="M227.811 189.428H221.93V217.979H227.811V189.428Z" fill="#F0F0F0"/>
<path d="M227.811 199.602H221.93V207.804H227.811V199.602Z" fill="#FAFAFA"/>
<path d="M227.814 217.983H247.821V189.431H227.814V217.983Z" fill="#E7E7E7"/>
<path d="M236.896 185.739H230.253V217.979H236.896V185.739Z" fill="#ECECEC"/>
<path d="M236.896 195.985H230.253V200.948H236.896V195.985Z" fill="#FAFAFA"/>
<path d="M236.896 204.273H230.253V209.235H236.896V204.273Z" fill="#FAFAFA"/>
<path d="M236.904 217.979H259.496V185.739H236.904V217.979Z" fill="#E1E1E1"/>
<path d="M244.294 189.428H240.713V217.979H244.294V189.428Z" fill="#F0F0F0"/>
<path d="M243.675 193.045H241.325V214.362H243.675V193.045Z" fill="#FAFAFA"/>
<path d="M244.286 217.983H256.454V189.431H244.286V217.983Z" fill="#E7E7E7"/>
<path d="M253.856 187.926H249.812V217.979H253.856V187.926Z" fill="#ECECEC"/>
<path d="M253.856 197.473H249.812V202.101H253.856V197.473Z" fill="#FAFAFA"/>
<path d="M253.856 205.205H249.812V209.833H253.856V205.205Z" fill="#FAFAFA"/>
<path d="M253.853 217.978H267.594V187.924H253.853V217.978Z" fill="#E1E1E1"/>
<path d="M252.014 150.671C255.473 147.212 255.473 141.604 252.014 138.145C248.555 134.686 242.947 134.686 239.488 138.145C236.029 141.604 236.029 147.212 239.488 150.671C242.947 154.13 248.555 154.13 252.014 150.671Z" fill="#F5F5F5"/>
<path d="M256.539 153.176C259.885 152.633 262.157 149.48 261.614 146.134C261.071 142.789 257.919 140.516 254.573 141.059C251.227 141.602 248.955 144.755 249.498 148.101C250.041 151.447 253.193 153.719 256.539 153.176Z" fill="#ECECEC"/>
<path d="M178 304.423C254.243 304.423 316.05 300.814 316.05 296.363C316.05 291.912 254.243 288.303 178 288.303C101.757 288.303 39.9502 291.912 39.9502 296.363C39.9502 300.814 101.757 304.423 178 304.423Z" fill="#F5F5F5"/>
<path d="M181.239 241.147H89.79V288.381C89.79 290.923 91.8548 292.988 94.3967 292.988H176.633C179.175 292.988 181.239 290.923 181.239 288.381V241.147Z" fill="#906848"/>
<path d="M89.7901 241.147H154.497L146.537 230.959C145.661 229.841 143.496 228.936 141.695 228.936H83.5032C81.7018 228.936 80.9542 229.841 81.8228 230.959L89.7901 241.147Z" fill="#906848"/>
<path opacity="0.2" d="M89.7901 241.147H154.497L146.537 230.959C145.661 229.841 143.496 228.936 141.695 228.936H83.5032C81.7018 228.936 80.9542 229.841 81.8228 230.959L89.7901 241.147Z" fill="black"/>
<path d="M181.239 241.147H116.533L124.493 234.504C125.369 233.778 127.533 233.187 129.334 233.187H187.526C189.328 233.187 190.075 233.778 189.207 234.504L181.239 241.147Z" fill="#906848"/>
<path opacity="0.2" d="M181.239 241.147H116.533V288.381C116.533 290.923 118.598 292.988 121.139 292.988H176.633C179.174 292.988 181.239 290.923 181.239 288.381V241.147Z" fill="white"/>
<path opacity="0.5" d="M97.8213 241.147V273.529L100.057 271.763L101.63 273.529L102.998 271.564L104.4 273.529L106.351 272.048L108.501 273.529V241.147H97.8213Z" fill="white"/>
<path d="M112.297 170.51L100.798 160.855" stroke="#906848" stroke-miterlimit="10"/>
<path d="M118.256 175.515L114.753 172.567" stroke="#906848" stroke-miterlimit="10"/>
<path d="M152.703 195.722L190.638 148.31L140.129 105.91L106.636 144.308L101.681 153.913C100.641 155.109 100.783 156.782 102.015 157.822L147.59 196.085C149.071 197.309 151.464 197.146 152.703 195.722Z" fill="#906848"/>
<path opacity="0.5" d="M126.686 160.755L121.225 169.556L123.425 170.026L124.173 172.069L125.632 172.147L126.309 173.892L128.096 174.412L129.47 176.597L134.931 167.804L126.686 160.755Z" fill="white"/>
<path opacity="0.1" d="M188.986 146.921L154.967 184.871L106.643 144.301L140.128 105.903L188.986 146.921Z" fill="black"/>
<path d="M188.986 146.921L154.967 184.871L169.05 185.91L202.543 147.512L188.986 146.921Z" fill="#906848"/>
<path opacity="0.3" d="M188.986 146.921L154.967 184.871L169.05 185.91L202.543 147.512L188.986 146.921Z" fill="black"/>
<path d="M126.579 105.305L92.5527 143.262L106.643 144.301L140.129 105.903L126.579 105.305Z" fill="#906848"/>
<path opacity="0.4" d="M126.579 105.305L92.5527 143.262L106.643 144.301L140.129 105.903L126.579 105.305Z" fill="black"/>
<path opacity="0.1" d="M178.513 158.605L188.986 146.921L140.129 105.903L133.877 120.969L178.513 158.605Z" fill="black"/>
<path opacity="0.2" d="M106.643 144.301L140.128 105.903L133.877 120.969L110.296 147.37L106.643 144.301Z" fill="black"/>
<path d="M200.791 75.4791C200.926 75.9419 200.791 76.3834 200.492 76.4688C200.193 76.5542 199.837 76.2552 199.701 75.7995C199.566 75.3367 199.701 74.8953 200 74.8098C200.307 74.7173 200.656 75.0163 200.791 75.4791Z" fill="#1A2E35"/>
<path d="M200.834 76.3691C200.834 76.3691 200.571 79.331 199.794 80.9473C200.834 81.467 202.108 80.7123 202.108 80.7123L200.834 76.3691Z" fill="#FF847F"/>
<path d="M201.731 72.4318C201.788 72.4033 201.838 72.3463 201.866 72.2751C201.916 72.1256 201.838 71.969 201.695 71.9191C200.229 71.3994 199.189 72.1826 199.146 72.2111C199.025 72.3036 198.997 72.4816 199.097 72.6027C199.189 72.7237 199.367 72.7451 199.488 72.6525C199.524 72.624 200.343 72.0259 201.51 72.4389C201.581 72.4745 201.66 72.4674 201.731 72.4318Z" fill="#1A2E35"/>
<path d="M216.619 78.5194C216.932 82.293 217.865 89.2207 220.094 90.7942C220.094 90.7942 219.56 95.3297 211.578 96.5045C202.792 97.8003 206.736 92.7665 206.736 92.7665C211.357 90.9153 210.709 87.3766 209.385 84.1584L212.781 80.2709C214.049 78.8113 216.462 76.5898 216.619 78.5194Z" fill="#FFC3BD"/>
<path d="M222.963 92.6383C223.675 91.9904 222.237 89.3987 221.375 89.0427C219.082 88.0815 209.698 89.0285 206.174 92.0616C205.163 93.6636 205.896 95.4009 205.896 95.4009L222.963 92.6383Z" fill="white"/>
<path d="M252.824 282.956C252.24 283.134 251.649 283.219 251.343 282.999C251.215 282.906 251.079 282.721 251.151 282.358C251.193 282.166 251.3 282.016 251.478 281.916C252.247 281.468 254.148 282.059 254.226 282.087C254.276 282.101 254.319 282.151 254.326 282.208C254.333 282.265 254.305 282.315 254.255 282.344C253.984 282.5 253.408 282.778 252.824 282.956ZM251.784 282.087C251.727 282.109 251.67 282.13 251.628 282.158C251.521 282.223 251.457 282.308 251.435 282.415C251.378 282.671 251.485 282.742 251.514 282.771C251.855 283.013 253.016 282.664 253.821 282.258C253.237 282.109 252.297 281.931 251.784 282.087Z" fill="#FF6900"/>
<path d="M254.227 282.351C254.205 282.358 254.184 282.358 254.156 282.351C253.472 282.208 251.956 281.318 251.877 280.649C251.863 280.528 251.884 280.3 252.198 280.165C252.397 280.072 252.611 280.072 252.824 280.165C253.65 280.5 254.291 282.102 254.312 282.166C254.334 282.215 254.319 282.265 254.291 282.308C254.277 282.329 254.255 282.344 254.227 282.351ZM252.376 280.407C252.354 280.414 252.333 280.421 252.319 280.428C252.148 280.507 252.162 280.585 252.162 280.628C252.205 281.026 253.216 281.738 253.935 282.009C253.721 281.553 253.244 280.649 252.717 280.435C252.596 280.378 252.482 280.371 252.376 280.407Z" fill="#FF6900"/>
<path d="M211.094 290.603C210.332 290.603 209.599 290.496 209.349 290.154C209.264 290.033 209.193 289.827 209.364 289.542C209.456 289.378 209.606 289.271 209.812 289.214C210.802 288.944 212.874 290.126 212.966 290.176C213.016 290.204 213.045 290.261 213.038 290.318C213.03 290.375 212.981 290.425 212.924 290.432C212.539 290.51 211.806 290.603 211.094 290.603ZM210.154 289.449C210.054 289.449 209.962 289.456 209.883 289.485C209.755 289.521 209.663 289.585 209.606 289.684C209.506 289.862 209.542 289.948 209.577 289.998C209.855 290.382 211.357 290.389 212.461 290.233C211.913 289.941 210.845 289.449 210.154 289.449Z" fill="#FF6900"/>
<path d="M212.888 290.439C212.866 290.439 212.852 290.432 212.831 290.425C212.112 290.104 210.695 288.816 210.802 288.146C210.83 287.99 210.937 287.79 211.328 287.755C211.62 287.726 211.877 287.805 212.112 287.997C212.866 288.616 213.03 290.218 213.037 290.282C213.044 290.332 213.023 290.382 212.98 290.411C212.945 290.432 212.916 290.439 212.888 290.439ZM211.442 288.032C211.414 288.032 211.385 288.032 211.357 288.04C211.101 288.068 211.086 288.168 211.079 288.196C211.015 288.602 211.976 289.606 212.71 290.047C212.631 289.577 212.425 288.623 211.927 288.218C211.777 288.089 211.62 288.032 211.442 288.032Z" fill="#FF6900"/>
<path d="M219.424 290.297H213.479L212.888 276.541H218.826L219.424 290.297Z" fill="#FFC3BD"/>
<path d="M261.183 280.905L255.708 282.792L250.026 269.827L255.501 267.94L261.183 280.905Z" fill="#FFC3BD"/>
<path d="M254.405 281.432L260.784 279.474C261.019 279.403 261.268 279.503 261.389 279.716L264.059 284.423C264.337 284.914 264.074 285.533 263.54 285.69C261.304 286.338 260.179 286.537 257.374 287.399C255.651 287.926 251.293 289.578 248.851 290.069C246.459 290.553 245.604 288.21 246.558 287.79C250.845 285.904 252.582 283.76 253.6 282.073C253.778 281.76 254.07 281.539 254.405 281.432Z" fill="#1A2E35"/>
<path d="M213.522 289.606H220.008C220.25 289.606 220.464 289.777 220.513 290.012L221.688 295.295C221.809 295.843 221.396 296.363 220.834 296.349C218.491 296.306 215.109 296.171 212.169 296.171C208.73 296.171 207.277 296.356 203.247 296.356C200.812 296.356 200.129 293.892 201.154 293.664C205.803 292.646 208.075 292.539 212.09 290.062C212.525 289.805 213.009 289.606 213.522 289.606Z" fill="#1A2E35"/>
<path d="M230.788 94.5821C232.518 96.1698 234.013 97.7576 235.565 99.4165C237.082 101.083 238.556 102.791 239.951 104.621C241.361 106.437 242.692 108.345 243.91 110.495C244.515 111.578 245.092 112.71 245.576 114.013C245.697 114.34 245.818 114.66 245.918 115.031C246.024 115.387 246.131 115.736 246.21 116.141L246.331 116.732L246.416 117.387C246.466 117.701 246.516 118.569 246.416 119.203C246.231 120.542 245.711 121.567 245.191 122.364C244.665 123.155 244.102 123.738 243.554 124.251C242.45 125.262 241.375 125.981 240.3 126.622C238.157 127.882 236.035 128.787 233.906 129.598C229.634 131.2 225.384 132.318 220.962 133.158L219.723 128.872C223.589 127.199 227.505 125.39 231.137 123.454C232.945 122.485 234.704 121.439 236.199 120.335C236.939 119.794 237.609 119.21 238.043 118.705C238.264 118.455 238.406 118.22 238.463 118.092C238.513 117.971 238.442 117.986 238.385 118.242C238.335 118.719 238.349 118.349 238.228 118.092C238.2 117.971 238.128 117.808 238.064 117.651C238.014 117.501 237.922 117.323 237.844 117.145C237.509 116.448 237.06 115.664 236.555 114.888C235.53 113.322 234.291 111.741 232.995 110.182C231.685 108.63 230.303 107.085 228.887 105.568C227.498 104.045 225.982 102.528 224.586 101.111L230.788 94.5821Z" fill="#FFC3BD"/>
<path d="M221.339 128.21L215.7 129.904L219.303 135.828C219.303 135.828 222.621 134.454 223.347 131.642L221.339 128.21Z" fill="#FFC3BD"/>
<path d="M213.472 132.005L215.679 136.889L219.303 135.828L215.7 129.904L213.472 132.005Z" fill="#FFC3BD"/>
<path d="M217.658 96.1912C217.124 101.88 229.171 110.695 229.171 110.695L240.77 102.756C240.77 102.756 238.385 97.6437 232.212 93.6778C225.576 89.4272 218.328 89.1139 217.658 96.1912Z" fill="#FF6900"/>
<g opacity="0.3">
<path opacity="0.3" d="M217.658 96.1912C217.124 101.88 229.171 110.695 229.171 110.695L240.77 102.756C240.77 102.756 238.385 97.6437 232.212 93.6778C225.576 89.4272 218.328 89.1139 217.658 96.1912Z" fill="white"/>
</g>
<path d="M197.936 95.7355C197.936 95.7355 192.724 103.724 205.091 146.572L236.519 141.93C236.078 137.587 230.816 118.641 230.645 97.9285C230.61 93.7205 227.078 90.3813 222.877 90.5949C221.959 90.6447 221.019 90.7088 220.093 90.8013C216.049 91.2001 210.218 91.9334 206.736 92.7736C202.144 93.8843 197.936 95.7355 197.936 95.7355Z" fill="#FF6900"/>
<g opacity="0.3">
<path opacity="0.3" d="M197.936 95.7355C197.936 95.7355 192.724 103.724 205.091 146.572L236.519 141.93C236.078 137.587 230.816 118.641 230.645 97.9285C230.61 93.7205 227.078 90.3813 222.877 90.5949C221.959 90.6447 221.019 90.7088 220.093 90.8013C216.049 91.2001 210.218 91.9334 206.736 92.7736C202.144 93.8843 197.936 95.7355 197.936 95.7355Z" fill="white"/>
</g>
<path opacity="0.2" d="M197.167 109.506L197.274 109.385L204.671 110.04C205.789 114.81 201.681 121.318 199.509 124.337C198.242 118.22 197.53 113.358 197.167 109.506Z" fill="black"/>
<path opacity="0.2" d="M212.888 276.548L213.194 283.632H219.139L218.833 276.548H212.888Z" fill="black"/>
<path opacity="0.2" d="M255.501 267.94L250.025 269.827L252.959 276.512L258.434 274.626L255.501 267.94Z" fill="black"/>
<path d="M215.843 70.0038C217.153 75.7497 218.214 79.0462 216.213 82.7842C213.201 88.4019 205.476 87.8608 202.471 82.6205C199.773 77.907 198.078 69.299 202.948 65.4257C207.74 61.6165 214.532 64.258 215.843 70.0038Z" fill="#FFC3BD"/>
<path d="M204.301 75.6358L202.116 76.9743L202.322 69.4983C202.322 69.4983 200.029 69.655 198.363 68.352C199.154 67.5973 211.457 63.2897 215.295 64.0373C215.693 63.8664 216.178 63.1259 216.178 63.1259C216.178 63.1259 216.327 64.0586 215.672 64.4146C216.149 64.3221 217.317 64.5499 217.644 65.2406C216.612 65.0198 216.014 65.3331 216.014 65.3331C216.014 65.3331 220.314 65.981 218.776 71.9049C217.075 78.4339 217.637 82.1862 217.637 82.1862C217.637 82.1862 214.462 84.6354 211.692 84.1869C208.751 80.9473 204.494 77.0455 204.301 75.6358Z" fill="#1A2E35"/>
<path d="M200.114 67.761C196.64 67.7895 195.394 66.0665 194.504 64.6425C196.996 64.3719 202.186 62.7699 206.045 62.5065C209.904 62.2359 214.112 62.955 212.838 64.614C211.563 66.2729 200.114 67.761 200.114 67.761Z" fill="#1A2E35"/>
<path d="M200.876 66.216C198.05 65.8244 195.244 63.133 197.38 60.5627C198.171 62.4566 203.511 62.2359 207.292 61.4456C212.254 60.4061 215.729 62.0864 213.963 65.4826C213.002 67.3338 200.876 66.216 200.876 66.216Z" fill="#1A2E35"/>
<path d="M207.377 73.9341C207.826 75.4079 207.662 77.017 207.185 78.2061C206.466 79.9932 204.892 79.6301 204.073 78.085C203.333 76.6895 202.813 74.0836 204.023 72.7949C205.22 71.5275 206.864 72.2466 207.377 73.9341Z" fill="#FFC3BD"/>
<path d="M216.241 144.928C216.241 144.928 221.339 188.324 225.042 205.327C229.093 223.945 249.079 274.732 249.079 274.732L259.075 271.286C259.075 271.286 246.259 233.052 242.863 207.021C240.25 187.021 236.526 141.937 236.526 141.937L216.241 144.928Z" fill="#1A2E35"/>
<path d="M246.53 271.543C246.487 271.557 248.573 275.807 248.573 275.807L260.215 272.027L258.848 268.552L246.53 271.543Z" fill="#FF6900"/>
<path opacity="0.3" d="M219.054 167.192C220.649 179.246 222.692 193.507 224.493 202.657C227.092 188.652 227.747 171.03 219.054 167.192Z" fill="black"/>
<path d="M205.091 146.572C205.091 146.572 200.862 187.341 201.51 205.455C202.179 224.294 210.987 282.265 210.987 282.265H221.047C221.047 282.265 219.196 225.398 219.645 206.893C220.136 186.722 227.697 143.24 227.697 143.24L205.091 146.572Z" fill="#1A2E35"/>
<path d="M209.043 278.257C208.993 278.257 209.612 282.436 209.612 282.436H221.852L222.179 278.705L209.043 278.257Z" fill="#FF6900"/>
<path d="M203.141 105.746C202.03 107.512 200.905 109.1 199.73 110.737C198.57 112.361 197.345 113.941 196.092 115.508C193.572 118.626 190.873 121.645 187.854 124.493C187.057 125.184 186.316 125.896 185.462 126.565L184.835 127.071L184.522 127.32C184.408 127.412 184.358 127.462 184.123 127.626C183.333 128.203 182.55 128.559 181.824 128.815C180.357 129.313 179.089 129.434 177.886 129.484C176.69 129.534 175.572 129.456 174.49 129.335C170.168 128.801 166.366 127.598 162.564 125.967L163.789 121.681C167.477 122.051 171.336 122.364 174.775 122.208C175.629 122.158 176.455 122.072 177.188 121.944C177.915 121.816 178.577 121.61 178.926 121.403C179.104 121.311 179.196 121.218 179.168 121.197C179.125 121.225 179.26 121.104 179.324 121.04L179.559 120.819L180.036 120.371C180.677 119.801 181.29 119.11 181.909 118.484C183.141 117.16 184.358 115.8 185.526 114.347C186.715 112.93 187.861 111.449 188.993 109.961C190.133 108.473 191.236 106.942 192.354 105.426C193.451 103.909 194.547 102.322 195.572 100.841L203.141 105.746Z" fill="#FFC3BD"/>
<path d="M207.278 103.859C209.67 111.684 195.786 120.378 195.786 120.378L186.758 108.872C186.758 108.872 189.264 103.824 194.234 98.4126C200.371 91.727 205.455 97.9 207.278 103.859Z" fill="#FF6900"/>
<g opacity="0.3">
<path opacity="0.3" d="M207.278 103.859C209.67 111.684 195.786 120.378 195.786 120.378L186.758 108.872C186.758 108.872 189.264 103.824 194.234 98.4126C200.371 91.727 205.455 97.9 207.278 103.859Z" fill="white"/>
</g>
<path d="M165.882 121.987L158.577 120.648L159.346 126.978C159.346 126.978 163.141 129.107 165.903 125.775L165.882 121.987Z" fill="#FFC3BD"/>
<path d="M155.764 122.072L157.345 126.636L159.338 126.971L158.569 120.648L155.764 122.072Z" fill="#FFC3BD"/>
</svg>
