<svg width="313" height="182" viewBox="0 0 313 182" fill="none" xmlns="http://www.w3.org/2000/svg">
<path opacity="0.47" d="M5.34467 81.2491C6.83798 66.8453 14.0219 52.418 26.463 42.1095C45.8477 26.0431 75.1721 21.9948 100.869 25.7097C111.633 27.2642 122.308 30.021 133.331 29.1521C149.409 27.8888 163.569 19.2146 178.206 12.8604C198.127 4.20964 220.965 -0.449177 242.149 3.31732C266.165 7.58634 285.856 23.7137 288.206 45.1105C289.271 54.8038 278.455 71.8845 281.866 81.0754C285.328 90.393 310.611 118.938 309.989 140.649C309.367 162.281 303.544 169.006 295.315 180H288.739H40.8872H26.6231C21.4978 168.86 17.4843 159.951 23.4858 145.327C28.2766 133.637 15.2561 124.014 10.2203 113.133C5.72623 103.44 4.25177 91.7972 5.34467 81.2491Z" fill="#F7F7F7"/>
<path d="M112.333 180.162C112.333 180.162 106.914 180.552 101.691 176.246C92.214 168.433 79.9732 153.246 77.7616 149.523C74.3329 143.749 79.5919 143.28 79.5919 143.28C79.5919 143.28 68.3471 131.225 69.754 127.023C71.161 122.82 77.539 127.998 77.539 127.998C77.539 127.998 71.0769 115.102 73.9235 113.565C79.2261 110.702 87.59 125.584 87.59 125.584C87.59 125.584 86.1784 118.814 89.7783 118.943C95.2069 119.138 96.1485 131.044 96.1485 131.044C96.1485 131.044 96.8256 126.887 100.055 128.721C105.851 132.014 112.333 180.162 112.333 180.162Z" fill="#4D4237"/>
<path d="M170.183 167.585L176.656 99.9028L96.7002 99.509L104.652 168.207L170.183 167.585Z" fill="#D9B395"/>
<path d="M104.708 180.966H173.791L174.412 168.986L177.369 167.585L101.751 168.207L103.93 170.231L104.708 180.966Z" fill="#3C8F7C"/>
<path d="M181.208 100.015L94 99.7471L94.2319 96.6826C94.4062 94.3668 96.0856 92.5909 98.0995 92.5909H177.14C179.154 92.5909 180.833 94.3683 181.009 96.6826L181.208 100.015Z" fill="#FF6900"/>
<path d="M176.156 92.5878H98.6084L98.8886 86.5397C99.0006 84.1351 100.722 82.2504 102.811 82.2504H171.954C174.041 82.2504 175.764 84.1351 175.876 86.5397L176.156 92.5878Z" fill="#FF6900"/>
<path d="M139.905 75.2483C140.062 74.0592 139.073 73.0102 137.796 73.0102H135.151C133.873 73.0102 132.884 74.0592 133.042 75.2483L133.056 75.3525H139.893L139.905 75.2483Z" fill="#FF6900"/>
<path d="M133.054 75.3525L134.648 87.4424H138.298L139.891 75.3525H133.054Z" fill="#FF6900"/>
<path d="M141.216 13.0976L141.356 9.21447L138.237 6.89858C137.883 6.63556 137.984 6.07838 138.409 5.95698L142.144 4.8893L143.383 1.20693C143.524 0.788262 144.085 0.711998 144.332 1.0793L146.502 4.30255L150.387 4.34302C150.829 4.34769 151.074 4.85818 150.802 5.20525L148.407 8.26507L149.569 11.9724C149.702 12.3941 149.292 12.7848 148.877 12.6338L145.227 11.3016L142.06 13.5521C141.699 13.8073 141.201 13.5396 141.216 13.0976Z" fill="#F2F2F2"/>
<path d="M56.1233 56.855L55.5023 59.3577L51.3654 58.8021L50.0052 62.349L46.8411 62.4409L46.8878 64.0408L51.118 63.921L52.4067 60.5592L56.71 61.1366L57.6454 57.3702L56.1233 56.855Z" fill="#F2F2F2"/>
<path d="M102.418 179.812C102.418 179.812 51.9726 177.676 43.0219 168.477C34.0712 159.278 48.7712 156.69 48.7712 156.69C48.7712 156.69 27.2372 142.273 28.4994 134.425C29.7616 126.576 37.3458 129.041 37.3458 129.041C37.3458 129.041 23.1237 113.456 27.1625 107.135C33.3693 97.4235 58.2214 123.016 58.2214 123.016C58.2214 123.016 52.9267 111.459 60.1467 110.62C71.0366 109.355 76.7252 134.434 76.7252 134.434C76.7252 134.434 74.8279 126.092 81.9359 128.38C94.6919 132.489 102.418 179.812 102.418 179.812Z" fill="#221D18"/>
<path d="M27.1622 107.138C23.1218 113.459 37.3455 129.044 37.3455 129.044C37.3455 129.044 29.7613 126.579 28.4991 134.426C27.2369 142.275 48.7709 156.692 48.7709 156.692C48.7709 156.692 34.0709 159.28 43.0216 168.478C51.9723 177.676 102.417 179.813 102.417 179.813L27.1622 107.138Z" fill="#484037"/>
<path d="M99.9134 173.907C99.9134 173.907 67.7727 180.791 60.5403 181.219C53.3094 181.647 55.0042 176.52 55.0042 176.52C55.0042 176.52 42.2545 179.541 38.6001 176.215C34.9457 172.89 40.1502 171.108 40.1502 171.108C40.1502 171.108 23.0722 169.348 22.6955 165.958C21.9951 159.644 38.4943 159.615 38.4943 159.615C38.4943 159.615 33.6306 158.15 35.243 154.857C37.674 149.89 49.8947 156.352 49.8947 156.352C49.8947 156.352 49.4324 152.388 52.6121 150.256C58.3162 146.432 99.9134 173.907 99.9134 173.907Z" fill="#221D18"/>
<path d="M1.93498 179.612C1.41048 179.612 0.985596 179.983 0.985596 180.44C0.985596 180.898 1.41048 181.268 1.93498 181.268H303.115C303.658 181.268 304.1 180.903 304.103 180.451C304.103 180.445 304.103 180.44 304.103 180.434C304.106 179.98 303.663 179.611 303.115 179.611H1.93498V179.612Z" fill="#F1F1F2"/>
<path d="M251.503 5.59589L248.228 7.95379L250.22 11.1428L247.096 13.6081L248.625 16.892L246.589 19.1177L247.716 20.148L250.438 17.1706L248.991 14.0594L252.24 11.4945L250.281 8.35845L253.249 6.22154L251.503 5.59589Z" fill="#F2F2F2"/>
<path d="M135.587 45.9683C135.587 45.9683 136.912 45.2741 138.48 46.043C139.88 46.7278 140.298 48.3122 139.663 49.6071C138.929 51.1058 136.747 52.2342 132.58 52.1035C129.925 48.8911 129.48 46.4741 130.214 44.9753C130.849 43.6804 132.358 43.0423 133.757 43.7271C135.324 44.4959 135.587 45.9683 135.587 45.9683Z" fill="#F2F2F2"/>
<path d="M123.737 40.8913C124.987 41.7785 126.037 42.4275 127.1 43.0158C127.45 43.2103 128 43.6508 128.409 43.4843C128.622 43.3987 128.747 43.2197 128.694 42.9816C128.597 42.5473 128.006 42.3699 127.654 42.1738C126.579 41.5762 125.39 40.8493 124.232 40.0447C124.014 39.8937 123.689 40.0042 123.562 40.2206C123.418 40.4665 123.52 40.7388 123.737 40.8913Z" fill="#F2F2F2"/>
<path d="M140.152 53.6287C140.662 53.9229 141.176 54.2077 141.691 54.4941C142.183 54.768 142.717 55.1789 143.275 55.2692C143.688 55.3361 143.974 54.8972 143.685 54.5657C143.31 54.1377 142.689 53.9027 142.195 53.6303C141.68 53.3455 141.167 53.0591 140.647 52.7821C140.091 52.4879 139.604 53.3128 140.152 53.6287Z" fill="#F2F2F2"/>
<path d="M124.723 50.2654C125.973 49.5433 126.944 49.6491 127.775 49.5697C128.221 49.5277 128.308 48.9534 127.88 48.7962C126.708 48.3635 125.256 48.818 124.23 49.425C123.692 49.744 124.179 50.5814 124.723 50.2654Z" fill="#F2F2F2"/>
<path d="M129.128 56.2886C129.405 55.747 129.776 55.2738 130.247 54.8879C130.537 54.6513 131.621 54.1501 131.106 53.6537C130.622 53.1867 129.793 53.9494 129.436 54.2684C128.958 54.6949 128.563 55.2209 128.278 55.7937C127.998 56.3571 128.84 56.8551 129.128 56.2886Z" fill="#F2F2F2"/>
<path d="M135.293 55.4949C135.463 55.8622 135.632 56.2295 135.802 56.5968C135.971 56.9625 136.076 57.417 136.494 57.5509C136.729 57.6256 136.932 57.4606 137.014 57.2551C137.164 56.8832 136.824 56.424 136.667 56.091C136.496 55.7252 136.325 55.3595 136.152 54.9937C136.038 54.7509 135.688 54.6887 135.472 54.8147C135.221 54.9595 135.179 55.249 135.293 55.4949Z" fill="#F2F2F2"/>
<path d="M133.819 40.8416C134.199 37.6074 134.227 37.6059 134.127 37.2666C134.026 36.9195 133.528 36.8386 133.344 37.1639C133.162 37.486 133.198 37.4362 132.812 40.8416C132.781 41.1124 133.066 41.3458 133.316 41.3458C133.613 41.3458 133.788 41.1139 133.819 40.8416Z" fill="#F2F2F2"/>
<path d="M138.519 43.4376C138.935 43.0983 139.308 42.717 139.641 42.2968C139.951 41.9061 140.479 41.3489 140.247 40.826C140.197 40.7139 140.035 40.6252 139.915 40.6361C139.413 40.6797 139.16 41.3069 138.873 41.6664C138.56 42.0586 138.203 42.4166 137.828 42.7497C137.631 42.924 137.649 43.2601 137.828 43.4391C138.031 43.6399 138.315 43.6057 138.519 43.4376Z" fill="#F2F2F2"/>
<path d="M144.889 47.5713C145.078 47.4141 145.023 47.1355 144.889 46.9705C144.614 46.6328 143.957 46.7153 143.562 46.7246C143.101 46.7355 142.645 46.7916 142.192 46.8756C141.931 46.9239 141.783 47.2398 141.848 47.481C141.926 47.7627 142.189 47.8639 142.454 47.825C144.175 47.5666 144.424 47.9588 144.889 47.5713Z" fill="#F2F2F2"/>
<path d="M116.716 165.018C116.716 168.411 124.213 173.16 128.899 174.12C133.875 175.139 138.455 176.596 138.455 179.653L264.483 179.679C264.483 176.624 267.879 175.141 272.853 174.12C277.539 173.16 285.027 168.411 285.027 165.018H116.716Z" fill="#E1DDE7"/>
<path d="M291.398 165.376H113.679C112.752 165.376 112 164.625 112 163.697V163.664C112 162.737 112.752 161.985 113.679 161.985H291.398C292.326 161.985 293.078 162.737 293.078 163.664V163.697C293.078 164.625 292.326 165.376 291.398 165.376Z" fill="#919191"/>
<path d="M254.578 161.985H166.37L167.603 157.073L180.54 105.416H241.78L254.578 161.985Z" fill="#D25D0B"/>
<path opacity="0.68" d="M202.203 161.985H175.85L189.61 105.415H200.016L202.203 161.985Z" fill="#FF6900"/>
<path opacity="0.68" d="M236.301 161.985H216.182L213.46 105.415H224.023L236.301 161.985Z" fill="#FF6900"/>
<path d="M217.303 101.528C217.303 101.528 206.24 100.339 199.102 98.7915C191.965 97.2445 179.47 95.4951 176.14 100.848C172.809 106.2 175.109 113.695 178.44 114.172C181.771 114.648 184.309 113.695 187.164 111.792C190.018 109.888 190.521 107.8 191.314 105.976C191.314 105.976 192.279 104.139 193.23 107.945C194.181 111.751 188.514 124.604 189.109 131.027C189.704 137.45 197.232 136.61 197.87 131.538C198.368 127.578 192.754 109.767 195.49 107.269C198.226 104.771 201.359 105.683 201.835 108.776C202.312 111.868 198.667 119.675 199.577 123.888C200.528 128.289 206.358 126.742 206.477 122.579C206.595 118.416 202.509 108.933 204.531 107.982C206.553 107.031 209.331 112.587 214.447 115.561C219.563 118.536 225.391 112.587 227.295 109.495C229.198 106.402 236.454 101.881 239.904 109.733C243.355 117.583 237.406 136.736 238.357 142.208C239.308 147.68 248.469 149.226 249.658 141.852C250.664 135.615 244.95 119.252 243.377 111.831C243.07 110.382 243.403 108.864 244.31 107.694C245.064 106.724 245.696 104.998 244.779 102.121C243.114 96.8865 237.047 94.6267 229.909 97.0048C222.775 99.3861 217.303 101.528 217.303 101.528Z" fill="#F2F2F2"/>
<path d="M228.723 101.17C228.723 101.17 221.467 99.9806 220.991 99.9806C220.515 99.9806 210.999 96.1737 205.171 96.7682C199.342 97.3628 191.015 99.8607 191.015 99.8607C191.015 99.8607 216.471 104.977 216.829 104.977C217.184 104.977 228.723 101.17 228.723 101.17Z" fill="#F2F2F2"/>
<path d="M225.589 73.5969C228.124 75.9517 230.138 79.5812 229.634 83.0145C228.717 89.6665 219.821 92.7683 217.984 94.0212C221.633 91.8158 225.916 89.6509 227.911 85.8394C230.046 81.8239 228.141 77.4941 224.722 74.5261L225.589 73.5969Z" fill="#221D18"/>
<path d="M223.148 100.317C221.78 103.509 217.332 104.667 213.214 102.902C209.096 101.137 206.867 97.1184 208.235 93.9247C209.603 90.7326 214.051 89.5747 218.169 91.3396C222.288 93.1061 224.516 97.1246 223.148 100.317Z" fill="#FF6900"/>
<path d="M221.148 93.2991C222.775 98.5378 217.012 102.136 211.085 99.5946C209.927 99.0981 208.926 98.4211 208.106 97.6367C208.769 99.7736 210.613 101.788 213.214 102.902C217.332 104.667 221.779 103.509 223.148 100.317C224.132 98.0227 223.249 95.3037 221.148 93.2991Z" fill="#D25D0B"/>
<path d="M283.122 91.9886C280.344 90.5817 277.011 91.1855 275.141 93.5559C273.464 93.0828 271.586 93.2913 270.103 94.1302C267.177 95.7831 265.416 100.354 267.827 102.804C268.434 105.342 269.517 107.342 272.162 107.352C273.751 110.083 278.624 110.841 281.41 108.239C283.872 108.959 286.483 107.59 288.169 105.708C288.567 105.264 288.9 104.567 289.053 104.474C289.055 104.472 295.373 103.3 294.738 97.4375C294.074 91.3007 287.363 87.1265 283.122 91.9886Z" fill="#2E2925"/>
<path d="M259.686 165.65C259.859 168.305 260.406 170.69 260.486 170.971C260.525 171.107 260.984 171.641 261.027 171.781C260.374 174.917 258.131 176.559 256.077 177.675C256.677 176.126 257.81 174.402 257.736 174.031C257.614 173.443 257.189 170.774 256.014 167.342C257.613 167.353 258.288 166.459 259.686 165.65Z" fill="#FF9C9C"/>
<path d="M267.023 127.416L276.94 134.949C276.94 134.949 272.029 139.673 270.187 141.43C268.344 143.186 259.051 149.539 258.891 149.94C258.858 150.021 259.361 150.972 259.526 152.161C259.969 155.375 260.495 161.627 260.688 166.992C259.641 168.064 257.35 168.338 255.983 168.684C252.545 162.122 251.199 149.478 251.199 147.957C251.199 145.48 267.023 127.416 267.023 127.416Z" fill="#D25D0B"/>
<path d="M295.892 143.736C295.507 143.976 292.515 147.618 291.238 149.638C290.227 148.647 289.708 147.613 288.507 146.832C289.864 145.561 292.659 142.401 293.009 141.581C293.842 139.635 294.37 139.436 294.37 139.436C294.37 139.436 300.679 143.217 300.992 143.961C301.306 144.705 297.434 142.77 295.892 143.736Z" fill="#FF9C9C"/>
<path d="M292.833 142.015C292.304 141.901 293.397 139.639 293.637 139.116C293.907 138.526 294.306 138.418 294.399 138.417C294.653 138.409 301.666 142.611 302.744 143.808C302.818 143.889 302.93 144.119 302.944 144.169C303.361 145.627 297.068 144.522 296.295 143.757C295.608 143.075 295.212 142.524 292.833 142.015Z" fill="#2E2925"/>
<path d="M264.905 129.64C264.905 129.64 273.56 126.143 273.561 126.143C273.527 126.159 273.614 126.495 273.62 126.521C274.433 129.682 278.764 128.464 280.552 133.953C281.815 137.832 281.256 150.891 281.256 150.891C281.256 150.891 285.281 148.026 289.505 144.969C289.889 144.69 292.968 147.903 292.968 147.903C287.271 157.243 278.35 160.905 277.212 160.486C273.326 159.059 267.32 134.201 267.329 134.202C266.568 132.719 264.905 129.64 264.905 129.64Z" fill="#FF6900"/>
<path d="M264.585 104.103C264.585 104.103 260.525 97.6756 259.82 95.5387C259.113 93.4018 259.813 83.2169 259.88 82.4932C259.947 81.7695 262.402 79.7913 262.014 79.2217C261.627 78.6521 258.24 78.1883 257.672 78.3003C257.104 78.4108 255.997 78.3097 255.546 78.7672C255.487 78.8264 256.624 81.508 256.6 81.9236C256.438 84.7608 254.827 93.7971 255.354 96.2406C255.961 99.0499 261.989 108.027 261.989 108.027L264.585 104.103Z" fill="#FF9C9C"/>
<path d="M279.329 107.848C279.329 107.848 290.189 108.119 292.575 108.313C294.96 108.51 303.613 107.789 303.948 107.75C304.282 107.711 306.5 103.957 306.868 104.36C307.236 104.763 305.633 106.222 306.13 106.6C306.625 106.978 311.948 106.131 311.876 106.524C311.744 107.26 308.639 107.166 308.642 107.521C308.645 107.876 311.892 107.322 312.111 107.912C312.33 108.502 308.989 108.153 308.855 108.416C308.721 108.679 311.955 109.162 311.624 109.711C311.445 110.008 308.759 109.213 308.771 109.619C308.783 110.025 310.743 110.95 310.503 111.274C310.264 111.597 308.966 110.281 307.828 110.264C306.692 110.246 305.876 109.653 304.061 110.151C302.247 110.65 296.06 113.144 292.188 112.961C288.316 112.777 279.759 112.396 279.759 112.396L279.329 107.848Z" fill="#FF9C9C"/>
<path d="M263.387 119.189C263.239 117.398 262.989 112.564 263.069 111.969C262.528 110.108 260.55 107.35 260.136 106.57C260.136 106.57 262.817 103.532 264.806 103.557C264.806 103.557 266.922 106.229 268.492 107.048C268.515 107.042 269.048 107.286 269.281 107.283C270.797 107.272 276.095 107.112 277.083 107.408L276.523 115.594C276.238 116.064 275.892 125.476 275.306 126.251C274.721 127.026 266.193 130.552 264.778 129.642C264.725 129.606 263.686 122.811 263.387 119.189Z" fill="#F2F2F2"/>
<path d="M274.383 107.535C274.621 107.422 275.18 107.296 275.992 107.282C278.395 107.241 282.442 107.146 282.442 107.146C282.442 107.146 283.43 112.07 282.632 113.253C282.632 113.253 276.308 114.195 276.489 114.713L274.383 107.535Z" fill="#F2F2F2"/>
<path d="M272.738 104.27C272.738 104.27 272.188 107.11 272.299 108.229C272.41 109.35 271.88 112.959 269.508 112.972C267.138 112.984 269.059 108.382 269.281 107.285C269.504 106.187 269.557 102.788 269.557 102.788L272.738 104.27Z" fill="#FF9C9C"/>
<path d="M269.51 104.494C269.547 103.565 269.558 102.79 269.558 102.79L272.738 104.272C272.738 104.272 272.626 104.852 272.512 105.593C271.122 105.87 270.114 105.355 269.51 104.494Z" fill="#EA94AD"/>
<path d="M273.9 96.432C273.9 96.432 275.125 97.1122 275.573 98.5845C276.022 100.058 275.511 103.859 272.347 104.776C269.181 105.692 267.81 102.682 268.462 100.329C269.114 97.9775 270.532 94.9971 273.9 96.432Z" fill="#FF9C9C"/>
<path d="M268.067 99.4188C268.129 100.051 268.478 100.535 268.845 100.497C269.214 100.462 269.462 99.9199 269.399 99.288C269.337 98.6562 268.989 98.1721 268.62 98.2095C268.254 98.2453 268.005 98.7869 268.067 99.4188Z" fill="#FF9C9C"/>
<path d="M260.502 171.052C260.76 170.578 262.575 172.405 263.009 172.783C263.498 173.21 263.488 173.622 263.465 173.712C263.401 173.952 257.555 179.628 255.96 180.319C255.809 180.384 255.514 180.352 255.429 180.308C254.639 179.891 256.598 174.911 257.806 174.025C258.587 173.452 259.342 173.189 260.502 171.052Z" fill="#2E2925"/>
<path d="M273.53 96.2407C273.53 96.2407 274.104 100.482 275.475 101.246C276.846 102.012 276.272 103.892 276.272 103.892C276.272 103.892 277.516 99.523 276.431 98.1208C275.346 96.7185 273.53 96.2407 273.53 96.2407Z" fill="#2E2925"/>
<path d="M274.663 101.854C274.291 102.407 274.292 103.059 274.666 103.31C275.039 103.56 275.643 103.316 276.015 102.765C276.387 102.212 276.386 101.56 276.012 101.31C275.639 101.058 275.033 101.302 274.663 101.854Z" fill="#FF9C9C"/>
<path d="M259.292 79.6668C259.3 79.6777 259.309 79.6855 259.319 79.6964L259.72 80.2193C259.425 80.14 258.863 79.9812 258.316 80.3547C258.315 80.3547 258.495 79.9672 259.292 79.6668Z" fill="#F47257"/>
<path d="M97.5073 127.16C97.5073 127.673 97.0279 128.089 96.4365 128.089C95.8451 128.089 95.3657 127.673 95.3657 127.16C95.3657 126.646 95.8451 126.23 96.4365 126.23C97.0279 126.23 97.5073 126.646 97.5073 127.16Z" fill="#F2F2F2"/>
<path d="M114.914 167.773C116.657 167.205 118.478 166.677 120.319 166.147C131.747 162.835 144.701 159.084 145.786 143.803C146.018 140.505 145.355 137.841 143.814 135.878C139.665 130.593 130.781 130.89 125.799 132.784L127.365 136.902C131.028 135.508 137.764 135.31 140.348 138.6C141.193 139.676 141.543 141.321 141.389 143.492C140.522 155.708 130.112 158.723 119.091 161.913C117.2 162.463 115.334 163.003 113.546 163.588L114.914 167.773Z" fill="#F2F2F2"/>
<path d="M69.3852 127.595H129.382C129.579 128.5 129.749 129.421 129.908 130.35H68.8591C69.0179 129.421 69.186 128.5 69.3852 127.595Z" fill="#919191"/>
<path d="M129.906 130.35C130.473 133.679 130.781 137.148 130.781 140.722C130.781 152.956 127.271 164.033 121.597 172.055H77.1669C71.4924 164.033 67.9828 152.956 67.9828 140.722C67.9828 137.148 68.2925 133.679 68.8575 130.35H129.906Z" fill="#F2F2F2"/>
<path d="M88.4273 127.214C89.9385 125.882 93.5166 126.797 94.8131 127.595H92.1999C92.2124 127.573 90.049 127.563 89.277 128.367C87.8312 129.875 86.7635 139.134 86.4351 145.254C86.4195 145.546 86.1767 145.775 85.8857 145.775C85.8763 145.775 85.867 145.775 85.8561 145.775C85.5511 145.758 85.3192 145.498 85.3347 145.195C85.4219 143.593 86.0522 129.307 88.4273 127.214Z" fill="#FF6900"/>
<path d="M78.4509 162.299H93.3236V149.63C90.8895 149.63 88.9175 147.657 88.9175 145.224H82.8586C82.8586 147.659 80.8851 149.63 78.4525 149.63V162.299H78.4509Z" fill="#484037"/>
<path d="M81.2507 159.775H90.2014V150.824H81.2507V159.775Z" fill="#FF6900"/>
<path d="M168.458 171.108C168.459 171.15 168.473 171.192 168.473 171.234C168.473 174.504 163.23 177.518 154.427 179.927H46.1765C37.3737 177.518 32.1302 174.504 32.1302 171.234C32.1302 171.192 32.1443 171.15 32.1458 171.108H168.458Z" fill="#919191"/>
<path d="M95.0916 117.029C95.0916 117.443 94.7897 117.779 94.4162 117.779C94.0427 117.779 93.7407 117.443 93.7407 117.029C93.7407 116.615 94.0427 116.279 94.4162 116.279C94.7897 116.277 95.0916 116.614 95.0916 117.029Z" fill="#F2F2F2"/>
<path d="M99.767 123.097C99.767 123.886 99.1537 124.525 98.3989 124.525C97.6441 124.525 97.0309 123.885 97.0309 123.097C97.0309 122.31 97.6441 121.67 98.3989 121.67C99.1537 121.67 99.767 122.31 99.767 123.097Z" fill="#F2F2F2"/>
<path d="M98.8955 119.608C98.8955 120.134 98.3897 120.559 97.7655 120.559C97.1414 120.559 96.6356 120.132 96.6356 119.608C96.6356 119.082 97.1414 118.657 97.7655 118.657C98.3897 118.657 98.8955 119.082 98.8955 119.608Z" fill="#F2F2F2"/>
<path d="M302.968 53.6536L303.006 53.6863C305.333 49.428 304.568 41.861 304.491 39.3567C304.266 32.1414 297.61 29.1438 294.015 33.1172C292.738 34.5273 291.286 36.409 288.541 40.4804C284.879 39.847 281.439 41.2695 278.991 44.5488L278.733 44.8959C276.779 43.6461 273.428 44.4383 271.467 45.4422C269.732 46.3293 268.093 47.1682 265.088 45.9029C262.313 44.734 260.545 45.369 258.987 46.9441C255.026 43.9589 252.467 41.7489 247.768 43.3333C244.43 39.6073 242.13 37.4377 240.454 36.4479C236.032 33.841 231.531 37.6634 231.456 42.5971C231.367 48.4584 233.858 55.0699 234.98 58.276C235.887 64.6042 239.036 69.5177 244.872 72.4032C245.552 72.7394 248.982 73.8911 251.736 74.7954C253.423 77.6855 257.334 80.7002 263.379 81.771C269.62 82.876 275.545 82.1259 280.991 79.5423C284.424 77.9128 288.31 75.1206 289.775 72.369C290.05 71.8523 290.265 71.3091 290.43 70.7519L291.565 70.4686C298.394 68.7582 303.116 61.1413 302.968 53.6536Z" fill="#FF6900"/>
<path d="M304.491 39.3567C304.267 32.1414 297.61 29.1438 294.015 33.1172C292.739 34.5273 291.286 36.409 288.541 40.4804C288.541 40.4804 300.34 47.9728 302.969 53.789C302.969 53.7439 302.969 53.6987 302.967 53.652L303.004 53.6847C305.333 49.428 304.569 41.8625 304.491 39.3567Z" fill="#D25D0B"/>
<path d="M300.76 62.7491C299.028 57.3531 294.178 48.4491 280.636 42.7512C280.049 43.2695 279.498 43.8687 278.991 44.5488L278.733 44.8959C278.733 44.8959 288.016 54.9361 290.426 70.7535L291.56 70.4702C295.51 69.4804 298.754 66.5186 300.76 62.7491Z" fill="#D25D0B"/>
<path d="M244.299 56.4348C241.951 59.8028 241.001 64.5933 240.852 69.7496C242.015 70.7643 243.35 71.6546 244.869 72.4063C245.549 72.7425 248.979 73.8942 251.733 74.7984C247.112 56.5219 258.985 46.9456 258.985 46.9456C258.711 46.7386 258.444 46.5363 258.181 46.337C256.512 46.1549 251.21 46.5254 244.299 56.4348Z" fill="#D25D0B"/>
<path d="M247.766 43.3349C244.427 39.6089 242.127 37.4393 240.451 36.4495C236.029 33.8426 231.528 37.665 231.453 42.5987C231.365 48.46 233.855 55.0715 234.977 58.2776C238.504 46.6391 247.766 43.3349 247.766 43.3349Z" fill="#D25D0B"/>
<path d="M261.876 79.0738C262.201 79.5516 260.439 81.0644 259.951 81.9002L258.844 80.3937C259.389 80.2863 261.505 78.5275 261.876 79.0738Z" fill="#FF9C9C"/>
<path d="M29.0751 75.8552C28.9568 75.5253 27.1981 73.5954 27.0269 74.0311C26.8557 74.4669 27.9093 75.891 27.9093 75.891L26.5475 76.4202C25.7273 77.2264 27.0004 78.6567 27.0004 78.6567L27.0533 78.6178L28.6393 77.5735C28.6393 77.5735 29.1933 76.1852 29.0751 75.8552Z" fill="#F7A491"/>
<path d="M22.7126 71.7931C22.3158 72.1371 24.4044 76.1417 24.4044 76.1417L24.4309 74.8592C24.4309 74.8608 23.1095 71.4507 22.7126 71.7931Z" fill="#FF9C9C"/>
<path d="M54.9513 86.7903C54.9513 86.7903 57.8649 87.8253 57.787 88.714C57.7466 89.1809 57.5287 89.9295 57.5287 89.9295L58.9497 94.2391L55.6782 94.8866C55.6782 94.8866 55.205 91.7754 54.528 90.9739C54.4066 90.8307 54.1623 90.854 53.9599 90.6828C53.272 90.0976 52.36 89.2307 52.2744 88.9319C51.9024 87.609 54.9513 86.7903 54.9513 86.7903Z" fill="#FF9C9C"/>
<path d="M23.7305 73.2327C23.7305 73.2327 24.0604 75.3183 24.4028 76.1416C24.5818 76.5743 25.458 78.3921 25.458 78.3921L25.7646 82.904L29.1451 82.5103C29.1451 82.5103 28.0587 79.245 28.4618 78.2769C28.7793 77.5143 28.9957 75.9081 28.9832 75.5066C28.9396 74.1323 23.7305 73.2327 23.7305 73.2327Z" fill="#FF9C9C"/>
<path d="M46.1392 90.7326C46.1392 90.7326 44.382 88.879 42.9688 91.1342C42.9688 91.1342 41.8794 90.5225 41.1152 91.612C41.1152 91.612 39.1479 91.0205 38.6701 93.9621C38.6701 93.9621 37.6569 93.7706 37.5246 94.9737C37.3908 96.1768 38.0024 96.9799 38.0024 96.9799C38.0024 96.9799 37.4344 97.4063 37.6927 98.5129C37.9122 99.4545 38.6904 99.5977 38.6904 99.5977C38.6904 99.5977 38.9005 101.184 39.5884 101.661C40.2763 102.139 41.2117 101.91 41.2117 101.91C41.2117 101.91 41.4607 102.77 42.2622 102.693C43.0653 102.617 44.0583 101.853 44.9563 102.197C45.8544 102.541 48.1842 102.178 48.1842 102.178C48.1842 102.178 50.8021 101.012 50.0177 98.3386C50.0177 98.3386 51.3935 97.0966 50.1888 95.6072C50.1888 95.6072 51.0682 93.2773 49.3297 91.9014C47.5913 90.5225 46.1392 90.7326 46.1392 90.7326Z" fill="#FF6900"/>
<path d="M26.6081 156.177C26.6081 156.177 23.5779 155.831 23.0767 155.584C22.574 155.336 20.0309 157.766 20.5352 158.984C20.82 159.671 21.718 159.583 21.718 159.583L22.4448 158.874L26.2891 159.675L26.6081 156.177Z" fill="#FF9C9C"/>
<path d="M43.9011 168.945C43.9011 168.945 42.3058 171.544 41.87 171.894C41.4342 172.245 42.5595 175.577 43.8762 175.636C44.6186 175.669 44.919 174.817 44.919 174.817L44.5843 173.859L46.9376 170.713L43.9011 168.945Z" fill="#F7A491"/>
<path d="M41.9648 171.793C41.9648 171.793 42.8815 172.962 43.3811 173.427C44.027 174.028 44.8534 174.615 44.8534 174.615C44.8534 174.615 45.7904 176.314 46.0456 176.907C46.6153 178.227 47.2549 179.698 47.1631 180.437C47.1335 180.674 46.5997 180.926 46.1561 180.789C44.3072 180.221 39.5773 175.894 38.9813 174.733C38.2933 173.395 41.9648 171.793 41.9648 171.793Z" fill="#2E2925"/>
<path d="M55.4633 132.208C55.2921 131.727 55.1271 131.282 54.9684 130.865C53.0011 131.295 50.7802 131.766 48.4939 132.254L48.2153 140.63C48.2168 139.982 49.9335 153.991 49.9335 153.991C49.9335 153.991 45.2644 163.264 42.2279 168.995C43.4746 170.55 44.4317 171.231 46.2371 172.291C50.9529 166.638 56.9777 156.676 57.2345 154.956C57.3808 153.968 57.5131 137.976 55.4633 132.208Z" fill="#D25D0B"/>
<path d="M37.906 134.632C38.4414 140.438 39.3254 149.229 39.4857 152.188C35.7317 152.729 26.8604 155.397 25.2075 155.394C24.5819 156.796 24.2348 158.499 24.669 159.896C24.7546 160.172 42.1673 160.727 46.6621 157.859C47.8341 157.11 48.1951 149.09 48.2138 140.631L48.4924 132.255C44.6855 133.064 41.1837 133.861 37.906 134.632Z" fill="#FF6900"/>
<path d="M50.4114 104.875L46.1391 105.52C46.1391 105.52 42.919 105.57 42.0583 105.577C41.9836 105.577 38.6312 121.929 37.8172 128.082C37.0017 134.236 37.6336 135.326 37.6336 135.326C37.6336 135.326 43.3174 136.604 47.5212 136.232C51.8931 135.844 56.8127 133.483 56.8127 133.483C56.8127 133.483 52.9576 121.985 52.2168 118.293C51.4744 114.603 50.4114 104.875 50.4114 104.875Z" fill="#F2F2F2"/>
<path d="M58.587 92.7046C58.587 92.7046 63.2639 105.862 62.8032 106.794C62.134 108.15 53.0883 110.601 53.0883 110.601C53.0883 110.601 56.5092 124.213 58.0205 129.409C58.173 129.931 58.8469 133.312 58.8469 133.642C58.8469 134.372 55.6657 135.299 55.2891 135.245C54.9513 135.195 51.6098 121.015 49.8371 114.011C49.2363 111.638 48.7725 109.263 47.364 107.261L46.1313 105.51C46.1313 105.51 48.6091 104.617 49.7172 104.256C51.367 103.719 57.1318 102.67 57.1318 102.67C57.1318 102.67 55.3871 93.973 55.2284 93.1264C55.1863 92.9023 58.1279 91.8455 58.587 92.7046Z" fill="#919191"/>
<path d="M42.0583 105.579C42.0583 105.579 35.9838 96.5845 34.292 93.3924C32.9068 90.7777 29.7832 82.9289 29.6665 82.5009C29.5513 82.0807 26.0401 81.6932 24.9616 82.1834C24.6705 82.3157 27.8346 92.7605 29.1389 96.1674C30.3435 99.3144 34.6235 108.481 34.6235 108.481C34.6235 108.481 37.0919 114.112 36.7059 118.462C36.0663 125.689 34.7994 136.102 35.1075 136.415C37.0234 137.623 43.0544 137.579 43.5197 136.829C48.6589 128.551 42.0583 105.579 42.0583 105.579Z" fill="#919191"/>
<path d="M45.8433 103.313L46.1608 105.672C46.1608 105.672 46.8736 109.073 45.9569 109.728C45.0402 110.383 42.0582 105.576 42.0582 105.576L42.3726 99.5946L45.8433 103.313Z" fill="#FF9C9C"/>
<path d="M42.2716 101.534C43.0296 103.574 44.8334 104.827 46.1127 105.314L45.8435 103.313L42.3728 99.5946L42.2716 101.534Z" fill="#EA94AD"/>
<path d="M37.4934 95.5309C37.4934 96.4414 38.0117 97.1807 38.6498 97.1807C39.2895 97.1807 39.8062 96.443 39.8062 95.5309C39.8062 94.6189 39.2879 93.8812 38.6498 93.8812C38.0117 93.8812 37.4934 94.6205 37.4934 95.5309Z" fill="#FF6900"/>
<path d="M40.9641 91.9855C40.9641 92.5084 41.5944 92.9333 42.3711 92.9333C43.1493 92.9333 43.778 92.5084 43.778 91.9855C43.778 91.4625 43.1477 91.0377 42.3711 91.0377C41.5944 91.0377 40.9641 91.4625 40.9641 91.9855Z" fill="#FF6900"/>
<path d="M44.4909 93.3116C46.3523 92.6704 48.3351 93.9077 48.6184 95.8251C48.7413 96.6593 48.8534 97.7068 48.8736 98.8538C48.9234 101.61 47.4962 104.293 46.2449 104.293C44.9936 104.293 41.5338 102.508 41.4077 98.5955C41.333 96.1784 42.5392 93.9839 44.4909 93.3116Z" fill="#FF9C9C"/>
<path d="M42.3322 98.9052C42.3322 99.5137 41.9291 100.006 41.4311 100.006C40.9346 100.006 40.5299 99.5121 40.5299 98.9052C40.5299 98.2966 40.933 97.8048 41.4311 97.8048C41.9291 97.8033 42.3322 98.2966 42.3322 98.9052Z" fill="#FF9C9C"/>
<path d="M49.9149 91.9404C51.2082 92.9645 51.6611 94.5208 50.9265 95.4173C50.1919 96.3122 48.5499 96.2079 47.2566 95.1838C45.9632 94.1598 45.5103 92.6034 46.2449 91.7069C46.978 90.812 48.6215 90.9163 49.9149 91.9404Z" fill="#FF6900"/>
<path d="M45.3329 93.587C45.9956 93.587 46.5329 93.2261 46.5329 92.7808C46.5329 92.3356 45.9956 91.9746 45.3329 91.9746C44.6702 91.9746 44.1329 92.3356 44.1329 92.7808C44.1329 93.2261 44.6702 93.587 45.3329 93.587Z" fill="#FF6900"/>
<path d="M49.0806 97.2429C49.6462 97.2429 50.1047 96.7788 50.1047 96.2063C50.1047 95.6339 49.6462 95.1698 49.0806 95.1698C48.515 95.1698 48.0565 95.6339 48.0565 96.2063C48.0565 96.7788 48.515 97.2429 49.0806 97.2429Z" fill="#FF6900"/>
<path d="M23.2091 155.629C23.2091 155.629 22.5383 156.953 22.3282 157.604C22.0574 158.443 21.8753 159.44 21.8753 159.44C21.8753 159.44 20.7314 161.008 20.3018 161.49C19.3462 162.565 18.1774 163.837 17.4692 164.066C17.242 164.139 16.5961 163.946 16.6007 163.445C16.6241 161.51 18.4824 155.202 19.2808 154.17C20.2038 152.98 23.2091 155.629 23.2091 155.629Z" fill="#2E2925"/>
<path d="M24.4838 74.386C24.4838 74.386 24.862 75.3168 25.7662 75.9051C26.6705 76.4934 28.6611 76.6319 28.6611 76.6319L24.4838 74.386Z" fill="#EA94AD"/>
<path d="M80.4214 110.452C73.2838 106.72 67.986 102.693 68.4031 101.342C67.586 103.459 71.8956 109.376 79.0331 113.107C86.1706 116.839 93.4887 117.001 94.7602 115.121C93.8887 116.235 87.5589 114.184 80.4214 110.452Z" fill="#221D18"/>
<path d="M46.8223 81.2839C48.3569 82.1586 50.7397 83.4939 50.7351 83.4908C59.236 88.6144 65.4973 94.4773 71.4488 101.318C71.908 101.847 71.2823 101.753 70.7547 102.214C70.2395 102.662 69.4644 102.62 68.9991 102.127C68.2754 101.36 66.8995 99.8779 65.7634 98.8055C65.2233 98.3262 59.1301 92.0431 49.4261 86.7078C48.4394 86.1647 48.4332 86.1662 48.4379 86.1678C45.694 84.7437 51.1319 87.3584 5.61113 65.7388C4.26798 65.1007 3.6968 63.4946 4.33336 62.1514C4.98703 60.7756 6.66014 60.3849 8.01418 61.0853C8.18538 61.1756 49.3219 82.5041 46.8223 81.2839Z" fill="#484037"/>
<path d="M82.8213 105.862C75.5717 102.072 69.1579 100.015 68.445 101.246C68.4295 101.277 68.4155 101.308 68.403 101.342C67.9859 102.695 73.2838 106.721 80.4213 110.452C87.5589 114.184 93.8886 116.235 94.7618 115.121C94.782 115.091 94.7991 115.062 94.8162 115.032C95.4201 113.745 90.0709 109.652 82.8213 105.862Z" fill="#484037"/>
<path d="M80.4215 110.452C86.2594 113.504 91.5573 115.432 93.7705 115.424C93.5137 114.665 91.1418 113.901 91.1418 113.901C91.1418 113.901 89.5698 111.705 87.9683 110.858C86.3668 110.011 83.9342 109.576 83.9342 109.576C83.9342 109.576 81.5997 107.954 79.7756 107.885C78.848 107.85 77.7461 108.172 76.887 108.497C77.9951 109.146 79.1811 109.803 80.4215 110.452Z" fill="#F2F2F2"/>
<path d="M81.6711 108.534C81.6198 109.157 80.9863 109.613 80.2548 109.554C79.5233 109.495 78.9724 108.942 79.0222 108.32C79.072 107.697 79.707 107.241 80.4385 107.3C81.17 107.359 81.7209 107.913 81.6711 108.534Z" fill="#F2F2F2"/>
<path d="M84.9753 109.479C84.9364 109.949 84.4632 110.293 83.9185 110.248C83.3722 110.203 82.9613 109.787 83.0002 109.317C83.0391 108.847 83.5123 108.503 84.057 108.548C84.6017 108.594 85.0142 109.011 84.9753 109.479Z" fill="#F2F2F2"/>
<path d="M76.7608 107.52C76.3779 107.489 76.0262 107.618 75.7943 107.842C76.4106 108.218 77.055 108.598 77.7242 108.98C77.7927 108.866 77.8363 108.738 77.8472 108.603C77.8907 108.057 77.4052 107.571 76.7608 107.52Z" fill="#F2F2F2"/>
<path d="M89.8451 111.717C89.8326 112.2 89.4326 112.579 88.9502 112.567C88.4692 112.555 88.0879 112.155 88.1004 111.672C88.1128 111.191 88.5128 110.81 88.9953 110.822C89.4778 110.835 89.8575 111.236 89.8451 111.717Z" fill="#F2F2F2"/>
<path d="M91.6381 113.661C91.6086 114.032 91.3268 114.312 91.0109 114.287C90.695 114.26 90.4631 113.94 90.4927 113.568C90.5222 113.196 90.8039 112.917 91.1198 112.942C91.4358 112.969 91.6677 113.291 91.6381 113.661Z" fill="#F2F2F2"/>
<path d="M94.1563 115.365C94.1174 115.835 93.6801 116.182 93.1774 116.14C92.6747 116.1 92.2996 115.686 92.3369 115.217C92.3743 114.747 92.8132 114.4 93.3143 114.442C93.8186 114.483 94.1952 114.897 94.1563 115.365Z" fill="#F2F2F2"/>
<path d="M92.7821 114.853C92.7448 115.32 92.3043 115.666 91.8 115.625C91.2958 115.585 90.9176 115.172 90.9565 114.705C90.9938 114.239 91.4343 113.893 91.9385 113.933C92.4428 113.974 92.8195 114.386 92.7821 114.853Z" fill="#F2F2F2"/>
<path d="M94.9376 115.44C94.9376 115.725 94.7182 115.955 94.4474 115.955C94.1766 115.955 93.9572 115.725 93.9572 115.44C93.9572 115.155 94.1766 114.925 94.4474 114.925C94.7182 114.923 94.9376 115.155 94.9376 115.44Z" fill="#F2F2F2"/>
<path d="M53.4821 89.1218C53.5988 89.0471 54.763 88.7202 54.598 88.2627C54.4144 87.7537 53.1319 88.0557 52.3148 88.3747C52.4689 88.8074 52.8331 89.5373 53.4821 89.1218Z" fill="#FF9C9C"/>
<path d="M58.4066 88.3141C58.3817 88.2876 57.9848 87.8051 58.0797 87.6183C58.1031 87.5716 58.0782 87.4222 58.0144 87.3071C58.0066 87.2946 57.7389 87.0581 57.8821 86.8915C57.9505 86.8122 57.9023 86.4869 57.8509 86.4371C57.5054 86.1102 56.5109 86.602 56.5109 86.602C56.5109 86.602 54.5841 87.3304 55.1382 87.8036C55.2285 87.8798 55.4074 87.8954 55.6331 87.8658C55.2565 88.0619 54.981 88.3 55.2207 88.5164C55.3296 88.616 55.588 88.6206 55.9055 88.5677C55.5382 88.7498 55.2798 88.9708 55.5024 89.1841C55.7141 89.3864 56.5311 89.2494 57.2502 89.0206L58.3988 88.686C58.4611 88.5288 58.4626 88.3748 58.4066 88.3141Z" fill="#FF9C9C"/>
<path d="M54.7038 89.2277C54.2774 88.9693 53.5739 88.96 53.5739 88.96L53.1085 89.4253L55.3419 90.3311C55.3419 90.3327 55.1302 89.486 54.7038 89.2277Z" fill="#FF9C9C"/>
</svg>
