<svg width="240" height="241" viewBox="0 0 240 241" fill="none" xmlns="http://www.w3.org/2000/svg">
<path d="M187.258 0.125C232.002 0.125 268.25 35.7643 268.25 79.7581C268.25 149.873 134.5 240.875 134.5 240.875C134.5 240.875 0.74984 149.873 0.74984 79.7581C0.803619 35.7643 37.0511 0.125 81.7958 0.177877C88.0342 0.177877 94.2189 0.918158 100.296 2.29297C81.7958 26.9338 77.9774 59.4004 90.2392 87.5311C90.5081 88.2713 91.3686 88.6415 92.1215 88.3771C92.6055 88.1656 92.982 87.7426 93.0357 87.2138C101.802 39.4657 138.802 0.125 187.258 0.125ZM187.204 47.08C168.865 47.08 153.968 61.727 153.968 79.7581C153.968 97.7892 168.865 112.436 187.204 112.436C205.543 112.436 220.44 97.7892 220.44 79.7581C220.44 61.727 205.543 47.08 187.204 47.08Z" fill="#F7F7F7"/>
</svg>
