<svg width="278" height="258" viewBox="0 0 278 258" fill="none" xmlns="http://www.w3.org/2000/svg">
<path d="M277.098 250.346C277.098 254.574 215.267 258 139 258C62.7266 258 0.902405 254.574 0.902405 250.346C0.902405 246.118 62.7331 242.691 139 242.691C215.273 242.691 277.098 246.118 277.098 250.346Z" fill="#FBDED3"/>
<path d="M123.6 46.9327C112.675 7.28966 63.4312 -5.47861 35.2053 24.1502C34.798 24.5769 34.3972 25.0101 33.9899 25.4497C-6.46769 69.4307 12.6427 177.815 97.0812 205.285C181.52 232.754 269.346 182.593 274.279 137.752C279.212 92.9113 240.26 78.8178 179.8 91.3597C145.652 98.4324 130.402 71.6093 123.6 46.9327Z" fill="#FBDED3"/>
<path d="M197.411 56.3393C186.472 59.7205 184.752 70.0644 194.372 75.8957C197.553 77.8223 201.897 79.1864 207.839 79.3416C230.479 79.9363 240.861 68.5063 230.227 57.0504C223.658 49.9713 208.246 52.9905 197.411 56.3393Z" fill="#FBDED3"/>
<path d="M25.9087 160.438C17.2005 153.009 7.53538 157.095 7.76165 168.338C7.83923 172.055 9.00938 176.458 12.0608 181.559C23.6848 200.999 38.8968 203.649 42.8792 188.528C45.3423 179.199 34.5394 167.795 25.9087 160.438Z" fill="#FBDED3"/>
<path d="M220.316 200.882C210.36 206.533 210.903 217.006 221.551 220.633C225.068 221.835 229.606 222.23 235.444 221.105C257.683 216.819 265.37 203.43 252.518 194.521C244.585 189.026 230.181 195.284 220.316 200.882Z" fill="#FBDED3"/>
<path d="M254.166 181.869C250.96 186.394 253.455 191.773 258.963 191.974C260.786 192.038 262.888 191.528 265.234 190.015C274.188 184.248 274.725 176.051 267.103 173.439C262.396 171.835 257.347 177.389 254.166 181.869Z" fill="#FBDED3"/>
<path d="M55.4342 194.863C55.4407 194.753 56.0096 183.827 60.1665 180.278C61.1363 179.451 62.1965 179.114 63.4055 179.244C70.5169 180.013 70.6979 194.773 70.6979 194.921L71.9974 194.915C71.9909 194.262 71.797 178.849 63.5412 177.951C61.9767 177.783 60.5544 178.229 59.3132 179.289C54.736 183.207 54.1477 194.326 54.1283 194.798L55.4342 194.863Z" fill="#ED3915"/>
<path d="M74.7256 193.577L43.3189 193.447L37.022 248.199L81.2293 248.38L74.7256 193.577Z" fill="#FC5F2D"/>
<path d="M60.3152 229.444C65.928 229.444 70.4781 224.894 70.4781 219.281C70.4781 213.668 65.928 209.118 60.3152 209.118C54.7024 209.118 50.1523 213.668 50.1523 219.281C50.1523 224.894 54.7024 229.444 60.3152 229.444Z" fill="#ED3915"/>
<path d="M52.6801 194.417C52.6866 194.307 53.2555 183.382 57.4125 179.832C58.3822 179.005 59.4425 178.669 60.6514 178.798C67.7628 179.567 67.9438 194.327 67.9438 194.475L69.2433 194.469C69.2368 193.816 69.0429 178.404 60.7872 177.505C59.2226 177.337 57.8004 177.783 56.5591 178.843C51.9819 182.761 51.3936 193.881 51.3742 194.353L52.6801 194.417Z" fill="#FC5F2D"/>
<path d="M81.2293 248.38L84.7786 244.41L77.6477 195.898L74.7256 193.577L81.2293 248.38Z" fill="#ED3915"/>
<path d="M32.9427 196.886C32.9492 196.777 33.5181 185.851 37.675 182.302C38.6448 181.474 39.705 181.138 40.914 181.267C48.0254 182.037 48.2064 196.796 48.2064 196.945L49.5059 196.938C49.4994 196.285 49.3055 180.873 41.0497 179.974C39.4852 179.806 38.0629 180.252 36.8217 181.312C32.2445 185.23 31.6562 196.35 31.6368 196.822L32.9427 196.886Z" fill="#221D18"/>
<path d="M52.2405 195.6L20.8338 195.471L14.5305 250.216L58.7442 250.404L52.2405 195.6Z" fill="#39322B"/>
<path d="M39.1249 231.182C44.319 229.055 46.8052 223.12 44.6779 217.926C42.5507 212.732 36.6156 210.246 31.4215 212.373C26.2274 214.5 23.7412 220.435 25.8685 225.629C27.9957 230.823 33.9308 233.31 39.1249 231.182Z" fill="#221D18"/>
<path d="M30.1886 196.44C30.1951 196.331 30.764 185.405 34.9209 181.856C35.8907 181.028 36.9509 180.692 38.1599 180.821C45.2713 181.59 45.4523 196.35 45.4523 196.499L46.7518 196.492C46.7453 195.839 46.5514 180.427 38.2956 179.528C36.7311 179.36 35.3088 179.806 34.0676 180.866C29.4904 184.784 28.9021 195.904 28.8827 196.376L30.1886 196.44Z" fill="#39322B"/>
<path d="M58.7443 250.403L62.2935 246.434L55.1627 197.921L52.2405 195.6L58.7443 250.403Z" fill="#221D18"/>
<path d="M195.691 117.103L197.294 117.633L198.148 117.911L200.559 118.707C200.559 118.707 236.504 89.6272 227.292 72.3076C224.454 66.974 215.881 67.3038 211.078 85.1341C206.623 101.665 195.691 117.103 195.691 117.103Z" fill="#DB2121"/>
<path d="M197.301 117.633L198.154 117.911C205.376 110.309 210.948 101.322 214.459 94.8703C218.629 87.2029 220.885 81.3456 220.904 81.2875C220.982 81.0806 220.878 80.8414 220.672 80.7638C220.465 80.6862 220.226 80.7897 220.148 80.9965C220.129 81.0547 217.885 86.8732 213.741 94.4889C210.205 100.986 204.58 110.044 197.301 117.633Z" fill="#9D0D15"/>
<path d="M85.7548 56.2423L84.061 56.2746L83.1624 56.294L80.6216 56.3392C80.6216 56.3392 54.8718 17.9439 68.7908 4.11544C73.0771 -0.138489 81.1647 2.70609 80.4923 21.157C79.8717 38.2633 85.7548 56.2423 85.7548 56.2423Z" fill="#DB2121"/>
<path d="M84.0674 56.2748L83.1688 56.2942C78.514 46.9007 75.844 36.6666 74.3958 29.4647C72.6762 20.9116 72.2495 14.6471 72.2495 14.5889C72.2365 14.3626 72.4046 14.1751 72.6244 14.1557C72.8507 14.1428 73.0382 14.3109 73.0576 14.5307C73.0641 14.5953 73.4778 20.8082 75.191 29.316C76.6521 36.5503 79.348 46.8683 84.0674 56.2748Z" fill="#9D0D15"/>
<path d="M93.9781 62.2287L91.9417 63.5863L90.862 64.3039L87.8041 66.3468C87.8041 66.3468 26.426 39.6466 32.5935 11.925C34.4942 3.39125 46.5837 0.546678 60.173 23.5619C72.7667 44.9026 93.9781 62.2287 93.9781 62.2287Z" fill="#FC5F2D"/>
<path d="M91.9417 63.5865L90.8621 64.3042C77.8546 56.4816 66.6056 46.0989 59.2162 38.4444C50.4368 29.3612 45.0321 22.0558 44.9804 21.9847C44.7864 21.7261 44.8446 21.3576 45.1032 21.1636C45.3618 20.9697 45.7303 21.0278 45.9243 21.2864C45.976 21.3576 51.3419 28.6112 60.076 37.6427C67.5042 45.336 78.8437 55.8028 91.9417 63.5865Z" fill="#DB2121"/>
<path d="M187.351 122.702L189.123 124.396L190.06 125.294L192.717 127.835C192.717 127.835 257.806 112.216 256.552 83.8413C256.164 75.1071 244.76 70.2002 227.369 90.5066C211.259 109.326 187.351 122.702 187.351 122.702Z" fill="#FC5F2D"/>
<path d="M189.123 124.389L190.06 125.288C204.231 119.851 217.109 111.576 225.721 105.331C235.948 97.9089 242.542 91.6573 242.607 91.5992C242.84 91.3729 242.853 91.0044 242.627 90.7716C242.4 90.5389 242.032 90.526 241.799 90.7522C241.734 90.8169 235.185 97.0232 225.016 104.4C216.366 110.671 203.371 119.004 189.123 124.389Z" fill="#DB2121"/>
<path d="M91.9158 151.393C92.0128 152.066 92.1162 152.803 92.2067 153.592C93.1765 161.873 93.3963 175.889 85.0759 181.488C85.0759 181.488 81.2099 153.779 61.1233 153.055C41.0367 152.331 40.804 145.213 37.9142 133.382C35.0244 121.551 38.2051 118.028 22.2044 111.472C6.20365 104.917 3.11987 88.0952 3.11987 88.0952C3.11987 88.0952 21.0213 102.415 33.6409 98.5943C46.254 94.7735 52.0659 104.678 54.2252 112.772C56.391 120.872 67.2844 118.157 74.5769 120.801C81.8693 123.446 91.1594 147.191 91.1594 147.191C91.1594 147.191 91.5409 148.82 91.9158 151.393Z" fill="#FC5F2D"/>
<path d="M91.9158 151.393C92.0128 152.066 92.1163 152.803 92.2068 153.591C89.6079 150.158 86.7051 147.514 84.1709 145.594C78.1714 141.043 70.8983 138.101 65.2027 137.914C56.1259 137.623 49.5123 131.068 43.7585 116.664C40.4226 108.304 29.8072 106.307 29.6973 106.287C29.387 106.229 29.1801 105.938 29.2383 105.628C29.2964 105.318 29.5874 105.111 29.8977 105.169C30.3567 105.253 41.2437 107.289 44.8188 116.243C50.3786 130.169 56.6755 136.498 65.235 136.776C71.2474 136.97 78.5851 139.924 84.8561 144.683C87.0801 146.37 89.5755 148.588 91.9158 151.393Z" fill="#DB2121"/>
<path d="M179.8 201.07C179.833 201.749 179.878 202.492 179.936 203.287C180.576 211.601 183.039 225.398 192.284 229.302C192.284 229.302 190.765 201.361 210.341 196.803C229.916 192.239 228.779 185.211 229.348 173.044C229.916 160.877 226.115 158.033 240.564 148.529C255.007 139.026 254.819 121.92 254.819 121.92C254.819 121.92 239.995 139.407 226.878 138.076C213.761 136.744 209.966 147.579 209.39 155.938C208.821 164.304 197.605 163.728 190.952 167.724C184.3 171.713 179.736 196.803 179.736 196.803C179.736 196.803 179.677 198.477 179.8 201.07Z" fill="#FC5F2D"/>
<path d="M179.8 201.07C179.833 201.749 179.878 202.492 179.936 203.287C181.824 199.415 184.171 196.273 186.285 193.9C191.301 188.282 197.87 184.002 203.43 182.722C212.28 180.692 217.517 172.993 220.4 157.755C222.074 148.911 232.108 144.915 232.212 144.877C232.502 144.76 232.651 144.431 232.535 144.14C232.418 143.842 232.089 143.7 231.798 143.81C231.358 143.978 221.072 148.064 219.282 157.541C216.495 172.275 211.53 179.697 203.177 181.61C197.314 182.955 190.681 187.261 185.438 193.137C183.582 195.213 181.559 197.87 179.8 201.07Z" fill="#DB2121"/>
<path d="M202.55 36.608V238.017C202.55 244.333 197.437 249.447 191.12 249.447H90.8233C87.649 249.447 84.785 248.154 82.7098 246.072C80.6604 244.003 79.3932 241.159 79.3932 238.017V36.608C79.3932 30.2917 84.507 25.178 90.8233 25.178H191.12C192.989 25.178 194.747 25.6241 196.305 26.4192C200.016 28.307 202.55 32.1601 202.55 36.608Z" fill="#133643"/>
<path d="M202.55 36.6079V238.017C202.55 244.333 197.437 249.447 191.12 249.447H90.8233C87.649 249.447 84.785 248.154 82.7098 246.072L196.305 26.4192C200.016 28.307 202.55 32.1601 202.55 36.6079Z" fill="#000B17"/>
<path d="M79.3933 88.0172H78.8761C76.8525 88.0172 75.2104 86.3751 75.2104 84.3515V65.0731C75.2104 63.0496 76.8525 61.4075 78.8761 61.4075H79.3933V88.0172Z" fill="#000B17"/>
<path d="M202.55 81.0544H202.971C204.626 81.0544 205.97 79.7097 205.97 78.0547V62.3901C205.97 60.7351 204.626 59.3904 202.971 59.3904H202.55V81.0544Z" fill="#000B17"/>
<path d="M79.3933 118.241H78.8761C76.8525 118.241 75.2104 116.599 75.2104 114.575V95.2967C75.2104 93.2732 76.8525 91.6311 78.8761 91.6311H79.3933V118.241Z" fill="#000B17"/>
<path d="M196.848 35.9163V238.709C196.848 241.495 194.592 243.745 191.812 243.745H90.1315C88.0498 243.745 86.2655 242.484 85.4962 240.68C85.2376 240.073 85.0953 239.407 85.0953 238.709V35.9163C85.0953 33.1364 87.3516 30.8801 90.1315 30.8801H191.812C192.517 30.8801 193.183 31.0224 193.79 31.281C195.588 32.0567 196.848 33.8411 196.848 35.9163Z" fill="white"/>
<path d="M133.136 122.909H96.2279C92.6528 122.909 89.7565 120.012 89.7565 116.437V79.5288C89.7565 75.9537 92.6528 73.0574 96.2279 73.0574H133.136C136.711 73.0574 139.608 75.9537 139.608 79.5288V116.437C139.608 120.012 136.711 122.909 133.136 122.909Z" fill="#FBDED3"/>
<path d="M185.851 122.909H148.943C145.368 122.909 142.472 120.012 142.472 116.437V79.5288C142.472 75.9537 145.368 73.0574 148.943 73.0574H185.851C189.427 73.0574 192.323 75.9537 192.323 79.5288V116.437C192.316 120.012 189.42 122.909 185.851 122.909Z" fill="#FBDED3"/>
<path d="M133.136 228.371H96.2279C92.6528 228.371 89.7565 225.475 89.7565 221.9V184.991C89.7565 181.416 92.6528 178.52 96.2279 178.52H133.136C136.711 178.52 139.608 181.416 139.608 184.991V221.9C139.608 225.475 136.711 228.371 133.136 228.371Z" fill="#FBDED3"/>
<path d="M185.851 228.371H148.943C145.368 228.371 142.472 225.475 142.472 221.9V184.991C142.472 181.416 145.368 178.52 148.943 178.52H185.851C189.427 178.52 192.323 181.416 192.323 184.991V221.9C192.316 225.475 189.42 228.371 185.851 228.371Z" fill="#FBDED3"/>
<path d="M189.226 64.9506H92.8532C91.1465 64.9506 89.7565 63.567 89.7565 61.8538V53.5205C89.7565 51.8138 91.14 50.4238 92.8532 50.4238H189.226C190.933 50.4238 192.323 51.8073 192.323 53.5205V61.8538C192.316 63.5606 190.933 64.9506 189.226 64.9506Z" fill="#FBDED3"/>
<path d="M191.094 136.776H90.9849C90.3061 136.776 89.763 136.226 89.763 135.554V131.668C89.763 130.99 90.3125 130.447 90.9849 130.447H191.094C191.773 130.447 192.316 130.996 192.316 131.668V135.554C192.316 136.226 191.773 136.776 191.094 136.776Z" fill="#FBDED3"/>
<path d="M191.094 150.488H90.9849C90.3061 150.488 89.763 149.939 89.763 149.266V145.381C89.763 144.702 90.3125 144.159 90.9849 144.159H191.094C191.773 144.159 192.316 144.708 192.316 145.381V149.266C192.316 149.939 191.773 150.488 191.094 150.488Z" fill="#FBDED3"/>
<path d="M191.094 164.207H90.9849C90.3061 164.207 89.763 163.657 89.763 162.985V159.099C89.763 158.421 90.3125 157.877 90.9849 157.877H191.094C191.773 157.877 192.316 158.427 192.316 159.099V162.985C192.316 163.657 191.773 164.207 191.094 164.207Z" fill="#FBDED3"/>
<path d="M170.458 40.9525H111.492C108.699 40.9525 106.41 38.6639 106.41 35.871V34.4423C106.41 31.6494 108.699 29.3608 111.492 29.3608H170.458C173.251 29.3608 175.54 31.6494 175.54 34.4423V35.871C175.54 38.6639 173.251 40.9525 170.458 40.9525Z" fill="#133643"/>
<path d="M157.567 35.8194H118.635C117.95 35.8194 117.388 35.257 117.388 34.5717V34.2226C117.388 33.5373 117.95 32.9749 118.635 32.9749H157.567C158.253 32.9749 158.815 33.5373 158.815 34.2226V34.5717C158.815 35.257 158.253 35.8194 157.567 35.8194Z" fill="#000B17"/>
<path d="M168.913 34.3001C168.913 35.244 168.15 36.0133 167.2 36.0133C166.256 36.0133 165.487 35.2505 165.487 34.3001C165.487 33.3562 166.25 32.5869 167.2 32.5869C168.144 32.5934 168.913 33.3562 168.913 34.3001Z" fill="#335464"/>
<path opacity="0.3" d="M196.848 35.9164V238.709C196.848 241.495 194.592 243.745 191.812 243.745H90.1315C88.0498 243.745 86.2655 242.484 85.4962 240.68L193.79 31.281C195.588 32.0568 196.848 33.8411 196.848 35.9164Z" fill="white"/>
<path d="M197.766 72.4108L206.772 92.937C207.354 94.2688 208.905 94.8765 210.237 94.2882L230.763 85.2825C232.095 84.7007 232.703 83.1491 232.115 81.8173L223.109 61.2911C222.527 59.9594 220.975 59.3516 219.644 59.94L199.117 68.9456C197.786 69.521 197.184 71.079 197.766 72.4108ZM211.453 68.4478C210.632 69.0297 209.5 68.5706 209.319 67.5686C209.229 67.0708 209.448 66.5407 209.862 66.2497C210.683 65.6679 211.815 66.1269 211.996 67.129C212.086 67.6268 211.866 68.1569 211.453 68.4478Z" fill="#39322B"/>
<path d="M205.602 77.6022C204.613 75.346 205.505 73.4194 207.431 72.5725C209.358 71.7256 211.381 72.3786 212.371 74.6348C213.366 76.9105 212.474 78.8176 210.541 79.6645C208.614 80.5115 206.604 79.8714 205.602 77.6022ZM214.989 69.4693L218.066 68.1182L214.957 84.6619L211.879 86.0131L214.989 69.4693ZM209.791 75.7662C209.254 74.5508 208.698 74.3568 208.298 74.5314C207.897 74.7059 207.658 75.249 208.188 76.4644C208.724 77.6863 209.28 77.8738 209.681 77.6927C210.082 77.5246 210.321 76.9816 209.791 75.7662ZM217.568 79.5094C216.579 77.2531 217.465 75.3266 219.398 74.4797C221.331 73.6328 223.348 74.2857 224.337 76.542C225.333 78.8176 224.441 80.7248 222.508 81.5717C220.575 82.4186 218.57 81.785 217.568 79.5094ZM221.751 77.6733C221.215 76.4515 220.659 76.264 220.258 76.4385C219.857 76.6131 219.618 77.1497 220.154 78.3716C220.691 79.5934 221.247 79.7809 221.648 79.6064C222.049 79.4318 222.288 78.8952 221.751 77.6733Z" fill="white"/>
<path d="M212.261 57.1341C210.877 50.6239 207.354 43.2086 202.828 37.3062C202.738 37.1833 202.641 37.0605 202.544 36.9377V38.0884C207.237 44.34 210.412 51.6195 211.608 57.2699C212.099 59.5973 212.267 61.6337 212.112 63.237C211.996 64.4654 211.685 65.448 211.2 66.1139C211.013 66.3725 210.8 66.5794 210.56 66.741C210.205 66.9802 209.785 67.116 209.313 67.1419C209.28 67.3617 209.3 67.5879 209.377 67.8077C209.959 67.769 210.476 67.5944 210.935 67.2905C211.233 67.0901 211.498 66.8315 211.724 66.5212C212.338 65.6872 212.7 64.4718 212.804 62.9332C212.914 61.3234 212.739 59.3645 212.261 57.1341ZM202.55 63.1659C195.659 54.6387 185.955 29.5418 184.3 25.1844C184.287 25.1521 184.274 25.1197 184.261 25.0874C184.41 25.1197 184.552 25.1456 184.694 25.1844H187.144C186.071 24.8224 184.953 24.5314 183.802 24.331C183.686 24.3116 183.563 24.3504 183.492 24.4474C183.414 24.5379 183.395 24.6607 183.434 24.7771C183.459 24.8482 183.511 24.984 183.589 25.1909C185.043 29.0504 195.323 55.9381 202.55 64.2003C203.223 64.9696 203.869 65.5773 204.483 65.9911C204.671 66.1204 204.858 66.2432 205.046 66.3531L205.789 66.0299C205.485 65.8553 205.175 65.6614 204.858 65.4416C204.134 64.9438 203.365 64.168 202.55 63.1659Z" fill="#000B17"/>
<path d="M233.045 238.676L232.373 244.721C232.373 244.721 230.395 245.852 227.279 245.232L227.938 238.159L233.045 238.676Z" fill="#FFAA95"/>
<path d="M228.753 244.546C228.753 244.546 227.763 243.111 226.929 243.143C226.102 243.176 219.553 248.024 217.348 248.367C215.15 248.71 215.519 250.332 215.887 251.166C216.262 252 233.323 251.464 233.323 251.464C233.323 251.464 233.963 246.415 233.466 244.844C232.968 243.273 230.446 244.973 228.753 244.546Z" fill="#FC5F2D"/>
<path d="M225.106 247.96C225.184 247.986 225.268 247.979 225.346 247.94C225.494 247.863 225.552 247.675 225.475 247.527C225.449 247.475 224.822 246.292 223.943 245.813C222.773 245.167 221.816 245.813 221.777 245.839C221.635 245.936 221.602 246.124 221.699 246.266C221.796 246.408 221.984 246.441 222.126 246.344C222.152 246.324 222.818 245.891 223.652 246.35C224.369 246.744 224.932 247.805 224.938 247.811C224.971 247.889 225.035 247.94 225.106 247.96Z" fill="white"/>
<path d="M226.05 247.132C226.128 247.158 226.212 247.152 226.289 247.113C226.438 247.035 226.496 246.848 226.419 246.699C226.393 246.648 225.766 245.464 224.887 244.986C223.71 244.34 222.76 244.986 222.721 245.012C222.579 245.109 222.546 245.296 222.643 245.439C222.74 245.581 222.928 245.613 223.07 245.516C223.096 245.497 223.762 245.064 224.596 245.523C225.32 245.917 225.876 246.977 225.882 246.984C225.914 247.055 225.979 247.107 226.05 247.132Z" fill="white"/>
<path d="M223.846 248.619C223.923 248.645 224.007 248.639 224.085 248.6C224.234 248.522 224.292 248.335 224.214 248.186C224.188 248.134 223.561 246.951 222.682 246.473C221.505 245.826 220.555 246.473 220.516 246.499C220.374 246.596 220.342 246.783 220.439 246.925C220.536 247.061 220.723 247.1 220.865 247.003C220.891 246.984 221.557 246.55 222.391 247.009C223.115 247.404 223.671 248.464 223.678 248.471C223.71 248.542 223.775 248.593 223.846 248.619Z" fill="white"/>
<path d="M222.546 127.621C222.145 129.011 221.732 130.427 221.311 131.824C220.775 133.621 220.245 135.386 219.734 137.008C219.016 139.297 218.357 141.308 217.827 142.743C216.036 147.585 210.075 158.44 207.541 162.739L203.365 161.362C205.285 157.735 209.856 142.251 212.054 138.696L213.379 133.938L214.413 130.227L215.144 127.608H222.546V127.621Z" fill="#FFAA95"/>
<path d="M199.719 169.075C199.324 169.398 198.749 169.45 198.296 169.152C197.818 168.835 197.637 168.228 197.85 167.698L199.486 163.709C199.111 162.771 199.654 161.718 200.643 161.491L204.483 160.625C204.483 160.625 207.328 160.89 207.884 161.963C208.239 162.649 207.302 164.478 206.571 165.726C206.804 166.237 206.817 166.838 206.584 167.381L205.589 169.682C205.291 170.368 204.451 170.613 203.83 170.206C203.701 170.122 203.598 170.012 203.514 169.896L203.501 169.928C203.203 170.613 202.363 170.859 201.742 170.452C201.665 170.4 201.594 170.335 201.535 170.271C201.154 170.503 200.65 170.523 200.249 170.251C199.841 169.986 199.648 169.521 199.719 169.075Z" fill="#FFAA95"/>
<path d="M204.044 162.047C204.044 162.047 202.88 163.153 202.182 163.056C202.182 163.056 202.861 163.773 202.66 164.426C202.66 164.426 203.3 164.161 203.83 164.704C203.83 164.704 204.645 164.62 204.923 165.196C204.923 165.196 205.893 164.943 206.287 165.474C206.287 165.474 206.423 164.471 205.052 164.355C203.682 164.239 203.152 163.689 203.514 163.14C203.876 162.597 204.044 162.047 204.044 162.047Z" fill="#FF8B6B"/>
<path d="M221.312 131.817C220.775 133.614 220.245 135.379 219.734 137.002C216.715 136.679 214.62 135.179 213.379 133.938L214.413 130.227L221.312 131.817Z" fill="#FF8B6B"/>
<path d="M222.902 105.861C222.902 105.861 215.163 124.273 211.84 130.233C211.84 130.233 216.489 134.196 221.027 134.306C221.027 134.306 223.652 114.09 222.902 105.861Z" fill="#221D18"/>
<path d="M258.802 230.724L262.719 235.379C262.719 235.379 262.183 237.59 259.584 239.426L254.91 234.08L258.802 230.724Z" fill="#FFAA95"/>
<path d="M260.101 237.881C260.101 237.881 258.381 237.61 257.832 238.237C257.282 238.857 256.287 246.945 255.02 248.775C253.753 250.604 255.181 251.458 256.048 251.761C256.907 252.065 268.273 239.329 268.273 239.329C268.273 239.329 265.053 235.386 263.573 234.668C262.092 233.951 261.575 236.95 260.101 237.881Z" fill="#FC5F2D"/>
<path d="M260.062 242.879C260.133 242.84 260.192 242.775 260.211 242.691C260.256 242.53 260.166 242.362 259.998 242.316C259.946 242.303 258.653 241.941 257.696 242.245C256.423 242.652 256.229 243.784 256.222 243.836C256.196 244.004 256.313 244.159 256.474 244.185C256.642 244.21 256.797 244.094 256.823 243.933C256.83 243.9 256.972 243.124 257.877 242.833C258.659 242.581 259.81 242.905 259.823 242.911C259.914 242.924 259.998 242.918 260.062 242.879Z" fill="white"/>
<path d="M260.108 241.625C260.179 241.586 260.237 241.521 260.256 241.437C260.302 241.275 260.211 241.107 260.043 241.062C259.991 241.049 258.698 240.687 257.741 240.991C256.468 241.398 256.274 242.53 256.267 242.581C256.242 242.749 256.358 242.905 256.52 242.93C256.688 242.956 256.843 242.84 256.869 242.678C256.875 242.646 257.017 241.87 257.922 241.579C258.705 241.327 259.855 241.65 259.868 241.657C259.965 241.67 260.043 241.663 260.108 241.625Z" fill="white"/>
<path d="M259.668 244.243C259.739 244.204 259.797 244.139 259.817 244.055C259.862 243.894 259.771 243.726 259.603 243.674C259.552 243.661 258.259 243.299 257.302 243.603C256.028 244.01 255.834 245.141 255.828 245.193C255.802 245.361 255.918 245.516 256.08 245.542C256.248 245.568 256.403 245.452 256.429 245.29C256.435 245.258 256.578 244.482 257.483 244.191C258.265 243.939 259.416 244.262 259.429 244.269C259.526 244.288 259.603 244.282 259.668 244.243Z" fill="white"/>
<path d="M236.782 166.495L239.801 199.169C239.801 199.169 244.32 204.231 247.721 210.424C250.572 215.622 259.448 230.95 259.448 230.95L255.446 234.047L227.828 207.308L221.686 166.178L236.782 166.495Z" fill="#000B17"/>
<path d="M253.959 234.474C254.373 235.515 255.143 236.22 256.048 236.808L261.388 232.295C260.942 231.351 260.327 230.53 259.571 229.826L253.959 234.474Z" fill="#133643"/>
<path d="M257.121 167.853C257.121 167.853 250.029 185.289 240.81 198.891C240.81 198.891 239.433 212.125 237.08 219.171C236.052 222.255 234.157 236.556 234.157 236.556H227.059L228.863 195.917L236.259 166.482L257.121 167.853Z" fill="#1D2631"/>
<path d="M226.412 236.31C225.966 237.525 226.089 238.728 226.412 239.937L234.507 240.163C234.849 238.999 234.953 237.823 234.843 236.627L226.412 236.31Z" fill="#3A555B"/>
<path d="M257.36 158.64C257.36 158.892 257.36 159.138 257.36 159.377C257.354 163.806 257.334 167.239 257.308 168.92C253.035 170.077 248.755 170.827 244.475 171.169C244.281 171.182 244.087 171.202 243.894 171.215C243.79 171.221 243.687 171.228 243.583 171.234C243.35 171.253 243.124 171.266 242.898 171.273C242.646 171.292 242.387 171.305 242.135 171.312C239.226 171.447 236.317 171.396 233.401 171.156C232.813 171.105 232.231 171.053 231.642 170.988C231.604 170.982 231.565 170.982 231.533 170.975C231.384 170.956 231.235 170.943 231.08 170.924C230.99 170.911 230.899 170.904 230.809 170.891C227.421 170.484 224.04 169.825 220.652 168.913C220.646 168.15 220.639 167.012 220.639 165.584C220.639 165.319 220.639 165.047 220.639 164.756C220.639 162.713 220.652 160.166 220.678 157.289C220.678 157.043 220.684 156.798 220.684 156.546C220.704 154.632 220.723 152.576 220.749 150.436C220.756 150.191 220.756 149.939 220.756 149.693C220.781 147.501 220.814 145.219 220.852 142.905C220.878 141.489 220.904 140.067 220.93 138.638C220.962 137.19 220.988 135.742 221.027 134.306C221.034 133.996 221.04 133.679 221.053 133.369C221.383 119.76 221.958 107.257 222.908 105.861C223.568 104.897 225.074 103.759 226.846 102.615C227.065 102.479 227.285 102.337 227.505 102.195C228.261 101.723 234.422 99.6284 235.211 99.1693L241.728 98.7168C241.767 98.7427 247.999 100.844 248.038 100.863C248.303 101.018 248.574 101.173 248.846 101.329C251.154 102.66 253.429 104.063 254.742 105.272C254.936 105.447 255.104 105.621 255.252 105.783C255.369 105.919 255.472 106.048 255.556 106.171C255.634 106.287 255.711 106.481 255.783 106.74C256.571 109.604 256.985 120.866 257.192 133.11C257.205 133.99 257.218 134.869 257.231 135.754C257.237 136.142 257.244 136.53 257.25 136.925C257.257 137.19 257.257 137.461 257.263 137.733C257.263 137.868 257.27 137.998 257.27 138.134C257.276 138.799 257.289 139.465 257.289 140.125C257.295 140.616 257.302 141.101 257.308 141.592C257.347 147.766 257.366 153.753 257.36 158.64Z" fill="#39322B"/>
<path d="M269.016 176.135C269.178 177.874 267.057 176.93 267.659 173.406C268.253 169.883 266.56 166.689 265.829 166.793C265.092 166.896 266.437 170.639 265.784 171.991C265.131 173.342 264.29 170.717 263.457 169.127C262.59 167.478 262.642 163.871 263.036 161.297C263.431 158.724 258.769 143.099 258.744 138.573L258.175 136.653L256.093 129.626L252.835 118.622C252.835 118.622 254.787 110.289 258.071 111.007C258.071 111.007 259.81 116.812 261.672 123.355C261.989 124.467 262.306 125.598 262.623 126.729C263.948 131.475 265.196 136.155 265.771 138.935C267.303 146.273 267.42 161.524 267.42 161.524C267.42 161.524 270.122 167.129 270.18 169.618C270.251 172.281 268.855 174.395 269.016 176.135Z" fill="#FFAA95"/>
<path d="M262.623 126.723L258.168 136.653L256.086 129.625L261.672 123.354C261.989 124.466 262.306 125.598 262.623 126.723Z" fill="#FF8B6B"/>
<path d="M262.842 123.768C260.89 127.117 258.899 130.453 256.92 133.789C256.267 131.604 255.595 129.509 254.962 127.583C254.962 127.576 254.955 127.576 254.955 127.57C254.703 126.8 254.457 126.057 254.218 125.346C254.212 125.333 254.212 125.32 254.205 125.307C254.121 125.055 254.044 124.809 253.959 124.57C253.016 121.712 252.285 119.443 252.072 118.118C251.509 114.556 253.048 107.574 255.214 106.197C255.272 106.319 255.44 105.931 255.543 106.171C255.925 107.05 257.612 109.222 258.453 111.336C258.562 111.608 258.672 111.886 258.782 112.17C259.991 115.286 261.472 119.333 262.842 123.768Z" fill="#39322B"/>
<path d="M238.748 105.233C235.929 105.233 233.938 102.66 233.854 102.55C233.737 102.395 233.757 102.162 233.905 102.04C234.054 101.91 234.267 101.936 234.384 102.091C234.41 102.124 236.259 104.509 238.748 104.509C241.204 104.509 242.704 101.813 242.723 101.787C242.82 101.613 243.027 101.555 243.189 101.658C243.351 101.762 243.409 101.981 243.312 102.156C243.241 102.272 241.605 105.233 238.748 105.233Z" fill="#221D18"/>
<path d="M226.82 129.897C226.768 129.897 226.716 129.884 226.665 129.858C226.496 129.768 226.425 129.548 226.516 129.367L227.744 126.768C227.828 126.587 228.035 126.516 228.203 126.606C228.371 126.697 228.442 126.917 228.352 127.098L227.124 129.697C227.065 129.826 226.943 129.897 226.82 129.897Z" fill="#221D18"/>
<path d="M224.253 127.77C224.208 127.802 224.156 127.822 224.104 127.822C223.917 127.841 223.749 127.693 223.729 127.486L223.49 124.583C223.471 124.383 223.613 124.202 223.801 124.182C223.988 124.163 224.156 124.311 224.176 124.518L224.415 127.421C224.428 127.57 224.363 127.699 224.253 127.77Z" fill="#221D18"/>
<path d="M230.867 123.27C230.699 123.27 230.556 123.141 230.531 122.96L230.084 120.083C230.052 119.883 230.181 119.695 230.369 119.663C230.556 119.631 230.731 119.766 230.763 119.967L231.209 122.844C231.242 123.044 231.112 123.232 230.925 123.264C230.906 123.264 230.886 123.27 230.867 123.27Z" fill="#221D18"/>
<path d="M241.922 124.337C241.864 124.337 241.799 124.318 241.747 124.285C241.586 124.182 241.527 123.956 241.624 123.781L243.014 121.273C243.111 121.098 243.325 121.04 243.486 121.144C243.648 121.247 243.706 121.473 243.609 121.648L242.219 124.156C242.155 124.273 242.038 124.337 241.922 124.337Z" fill="#221D18"/>
<path d="M228.339 113.095C228.274 113.095 228.21 113.075 228.151 113.037L225.863 111.453C225.701 111.343 225.656 111.117 225.759 110.942C225.863 110.774 226.076 110.722 226.231 110.832L228.52 112.416C228.682 112.526 228.727 112.752 228.623 112.927C228.565 113.037 228.455 113.095 228.339 113.095Z" fill="#221D18"/>
<path d="M238.534 136.459C238.482 136.459 238.431 136.446 238.379 136.42C238.211 136.33 238.14 136.11 238.23 135.929L239.459 133.33C239.543 133.149 239.75 133.078 239.918 133.168C240.086 133.259 240.157 133.479 240.066 133.66L238.838 136.259C238.78 136.388 238.657 136.459 238.534 136.459Z" fill="#221D18"/>
<path d="M233.129 115.054C233.013 115.054 232.903 114.996 232.839 114.879C232.735 114.705 232.787 114.478 232.948 114.375L235.256 112.83C235.418 112.72 235.631 112.772 235.728 112.946C235.832 113.121 235.78 113.347 235.618 113.451L233.311 114.996C233.252 115.034 233.188 115.054 233.129 115.054Z" fill="#221D18"/>
<path d="M227.634 104.238C227.641 104.309 227.628 104.38 227.596 104.438C227.544 104.548 227.44 104.619 227.318 104.632C227.13 104.645 226.962 104.497 226.949 104.29L226.839 102.615C227.052 102.48 227.272 102.337 227.499 102.195L227.634 104.238Z" fill="#221D18"/>
<path d="M224.55 120.193C224.434 120.193 224.324 120.135 224.26 120.019C224.156 119.844 224.208 119.618 224.369 119.514L226.677 117.969C226.839 117.859 227.052 117.911 227.149 118.086C227.253 118.26 227.201 118.486 227.04 118.59L224.732 120.135C224.68 120.18 224.615 120.193 224.55 120.193Z" fill="#221D18"/>
<path d="M242.976 107.503C242.911 107.503 242.846 107.483 242.788 107.445C242.633 107.335 242.588 107.108 242.691 106.934L244.01 104.794C244.113 104.626 244.327 104.574 244.488 104.69C244.644 104.8 244.689 105.027 244.585 105.201L243.267 107.341C243.195 107.445 243.086 107.503 242.976 107.503Z" fill="#221D18"/>
<path d="M244.159 144.437C244.068 144.437 243.978 144.398 243.913 144.327L242.025 142.226C241.896 142.077 241.896 141.844 242.038 141.708C242.174 141.566 242.394 141.573 242.523 141.721L244.411 143.823C244.54 143.971 244.54 144.204 244.398 144.34C244.327 144.404 244.243 144.437 244.159 144.437Z" fill="#221D18"/>
<path d="M237.222 143.997C237.131 143.997 237.041 143.959 236.976 143.888L235.088 141.786C234.959 141.638 234.959 141.405 235.101 141.269C235.237 141.127 235.457 141.133 235.586 141.282L237.474 143.383C237.603 143.532 237.603 143.765 237.461 143.9C237.39 143.965 237.306 143.997 237.222 143.997Z" fill="#221D18"/>
<path d="M232.231 158.214C232.199 158.123 232.199 158.02 232.244 157.923L233.42 155.292C233.504 155.111 233.705 155.033 233.879 155.117C234.047 155.208 234.125 155.421 234.041 155.608L232.864 158.24C232.78 158.421 232.58 158.498 232.405 158.414C232.321 158.369 232.263 158.298 232.231 158.214Z" fill="#221D18"/>
<path d="M252.136 166.883C252.104 166.793 252.104 166.689 252.149 166.592L253.326 163.961C253.41 163.78 253.61 163.702 253.785 163.786C253.953 163.877 254.031 164.09 253.947 164.278L252.77 166.909C252.686 167.09 252.486 167.167 252.311 167.083C252.227 167.045 252.169 166.967 252.136 166.883Z" fill="#221D18"/>
<path d="M243.59 171.234C243.357 171.254 243.131 171.267 242.904 171.273L242.665 169.637C242.639 169.437 242.762 169.249 242.95 169.217C243.137 169.185 243.312 169.321 243.344 169.521L243.59 171.234Z" fill="#221D18"/>
<path d="M246.331 166.288C246.26 166.23 246.202 166.146 246.189 166.043L245.769 163.166C245.736 162.965 245.865 162.778 246.053 162.745C246.24 162.713 246.415 162.849 246.447 163.049L246.868 165.926C246.9 166.127 246.771 166.314 246.583 166.346C246.493 166.366 246.402 166.34 246.331 166.288Z" fill="#221D18"/>
<path d="M229.761 142.213C229.703 142.213 229.645 142.2 229.587 142.161C229.425 142.058 229.367 141.838 229.464 141.657L230.828 139.136C230.925 138.961 231.132 138.903 231.3 139C231.462 139.103 231.52 139.323 231.423 139.504L230.059 142.025C229.994 142.148 229.878 142.213 229.761 142.213Z" fill="#221D18"/>
<path d="M233.77 135.903C233.647 135.903 233.524 135.832 233.466 135.703L232.218 133.11C232.134 132.929 232.199 132.709 232.367 132.612C232.535 132.522 232.742 132.593 232.832 132.768L234.08 135.36C234.164 135.541 234.099 135.761 233.931 135.858C233.879 135.89 233.821 135.903 233.77 135.903Z" fill="#221D18"/>
<path d="M222.915 135.528C222.876 135.574 222.831 135.606 222.786 135.632C222.669 135.683 222.533 135.664 222.43 135.574L221.027 134.313C221.034 134.003 221.04 133.686 221.047 133.375L222.87 135.018C223.018 135.14 223.038 135.367 222.915 135.528Z" fill="#221D18"/>
<path d="M233.75 108.427C233.627 108.427 233.504 108.356 233.446 108.227L232.199 105.634C232.114 105.453 232.179 105.234 232.347 105.137C232.515 105.046 232.722 105.117 232.813 105.292L234.06 107.884C234.144 108.065 234.08 108.285 233.912 108.382C233.86 108.414 233.802 108.427 233.75 108.427Z" fill="#221D18"/>
<path d="M241.76 117.918C241.741 117.918 241.715 117.918 241.696 117.911C241.508 117.872 241.385 117.678 241.424 117.478L241.941 114.614C241.98 114.414 242.155 114.284 242.342 114.323C242.53 114.362 242.652 114.556 242.614 114.756L242.096 117.62C242.064 117.795 241.922 117.918 241.76 117.918Z" fill="#221D18"/>
<path d="M237.299 120.426C237.28 120.426 237.254 120.426 237.235 120.42C237.047 120.381 236.924 120.187 236.963 119.986L237.48 117.122C237.519 116.922 237.694 116.793 237.881 116.832C238.069 116.87 238.192 117.064 238.153 117.265L237.636 120.129C237.603 120.303 237.461 120.426 237.299 120.426Z" fill="#221D18"/>
<path d="M240.493 110.987C240.377 110.987 240.267 110.929 240.202 110.819L238.741 108.356C238.638 108.188 238.689 107.955 238.845 107.852C239.006 107.742 239.219 107.793 239.316 107.968L240.778 110.431C240.881 110.606 240.829 110.832 240.674 110.935C240.622 110.968 240.558 110.987 240.493 110.987Z" fill="#221D18"/>
<path d="M227.098 136.362C227.001 136.252 226.975 136.091 227.039 135.955L228.216 133.324C228.3 133.143 228.501 133.065 228.675 133.149C228.85 133.24 228.921 133.453 228.837 133.64L227.66 136.272C227.576 136.453 227.376 136.53 227.201 136.446C227.162 136.42 227.124 136.395 227.098 136.362Z" fill="#221D18"/>
<path d="M235.935 128.727C235.8 128.727 235.67 128.636 235.619 128.494L234.623 125.779C234.552 125.591 234.642 125.378 234.817 125.301C234.991 125.229 235.192 125.32 235.263 125.507L236.259 128.223C236.33 128.41 236.239 128.624 236.065 128.701C236.019 128.721 235.974 128.727 235.935 128.727Z" fill="#221D18"/>
<path d="M246.848 145.491C246.796 145.491 246.745 145.478 246.693 145.452C246.525 145.361 246.454 145.141 246.544 144.96L247.773 142.362C247.857 142.18 248.063 142.109 248.232 142.2C248.4 142.29 248.471 142.51 248.38 142.691L247.152 145.29C247.094 145.419 246.971 145.491 246.848 145.491Z" fill="#221D18"/>
<path d="M228.759 164.187C228.759 164.245 228.746 164.297 228.72 164.355C228.636 164.536 228.423 164.607 228.255 164.511L225.837 163.172C225.669 163.082 225.604 162.855 225.688 162.674C225.772 162.493 225.986 162.422 226.154 162.519L228.572 163.858C228.695 163.922 228.759 164.052 228.759 164.187Z" fill="#221D18"/>
<path d="M222.191 165.849C222.191 165.907 222.178 165.959 222.152 166.017C222.068 166.198 221.855 166.269 221.687 166.172L220.633 165.59C220.633 165.325 220.633 165.054 220.633 164.763L221.997 165.519C222.126 165.59 222.191 165.72 222.191 165.849Z" fill="#221D18"/>
<path d="M232.36 169.094L231.533 170.982C231.384 170.962 231.235 170.949 231.08 170.93C230.99 170.917 230.899 170.911 230.809 170.898L231.74 168.784C231.817 168.603 232.024 168.519 232.199 168.609C232.367 168.693 232.438 168.907 232.36 169.094Z" fill="#221D18"/>
<path d="M251.309 138.864C251.141 138.864 250.999 138.735 250.973 138.554L250.527 135.677C250.494 135.477 250.624 135.289 250.811 135.257C250.999 135.224 251.173 135.36 251.205 135.561L251.652 138.437C251.684 138.638 251.555 138.825 251.367 138.858C251.348 138.858 251.328 138.864 251.309 138.864Z" fill="#221D18"/>
<path d="M251.593 117.646C251.535 117.646 251.471 117.627 251.419 117.594C251.257 117.491 251.199 117.265 251.296 117.09L252.686 114.582C252.783 114.407 252.996 114.349 253.158 114.452C253.32 114.556 253.378 114.782 253.281 114.957L251.891 117.465C251.826 117.581 251.71 117.646 251.593 117.646Z" fill="#221D18"/>
<path d="M247.132 127.835C247.068 127.835 247.003 127.815 246.945 127.777L244.656 126.193C244.495 126.083 244.45 125.857 244.553 125.682C244.656 125.514 244.87 125.462 245.025 125.572L247.314 127.156C247.475 127.266 247.52 127.492 247.417 127.667C247.352 127.777 247.242 127.835 247.132 127.835Z" fill="#221D18"/>
<path d="M222.902 144.935C222.85 144.935 222.799 144.922 222.747 144.896C222.579 144.805 222.508 144.586 222.598 144.404L223.826 141.806C223.911 141.625 224.117 141.553 224.286 141.644C224.454 141.734 224.525 141.954 224.434 142.135L223.206 144.734C223.148 144.864 223.025 144.935 222.902 144.935Z" fill="#221D18"/>
<path d="M251.031 131.785C250.915 131.785 250.805 131.727 250.74 131.61C250.637 131.436 250.688 131.21 250.85 131.106L253.158 129.561C253.319 129.451 253.533 129.503 253.63 129.677C253.733 129.852 253.682 130.078 253.52 130.182L251.212 131.727C251.154 131.772 251.089 131.785 251.031 131.785Z" fill="#221D18"/>
<path d="M245.49 135.463C245.406 135.547 245.284 135.58 245.167 135.547C244.986 135.496 244.876 135.295 244.928 135.095L245.646 132.283C245.697 132.089 245.885 131.972 246.066 132.024C246.247 132.076 246.357 132.276 246.305 132.477L245.587 135.289C245.575 135.36 245.536 135.418 245.49 135.463Z" fill="#221D18"/>
<path d="M255.24 105.783L254.645 106.753C254.58 106.856 254.47 106.914 254.354 106.914C254.289 106.914 254.225 106.895 254.166 106.856C254.005 106.746 253.966 106.52 254.069 106.345L254.735 105.266C254.923 105.44 255.097 105.615 255.24 105.783Z" fill="#221D18"/>
<path d="M257.851 112.177L257.218 113.205C257.153 113.315 257.043 113.373 256.927 113.373C256.862 113.373 256.798 113.353 256.739 113.315C256.584 113.205 256.539 112.972 256.643 112.804L257.541 111.343C257.645 111.608 257.748 111.886 257.851 112.177Z" fill="#221D18"/>
<path d="M228.152 154.018C228.061 154.018 227.97 153.979 227.906 153.908L226.018 151.807C225.889 151.658 225.889 151.426 226.031 151.29C226.167 151.148 226.387 151.154 226.516 151.303L228.404 153.404C228.533 153.552 228.533 153.785 228.391 153.921C228.32 153.979 228.236 154.018 228.152 154.018Z" fill="#221D18"/>
<path d="M240.706 161.369C240.616 161.369 240.525 161.33 240.461 161.259L238.573 159.158C238.444 159.009 238.444 158.776 238.586 158.64C238.722 158.498 238.941 158.505 239.071 158.653L240.959 160.754C241.088 160.903 241.088 161.136 240.946 161.272C240.881 161.33 240.797 161.369 240.706 161.369Z" fill="#221D18"/>
<path d="M244.197 158.446C244.139 158.369 244.113 158.272 244.126 158.168L244.469 155.279C244.495 155.078 244.663 154.936 244.85 154.962C245.038 154.988 245.174 155.169 245.148 155.369L244.805 158.259C244.779 158.459 244.611 158.602 244.424 158.576C244.333 158.569 244.256 158.518 244.197 158.446Z" fill="#221D18"/>
<path d="M237.047 166.599C236.957 166.599 236.866 166.56 236.802 166.489L234.914 164.388C234.785 164.239 234.785 164.006 234.927 163.871C235.063 163.728 235.282 163.735 235.412 163.884L237.299 165.985C237.429 166.133 237.429 166.366 237.286 166.502C237.215 166.56 237.131 166.599 237.047 166.599Z" fill="#221D18"/>
<path d="M257.36 158.64C257.36 158.893 257.36 159.138 257.36 159.377L255.227 159.571C255.039 159.591 254.871 159.436 254.858 159.235C254.839 159.035 254.981 158.854 255.168 158.841L257.36 158.64Z" fill="#221D18"/>
<path d="M232.412 149.596C232.321 149.596 232.231 149.557 232.166 149.486L230.278 147.385C230.149 147.236 230.149 147.003 230.291 146.868C230.427 146.725 230.647 146.732 230.776 146.881L232.664 148.982C232.793 149.13 232.793 149.363 232.651 149.499C232.586 149.557 232.496 149.596 232.412 149.596Z" fill="#221D18"/>
<path d="M241.495 148.678C241.489 148.775 241.45 148.865 241.372 148.936L239.284 150.811C239.142 150.941 238.922 150.921 238.799 150.766C238.676 150.611 238.696 150.378 238.838 150.249L240.926 148.374C241.068 148.245 241.288 148.264 241.411 148.419C241.476 148.497 241.502 148.587 241.495 148.678Z" fill="#221D18"/>
<path d="M251.432 158.996C251.374 158.996 251.315 158.983 251.257 158.944C251.096 158.841 251.037 158.621 251.134 158.44L252.498 155.919C252.595 155.744 252.802 155.686 252.97 155.783C253.132 155.886 253.19 156.106 253.093 156.287L251.729 158.808C251.664 158.931 251.548 158.996 251.432 158.996Z" fill="#221D18"/>
<path d="M253.798 151.503C253.675 151.503 253.552 151.432 253.494 151.302L252.246 148.71C252.162 148.529 252.227 148.309 252.395 148.212C252.563 148.122 252.77 148.193 252.86 148.367L254.108 150.96C254.192 151.141 254.128 151.361 253.96 151.458C253.901 151.484 253.85 151.503 253.798 151.503Z" fill="#221D18"/>
<path d="M250.068 122.088C249.945 122.088 249.822 122.017 249.764 121.887L248.516 119.295C248.432 119.114 248.497 118.894 248.665 118.797C248.833 118.706 249.04 118.778 249.13 118.952L250.378 121.545C250.462 121.726 250.397 121.945 250.229 122.042C250.178 122.075 250.119 122.088 250.068 122.088Z" fill="#221D18"/>
<path d="M251.432 111.22C251.412 111.22 251.386 111.22 251.367 111.214C251.18 111.175 251.057 110.981 251.096 110.78L251.613 107.916C251.652 107.716 251.826 107.587 252.014 107.626C252.201 107.664 252.324 107.858 252.285 108.059L251.768 110.923C251.736 111.097 251.593 111.22 251.432 111.22Z" fill="#221D18"/>
<path d="M257.709 121.098C257.69 121.098 257.664 121.098 257.645 121.092C257.457 121.053 257.334 120.859 257.373 120.659L257.89 117.795C257.929 117.594 258.104 117.465 258.291 117.504C258.478 117.543 258.601 117.737 258.563 117.937L258.045 120.801C258.013 120.976 257.871 121.098 257.709 121.098Z" fill="#221D18"/>
<path d="M246.977 113.735C246.958 113.735 246.932 113.735 246.913 113.728C246.725 113.69 246.602 113.496 246.641 113.295L247.158 110.431C247.197 110.231 247.372 110.102 247.559 110.14C247.747 110.179 247.87 110.373 247.831 110.574L247.314 113.438C247.281 113.612 247.133 113.735 246.977 113.735Z" fill="#221D18"/>
<path d="M249.02 103.766C248.956 103.785 248.891 103.779 248.833 103.753C248.723 103.714 248.639 103.617 248.613 103.488L248.038 100.857C248.303 101.012 248.574 101.167 248.846 101.322L249.285 103.32C249.318 103.52 249.208 103.714 249.02 103.766Z" fill="#221D18"/>
<path d="M256.875 125.52C256.759 125.52 256.649 125.462 256.584 125.352L255.123 122.889C255.02 122.721 255.072 122.488 255.227 122.385C255.388 122.275 255.602 122.327 255.699 122.501L257.16 124.964C257.263 125.132 257.211 125.365 257.056 125.469C257.005 125.501 256.94 125.52 256.875 125.52Z" fill="#221D18"/>
<path d="M247.126 151.956C247.029 151.846 247.003 151.684 247.068 151.548L248.245 148.917C248.329 148.736 248.529 148.659 248.704 148.743C248.878 148.833 248.949 149.046 248.865 149.234L247.689 151.865C247.605 152.046 247.404 152.124 247.23 152.04C247.184 152.014 247.152 151.988 247.126 151.956Z" fill="#221D18"/>
<path d="M222.967 156.901L220.672 157.296C220.672 157.05 220.678 156.804 220.678 156.552L222.857 156.171C223.044 156.138 223.219 156.274 223.251 156.475C223.283 156.675 223.154 156.863 222.967 156.901Z" fill="#221D18"/>
<path d="M222.268 150.178L220.743 150.443C220.749 150.197 220.749 149.945 220.749 149.699L222.158 149.454C222.346 149.421 222.521 149.557 222.553 149.758C222.585 149.958 222.456 150.145 222.268 150.178Z" fill="#221D18"/>
<path d="M255.957 144.32C255.821 144.32 255.692 144.23 255.64 144.088L254.645 141.372C254.574 141.185 254.664 140.972 254.839 140.894C255.013 140.823 255.214 140.913 255.285 141.101L256.28 143.816C256.352 144.004 256.261 144.217 256.087 144.295C256.041 144.314 256.002 144.32 255.957 144.32Z" fill="#221D18"/>
<path d="M257.218 135.761C256.571 133.097 255.763 130.136 254.962 127.583C254.962 127.576 254.955 127.576 254.955 127.57C254.709 126.781 254.457 126.031 254.218 125.346C254.212 125.333 254.212 125.32 254.205 125.307C254.128 125.087 254.056 124.88 253.979 124.68C253.966 124.641 253.959 124.609 253.959 124.576C253.959 124.454 254.037 124.337 254.16 124.292C254.322 124.234 254.496 124.318 254.548 124.473C255.369 126.716 256.345 129.949 257.179 133.117C257.192 133.989 257.205 134.875 257.218 135.761Z" fill="#221D18"/>
<path d="M230.059 81.0609C230.059 81.0609 226.412 79.7873 226.781 76.9557C227.091 74.5442 229.768 76.1088 229.528 74.221C229.296 72.3332 228.772 70.62 231.074 70.1481C233.091 69.7343 233.123 71.1954 235.767 69.0749C238.89 66.5665 241.295 72.372 244.081 72.5466C248.193 72.8052 248.716 75.2683 249.117 77.2401C249.525 79.2119 247.533 81.5264 247.533 81.5264L230.059 81.0609Z" fill="#133643"/>
<path d="M230.666 85.1984C230.666 85.1984 229.134 83.1619 228.003 84.8428C226.865 86.5302 228.475 91.5082 231.255 90.2928L230.666 85.1984Z" fill="#FF8B6B"/>
<path d="M230.647 88.7605C230.543 88.7605 230.447 88.6894 230.421 88.586C229.987 87.0473 228.397 86.4267 228.378 86.4202C228.255 86.375 228.197 86.2392 228.242 86.1164C228.287 85.9935 228.423 85.9354 228.546 85.9806C228.617 86.0065 230.375 86.6918 230.873 88.4632C230.906 88.586 230.834 88.7153 230.712 88.7541C230.692 88.7541 230.666 88.7605 230.647 88.7605Z" fill="#D85C48"/>
<path d="M229.037 87.9848C228.992 87.9848 228.947 87.9719 228.908 87.946C228.798 87.8749 228.766 87.7327 228.837 87.6228C228.85 87.6034 229.128 87.1767 229.722 86.9117C229.839 86.8599 229.981 86.9116 230.033 87.028C230.084 87.1444 230.033 87.2866 229.916 87.3383C229.464 87.5452 229.238 87.8749 229.238 87.8749C229.192 87.946 229.115 87.9848 229.037 87.9848Z" fill="#D85C48"/>
<path d="M246.428 85.1984C246.428 85.1984 247.96 83.1619 249.091 84.8428C250.229 86.5302 248.619 91.5082 245.84 90.2928L246.428 85.1984Z" fill="#FF8B6B"/>
<path d="M246.447 88.7605C246.551 88.7605 246.641 88.6894 246.674 88.586C247.107 87.0473 248.697 86.4267 248.716 86.4202C248.839 86.375 248.897 86.2392 248.852 86.1164C248.807 85.9935 248.671 85.9354 248.548 85.9806C248.471 86.0065 246.719 86.6918 246.221 88.4632C246.189 88.586 246.26 88.7153 246.383 88.7541C246.402 88.7541 246.421 88.7605 246.447 88.7605Z" fill="#D85C48"/>
<path d="M248.051 87.9848C248.096 87.9848 248.141 87.9719 248.18 87.946C248.29 87.8749 248.322 87.7327 248.251 87.6228C248.238 87.6034 247.96 87.1767 247.365 86.9117C247.249 86.8599 247.107 86.9116 247.055 87.028C247.003 87.1444 247.055 87.2866 247.171 87.3383C247.63 87.5452 247.85 87.8749 247.85 87.8749C247.902 87.946 247.973 87.9848 248.051 87.9848Z" fill="#D85C48"/>
<path d="M242.31 94.521V99.4731C242.31 99.4731 240.836 101.994 238.838 102.169C236.84 102.344 235.069 99.9968 235.069 99.9968V94.8701L242.31 94.521Z" fill="#FFAA95"/>
<path d="M242.31 94.521V96.7191C240.971 98.206 238.592 98.5745 235.069 98.0573V94.8701L242.31 94.521Z" fill="#FF8B6B"/>
<path d="M247.527 81.8043C247.436 83.7309 247.255 86.1358 246.887 88.0559V88.0624C246.887 88.0689 246.887 88.0753 246.88 88.0818C246.88 88.0818 246.88 88.0818 246.88 88.0883C246.79 88.5602 246.686 88.9998 246.577 89.3942C246.512 89.6269 246.441 89.8726 246.357 90.1182C245.18 93.8033 242.465 99.1304 235.631 96.6931C232.755 95.6652 231.255 92.6978 230.492 89.4718C230.447 89.2778 230.408 89.0903 230.369 88.9028C230.343 88.78 230.317 88.6636 230.298 88.5473L230.266 88.3727C230.259 88.3404 230.259 88.321 230.253 88.3081C230.253 88.3016 230.253 88.2951 230.253 88.2951C229.8 85.8191 229.735 83.3107 229.768 81.5199C229.8 79.6903 230.802 78.0223 232.392 77.1237C236.698 74.68 241.243 75.5915 244.236 76.7423C246.305 77.5439 247.637 79.5869 247.527 81.8043Z" fill="#FFAA95"/>
<path d="M246.887 88.056L245.84 87.9849C245.84 87.9849 245.238 89.2261 244.359 90.5902C243.473 88.6443 239.213 90.0601 239.213 90.0601C238.941 90.1442 238.663 90.1894 238.385 90.1894C238.114 90.1894 237.842 90.1442 237.584 90.0666L237.564 90.0601C237.564 90.0601 233.252 88.7089 232.399 90.7454C231.875 89.9502 231.455 89.0516 231.261 88.1012L230.253 88.3016C230.253 88.3016 230.253 88.3081 230.253 88.3146C230.253 88.3275 230.259 88.3469 230.266 88.3792L230.298 88.5538C230.317 88.6702 230.343 88.7865 230.369 88.9094C230.408 89.0904 230.447 89.2843 230.492 89.4783C231.255 92.7043 232.755 95.6717 235.631 96.6996C242.465 99.1369 245.187 93.8098 246.357 90.1248C246.596 89.1292 246.835 88.2499 246.88 88.0883C246.88 88.0883 246.88 88.0883 246.88 88.0818C246.887 88.0754 246.887 88.0689 246.887 88.056C246.887 88.0624 246.887 88.056 246.887 88.056ZM242.374 93.1116C242.045 93.4283 241.702 93.6934 241.366 93.8744C239.472 94.8959 239.265 94.7472 238.521 94.7795C237.758 94.8183 236.711 94.592 235.651 93.9973C235.321 93.8098 234.823 93.4477 234.28 92.9564C234.28 92.9564 233.511 90.3316 238.392 90.9846C243.286 90.1442 242.458 92.5944 242.374 93.1116Z" fill="#133643"/>
<path d="M242.458 85.386C242.458 85.9161 242.187 86.3428 241.851 86.3428C241.514 86.3428 241.243 85.9161 241.243 85.386C241.243 84.8559 241.514 84.4292 241.851 84.4292C242.187 84.4292 242.458 84.8559 242.458 85.386Z" fill="#133643"/>
<path d="M235.069 85.386C235.069 85.9161 234.797 86.3428 234.461 86.3428C234.125 86.3428 233.854 85.9161 233.854 85.386C233.854 84.8559 234.125 84.4292 234.461 84.4292C234.797 84.4292 235.069 84.8559 235.069 85.386Z" fill="#133643"/>
<path d="M244.372 82.16C244.372 82.16 241.857 81.1644 239.924 82.0049L240.118 83.0845C240.118 83.0845 242.963 82.8453 244.391 83.4272C244.514 83.0005 244.534 82.5867 244.372 82.16Z" fill="#133643"/>
<path d="M232.418 82.1664C232.418 82.1664 234.953 81.1643 236.899 82.0047L236.705 83.0908C236.705 83.0908 233.841 82.8516 232.399 83.4335C232.27 83.0133 232.25 82.593 232.418 82.1664Z" fill="#133643"/>
<path d="M238.586 89.6658C238.98 89.6658 239.375 89.5107 239.439 89.4848C239.562 89.4331 239.614 89.2973 239.568 89.181C239.517 89.0581 239.381 89 239.265 89.0517C239.051 89.1357 238.541 89.2715 238.321 89.1422C238.276 89.1163 238.217 89.0646 238.204 88.9224C238.12 88.1013 238.347 85.3473 238.347 85.3214C238.36 85.1921 238.263 85.0757 238.133 85.0693C238.004 85.0563 237.888 85.1533 237.881 85.2826C237.875 85.399 237.648 88.1078 237.739 88.9741C237.771 89.2973 237.946 89.4654 238.082 89.5495C238.224 89.6335 238.405 89.6658 238.586 89.6658Z" fill="#FF8B6B"/>
<path d="M247.533 81.8043C247.443 83.7309 247.255 86.1359 246.893 88.0624L245.84 87.9848C245.84 87.9848 246.092 86.3621 246.215 85.3019C246.331 84.2416 246.531 82.2634 245.626 82.0177C244.728 81.772 245.251 79.5158 243.997 78.5395C242.743 77.5569 239.937 77.2918 238.088 78.4296C236.239 79.5675 234.157 78.3456 233.304 78.5395C232.451 78.7335 231.293 79.9101 231.604 81.0092C231.921 82.1082 230.977 82.7741 230.75 83.9119C230.524 85.0497 231.255 88.1077 231.255 88.1077L230.253 88.3081C229.8 85.8255 229.735 83.3236 229.768 81.5328C229.8 79.7032 230.802 78.0353 232.392 77.1367C236.698 74.6929 241.243 75.6045 244.236 76.7552C246.305 77.5439 247.637 79.5869 247.533 81.8043Z" fill="#133643"/>
<path d="M122.262 253.106C125.533 253.106 128.184 250.454 128.184 247.184C128.184 243.913 125.533 241.262 122.262 241.262C118.992 241.262 116.34 243.913 116.34 247.184C116.34 250.454 118.992 253.106 122.262 253.106Z" fill="#133643"/>
<path d="M122.262 250.888C120.219 250.888 118.558 249.227 118.558 247.184C118.558 245.141 120.219 243.479 122.262 243.479C124.305 243.479 125.967 245.141 125.967 247.184C125.967 249.227 124.305 250.888 122.262 250.888Z" fill="#335464"/>
<path d="M154.6 253.106C157.87 253.106 160.522 250.454 160.522 247.184C160.522 243.913 157.87 241.262 154.6 241.262C151.329 241.262 148.678 243.913 148.678 247.184C148.678 250.454 151.329 253.106 154.6 253.106Z" fill="#133643"/>
<path d="M154.6 250.888C152.557 250.888 150.895 249.227 150.895 247.184C150.895 245.141 152.557 243.479 154.6 243.479C156.643 243.479 158.304 245.141 158.304 247.184C158.304 249.227 156.643 250.888 154.6 250.888Z" fill="#335464"/>
<path d="M200.482 164.88C200.268 164.583 200.068 164.272 199.88 163.949H187.7C187.015 163.949 186.414 164.408 186.233 165.068L184.843 170.149H97.495C97.0619 170.149 96.6417 170.337 96.3572 170.666C96.0727 170.996 95.9435 171.429 96.0016 171.862L97.3981 181.902C97.3657 182.025 97.3528 182.148 97.3528 182.277C97.3528 182.555 97.4304 182.814 97.5597 183.04L99.3311 195.744L99.7513 198.756L101.419 210.717L101.839 213.729L103.313 224.312C103.417 225.056 104.05 225.612 104.807 225.612H169.437L167.329 233.176C166.34 236.719 163.088 239.188 159.416 239.188H113.334C112.5 239.188 111.828 239.861 111.828 240.695C111.828 241.528 112.5 242.201 113.334 242.201H159.41C164.427 242.201 168.874 238.826 170.226 233.99L172.812 224.707C172.837 224.649 172.863 224.584 172.876 224.519L175.882 213.736L176.723 210.723L180.059 198.763L180.899 195.75L184.345 183.383L184.765 181.87L187.493 172.063C187.506 172.017 187.519 171.972 187.526 171.927L188.871 166.994H198.794C199.395 166.322 199.971 165.624 200.482 164.88ZM172.398 214.996C172.372 215.067 172.346 215.132 172.327 215.197L170.264 222.606H106.113L104.878 213.736H172.753L172.398 214.996ZM173.594 210.723H104.458L102.79 198.763H176.923L173.594 210.723ZM177.764 195.75H102.37L100.708 183.79H181.093L177.764 195.75ZM181.934 180.777H100.281L99.2212 173.162H184.048L181.934 180.777Z" fill="#133643"/>
<path d="M199.88 163.948C200.068 164.271 200.268 164.582 200.481 164.879C199.971 165.623 199.395 166.321 198.781 166.987H194.353V163.942H199.88V163.948Z" fill="#39322B"/>
<path d="M210.476 165.467C210.476 166.308 209.797 166.987 208.957 166.987H206.714C206.804 166.56 206.752 166.107 206.578 165.72C205.615 164.763 203.449 164.349 203.449 163.942H208.957C209.791 163.948 210.476 164.627 210.476 165.467Z" fill="#133643"/>
<path d="M210.476 165.467C210.476 166.308 209.797 166.987 208.957 166.987H206.714C206.804 166.553 206.759 166.107 206.578 165.72C205.615 164.763 203.449 164.349 203.449 163.942H208.957C209.791 163.948 210.476 164.627 210.476 165.467Z" fill="#39322B"/>
<path d="M68.4388 164.91H53.0506C51.1971 164.91 49.6969 163.41 49.6969 161.556V146.168C49.6969 144.315 51.1971 142.814 53.0506 142.814H68.4388C70.2924 142.814 71.7925 144.315 71.7925 146.168V161.556C71.7925 163.403 70.2924 164.91 68.4388 164.91Z" fill="white"/>
<path d="M63.1657 149.259C65.219 149.259 66.8824 150.894 66.8824 152.913C66.8824 156.131 60.7447 160.307 60.7447 160.307C60.7447 160.307 54.6071 156.131 54.6071 152.913C54.6095 150.894 56.2729 149.259 58.3262 149.261C58.6125 149.261 58.8963 149.295 59.1751 149.359C58.3262 150.489 58.151 151.979 58.7136 153.27C58.726 153.304 58.7655 153.321 58.8 153.309C58.8222 153.299 58.8395 153.28 58.842 153.255C59.2442 151.064 60.9422 149.259 63.1657 149.259ZM63.1633 151.414C62.3217 151.414 61.6381 152.086 61.6381 152.913C61.6381 153.741 62.3217 154.413 63.1633 154.413C64.0048 154.413 64.6884 153.741 64.6884 152.913C64.6884 152.086 64.0048 151.414 63.1633 151.414Z" fill="#FF6900"/>
<path d="M47.715 68.4415H111.065C112.358 68.4415 113.412 67.3942 113.412 66.0947V56.7205C113.412 55.4276 112.364 54.3738 111.065 54.3738H47.715C46.422 54.3738 45.3683 55.4211 45.3683 56.7205V66.0947C45.3683 67.3942 46.4156 68.4415 47.715 68.4415Z" fill="#39322B"/>
<path d="M49.48 65.1186H56.0613C56.4492 65.1186 56.7595 64.8083 56.7595 64.4204V57.8391C56.7595 57.4512 56.4492 57.1409 56.0613 57.1409H49.48C49.0921 57.1409 48.7818 57.4512 48.7818 57.8391V64.4204C48.7818 64.8018 49.0921 65.1186 49.48 65.1186Z" fill="#53463A"/>
<path d="M63.3861 58.6472H108.363C108.731 58.6472 109.022 58.3498 109.022 57.9878V57.8003C109.022 57.4318 108.725 57.1409 108.363 57.1409H63.3861C63.0176 57.1409 62.7267 57.4382 62.7267 57.8003V57.9878C62.7267 58.3498 63.024 58.6472 63.3861 58.6472Z" fill="#53463A"/>
<path d="M63.3861 61.8796H108.363C108.731 61.8796 109.022 61.5822 109.022 61.2202V61.0327C109.022 60.6642 108.725 60.3733 108.363 60.3733H63.3861C63.0176 60.3733 62.7267 60.6707 62.7267 61.0327V61.2202C62.7267 61.5822 63.024 61.8796 63.3861 61.8796Z" fill="#53463A"/>
<path d="M63.3861 65.1186H108.363C108.731 65.1186 109.022 64.8212 109.022 64.4592V64.2717C109.022 63.9032 108.725 63.6123 108.363 63.6123H63.3861C63.0176 63.6123 62.7267 63.9097 62.7267 64.2717V64.4592C62.7267 64.8212 63.024 65.1186 63.3861 65.1186Z" fill="#53463A"/>
<path d="M48.0578 89.0841H111.408C112.701 89.0841 113.755 88.0368 113.755 86.7373V77.3631C113.755 76.0701 112.707 75.0164 111.408 75.0164H48.0578C46.7648 75.0164 45.711 76.0637 45.711 77.3631V86.7373C45.711 88.0368 46.7583 89.0841 48.0578 89.0841Z" fill="#FC5F2D"/>
<path d="M50.1653 86.0393H56.7466C57.1345 86.0393 57.4448 85.7289 57.4448 85.341V78.7597C57.4448 78.3718 57.1345 78.0615 56.7466 78.0615H50.1653C49.7774 78.0615 49.4671 78.3718 49.4671 78.7597V85.341C49.4671 85.7225 49.7774 86.0393 50.1653 86.0393Z" fill="#FF8652"/>
<path d="M64.0714 79.5742H109.048C109.416 79.5742 109.707 79.2768 109.707 78.9148V78.7273C109.707 78.3588 109.41 78.0679 109.048 78.0679H64.0714C63.7029 78.0679 63.412 78.3653 63.412 78.7273V78.9148C63.412 79.2768 63.7094 79.5742 64.0714 79.5742Z" fill="#FF8652"/>
<path d="M64.0714 82.8066H109.048C109.416 82.8066 109.707 82.5092 109.707 82.1472V81.9597C109.707 81.5912 109.41 81.3003 109.048 81.3003H64.0714C63.7029 81.3003 63.412 81.5977 63.412 81.9597V82.1472C63.412 82.5092 63.7094 82.8066 64.0714 82.8066Z" fill="#FF8652"/>
<path d="M64.0714 86.0456H109.048C109.416 86.0456 109.707 85.7483 109.707 85.3862V85.1987C109.707 84.8302 109.41 84.5393 109.048 84.5393H64.0714C63.7029 84.5393 63.412 84.8367 63.412 85.1987V85.3862C63.412 85.7483 63.7094 86.0456 64.0714 86.0456Z" fill="#FF8652"/>
<path d="M218.066 23.9045C216.043 23.9045 214.401 22.2624 214.401 20.2389C214.401 18.2153 216.043 16.5732 218.066 16.5732C220.09 16.5732 221.732 18.2153 221.732 20.2389C221.732 22.2624 220.083 23.9045 218.066 23.9045ZM218.066 17.724C216.676 17.724 215.551 18.8554 215.551 20.2389C215.551 21.6288 216.683 22.7537 218.066 22.7537C219.456 22.7537 220.581 21.6224 220.581 20.2389C220.581 18.8489 219.45 17.724 218.066 17.724Z" fill="#39322B"/>
<path d="M212.015 7.44477C209.992 7.44477 208.349 5.80267 208.349 3.77915C208.349 1.75562 209.992 0.113525 212.015 0.113525C214.039 0.113525 215.681 1.75562 215.681 3.77915C215.681 5.80267 214.032 7.44477 212.015 7.44477ZM212.015 1.26428C210.625 1.26428 209.5 2.39565 209.5 3.77915C209.5 5.16911 210.632 6.29401 212.015 6.29401C213.405 6.29401 214.53 5.16264 214.53 3.77915C214.53 2.39565 213.399 1.26428 212.015 1.26428Z" fill="#39322B"/>
<path d="M226.393 33.9252C226.076 33.9252 225.818 33.6667 225.818 33.3499V30.8156C225.818 30.4988 226.076 30.2402 226.393 30.2402C226.71 30.2402 226.969 30.4988 226.969 30.8156V33.3499C226.962 33.6667 226.71 33.9252 226.393 33.9252Z" fill="#FC5F2D"/>
<path d="M226.393 38.3601C226.076 38.3601 225.818 38.1015 225.818 37.7847V35.2504C225.818 34.9337 226.076 34.675 226.393 34.675C226.71 34.675 226.969 34.9337 226.969 35.2504V37.7847C226.962 38.1079 226.71 38.3601 226.393 38.3601Z" fill="#FC5F2D"/>
<path d="M229.949 34.8754H227.673C227.356 34.8754 227.098 34.6168 227.098 34.3C227.098 33.9832 227.356 33.7246 227.673 33.7246H229.949C230.266 33.7246 230.524 33.9832 230.524 34.3C230.524 34.6168 230.266 34.8754 229.949 34.8754Z" fill="#FC5F2D"/>
<path d="M225.107 34.8754H222.831C222.514 34.8754 222.256 34.6168 222.256 34.3C222.256 33.9832 222.514 33.7246 222.831 33.7246H225.107C225.423 33.7246 225.682 33.9832 225.682 34.3C225.682 34.6168 225.423 34.8754 225.107 34.8754Z" fill="#FC5F2D"/>
<path d="M199.997 15.7522C199.68 15.7522 199.421 15.4936 199.421 15.1768V12.6425C199.421 12.3257 199.68 12.0671 199.997 12.0671C200.313 12.0671 200.572 12.3257 200.572 12.6425V15.1768C200.572 15.4936 200.313 15.7522 199.997 15.7522Z" fill="#FC5F2D"/>
<path d="M199.997 20.1936C199.68 20.1936 199.421 19.935 199.421 19.6182V17.0839C199.421 16.7671 199.68 16.5085 199.997 16.5085C200.313 16.5085 200.572 16.7671 200.572 17.0839V19.6182C200.572 19.935 200.313 20.1936 199.997 20.1936Z" fill="#FC5F2D"/>
<path d="M203.553 16.7023H201.277C200.96 16.7023 200.701 16.4437 200.701 16.1269C200.701 15.8101 200.96 15.5515 201.277 15.5515H203.553C203.869 15.5515 204.128 15.8101 204.128 16.1269C204.128 16.4437 203.869 16.7023 203.553 16.7023Z" fill="#FC5F2D"/>
<path d="M198.717 16.7025H196.441C196.124 16.7025 195.866 16.4439 195.866 16.1271C195.866 15.8104 196.124 15.5518 196.441 15.5518H198.717C199.033 15.5518 199.292 15.8104 199.292 16.1271C199.286 16.4439 199.033 16.7025 198.717 16.7025Z" fill="#FC5F2D"/>
<path d="M21.8359 138.256C19.8124 138.256 18.1703 136.614 18.1703 134.591C18.1703 132.567 19.8124 130.925 21.8359 130.925C23.8594 130.925 25.5015 132.567 25.5015 134.591C25.5015 136.614 23.853 138.256 21.8359 138.256ZM21.8359 132.076C20.4459 132.076 19.321 133.207 19.321 134.591C19.321 135.981 20.4524 137.106 21.8359 137.106C23.2259 137.106 24.3508 135.974 24.3508 134.591C24.3508 133.207 23.2194 132.076 21.8359 132.076Z" fill="#39322B"/>
<path d="M30.6606 153.843C28.637 153.843 26.9949 152.201 26.9949 150.178C26.9949 148.154 28.637 146.512 30.6606 146.512C32.6841 146.512 34.3262 148.154 34.3262 150.178C34.3262 152.201 32.6776 153.843 30.6606 153.843ZM30.6606 147.663C29.2706 147.663 28.1457 148.794 28.1457 150.178C28.1457 151.568 29.2771 152.693 30.6606 152.693C32.0505 152.693 33.1754 151.561 33.1754 150.178C33.1754 148.794 32.0441 147.663 30.6606 147.663Z" fill="#FC5F2D"/>
<path d="M37.7009 165.422C37.3841 165.422 37.1255 165.163 37.1255 164.847V162.312C37.1255 161.996 37.3841 161.737 37.7009 161.737C38.0176 161.737 38.2762 161.996 38.2762 162.312V164.847C38.2762 165.163 38.0241 165.422 37.7009 165.422Z" fill="#39322B"/>
<path d="M37.7009 169.857C37.3841 169.857 37.1255 169.598 37.1255 169.282V166.747C37.1255 166.43 37.3841 166.172 37.7009 166.172C38.0176 166.172 38.2762 166.43 38.2762 166.747V169.282C38.2762 169.605 38.0241 169.857 37.7009 169.857Z" fill="#39322B"/>
<path d="M41.2631 166.372H38.9874C38.6706 166.372 38.412 166.114 38.412 165.797C38.412 165.48 38.6706 165.222 38.9874 165.222H41.2631C41.5799 165.222 41.8385 165.48 41.8385 165.797C41.8385 166.114 41.5799 166.372 41.2631 166.372Z" fill="#39322B"/>
<path d="M36.4208 166.372H34.1451C33.8284 166.372 33.5698 166.114 33.5698 165.797C33.5698 165.48 33.8284 165.222 34.1451 165.222H36.4208C36.7376 165.222 36.9962 165.48 36.9962 165.797C36.9962 166.114 36.7376 166.372 36.4208 166.372Z" fill="#39322B"/>
<path d="M11.311 147.249C10.9943 147.249 10.7357 146.991 10.7357 146.674V144.14C10.7357 143.823 10.9943 143.564 11.311 143.564C11.6278 143.564 11.8864 143.823 11.8864 144.14V146.674C11.8864 146.991 11.6278 147.249 11.311 147.249Z" fill="#FC5F2D"/>
<path d="M11.311 151.684C10.9943 151.684 10.7357 151.426 10.7357 151.109V148.575C10.7357 148.258 10.9943 147.999 11.311 147.999C11.6278 147.999 11.8864 148.258 11.8864 148.575V151.109C11.8864 151.432 11.6278 151.684 11.311 151.684Z" fill="#FC5F2D"/>
<path d="M14.8667 148.2H12.591C12.2742 148.2 12.0156 147.941 12.0156 147.624C12.0156 147.307 12.2742 147.049 12.591 147.049H14.8667C15.1834 147.049 15.442 147.307 15.442 147.624C15.442 147.941 15.1834 148.2 14.8667 148.2Z" fill="#FC5F2D"/>
<path d="M10.0244 148.2H7.74878C7.432 148.2 7.1734 147.941 7.1734 147.624C7.1734 147.307 7.432 147.049 7.74878 147.049H10.0244C10.3412 147.049 10.5998 147.307 10.5998 147.624C10.5998 147.941 10.3412 148.2 10.0244 148.2Z" fill="#FC5F2D"/>
</svg>
