<svg width="20" height="18" viewBox="0 0 20 18" fill="none" xmlns="http://www.w3.org/2000/svg">
<path d="M13.9445 0C17.2899 0 20 2.66462 20 5.95388C20 11.1961 10 18 10 18C10 18 0 11.1961 0 5.95388C0.00402091 2.66462 2.71411 0 6.05951 0.00395344C6.52593 0.00395344 6.98834 0.0593016 7.4427 0.162091C6.05951 2.00439 5.77402 4.4318 6.69079 6.53503C6.7109 6.59038 6.77523 6.61805 6.83152 6.59829C6.86771 6.58247 6.89586 6.55085 6.89988 6.51131C7.55529 2.94136 10.3217 0 13.9445 0ZM13.9405 3.51065C12.5694 3.51065 11.4556 4.60575 11.4556 5.95388C11.4556 7.302 12.5694 8.3971 13.9405 8.3971C15.3116 8.3971 16.4254 7.302 16.4254 5.95388C16.4254 4.60575 15.3116 3.51065 13.9405 3.51065Z" fill="#FF6900"/>
</svg>
