<svg width="76" height="76" viewBox="0 0 76 76" fill="none" xmlns="http://www.w3.org/2000/svg">
<mask id="mask0" mask-type="alpha" maskUnits="userSpaceOnUse" x="0" y="0" width="76" height="76">
<circle cx="38" cy="38" r="38" fill="#C4C4C4"/>
</mask>
<g mask="url(#mask0)">
<rect width="76" height="76" rx="38" fill="#F7F7F7"/>
</g>
<path d="M43.9168 25.5C48.9349 25.5 53 29.4969 53 34.4308C53 42.2942 38 52.5 38 52.5C38 52.5 23 42.2942 23 34.4308C23.006 29.4969 27.0712 25.5 32.0893 25.5059C32.7889 25.5059 33.4825 25.589 34.1641 25.7431C32.0893 28.5066 31.661 32.1477 33.0362 35.3025C33.0663 35.3856 33.1628 35.4271 33.2473 35.3974C33.3016 35.3737 33.3438 35.3263 33.3498 35.267C34.3329 29.912 38.4825 25.5 43.9168 25.5ZM43.9107 30.766C41.854 30.766 40.1834 32.4086 40.1834 34.4308C40.1834 36.453 41.854 38.0957 43.9107 38.0957C45.9674 38.0957 47.6381 36.453 47.6381 34.4308C47.6381 32.4086 45.9674 30.766 43.9107 30.766Z" fill="#D9D9D9"/>
</svg>
