<svg width="24" height="24" viewBox="0 0 24 24" fill="none" xmlns="http://www.w3.org/2000/svg">
<path d="M12 2C7.865 2 4.5 5.38833 4.5 9.55417C4.5 15.4733 11.295 21.585 11.5842 21.8417C11.7033 21.9475 11.8517 22 12 22C12.1483 22 12.2967 21.9475 12.4158 21.8425C12.705 21.585 19.5 15.4733 19.5 9.55417C19.5 5.38833 16.135 2 12 2ZM12 13.6667C9.7025 13.6667 7.83333 11.7975 7.83333 9.5C7.83333 7.2025 9.7025 5.33333 12 5.33333C14.2975 5.33333 16.1667 7.2025 16.1667 9.5C16.1667 11.7975 14.2975 13.6667 12 13.6667Z" fill="#C1C1C1"/>
</svg>
