<?xml version="1.0" encoding="utf-8"?>
<!-- Generator: Adobe Illustrator 24.0.1, SVG Export Plug-In . SVG Version: 6.00 Build 0)  -->
<svg version="1.1" id="Слой_1" xmlns="http://www.w3.org/2000/svg" xmlns:xlink="http://www.w3.org/1999/xlink" x="0px" y="0px"
	 viewBox="0 0 207.59 186.67" style="enable-background:new 0 0 207.59 186.67;" xml:space="preserve">
<style type="text/css">
	.st0{fill-rule:evenodd;clip-rule:evenodd;fill:#FF6000;}
</style>
	<path class="st0" d="M207.07,55c-6.01-46.17-35.79-56-66.11-54.63C110.64,1.74,87.15,22.5,56.83,61.29c0,0-0.68,0.96,0.27-3.96
	c4.78-25.54,19.46-45.55,22.2-49.72c2.73-4.17,5.33-4.78,2.66-5.33C16.4-10.56,0.28,33.97,0.01,56.37s5.46,35.24,28.96,61.74
	c23.49,26.5,74.3,68.57,74.3,68.57s34.69-28.68,62.28-55.18C193.14,104.99,210.9,82.32,207.07,55z M144.81,84.91
	c-14.06,0-25.46-11.4-25.46-25.46c0-14.06,11.4-25.46,25.46-25.46c14.06,0,25.46,11.4,25.46,25.46
	C170.28,73.51,158.88,84.91,144.81,84.91z"/>
</svg>