<svg width="24" height="24" viewBox="0 0 24 24" fill="none" xmlns="http://www.w3.org/2000/svg">
<path d="M23.9655 9.24623C23.8828 8.99166 23.6629 8.80613 23.398 8.76769L15.9579 7.68652L12.6305 0.944655C12.5121 0.704656 12.2676 0.552734 12 0.552734C11.7324 0.552734 11.488 0.704656 11.3695 0.944655L8.04196 7.68652L0.601992 8.76769C0.337196 8.80613 0.117119 8.99166 0.0344315 9.24619C-0.0483025 9.50077 0.0206972 9.78019 0.212368 9.96698L5.59585 15.2148L4.32517 22.6249C4.27988 22.8887 4.38835 23.1553 4.60487 23.3126C4.72735 23.4016 4.87243 23.4469 5.01821 23.4469C5.13015 23.4469 5.24246 23.4202 5.3453 23.3661L12 19.8675L18.6544 23.3661C18.8913 23.4906 19.1783 23.4699 19.3949 23.3126C19.6114 23.1553 19.7199 22.8886 19.6747 22.6248L18.4035 15.2148L23.7876 9.96694C23.9793 9.78019 24.0483 9.50076 23.9655 9.24623Z" fill="#FFEA2E"/>
</svg>
