<svg width="24" height="24" viewBox="0 0 24 24" fill="none" xmlns="http://www.w3.org/2000/svg">
<path d="M11.28 12.8701H2.07001V22.5201C2.07001 22.7901 2.29001 23.0001 2.55001 23.0001H11.28V12.8701Z" fill="#969696"/>
<path d="M22.41 6.11006H17.82C18.4 5.73006 18.86 5.28006 19.09 4.73006C19.33 4.15006 19.43 3.21006 18.49 2.04006C17.71 1.06006 16.87 0.950064 16.31 1.03006C14.51 1.28006 12.89 3.87006 12 5.58006C11.11 3.87006 9.47999 1.28006 7.68999 1.03006C7.12999 0.950064 6.28999 1.07006 5.50999 2.04006C4.56999 3.20006 4.65999 4.14006 4.90999 4.73006C5.13999 5.28006 5.59999 5.73006 6.17999 6.11006H1.58999C1.31999 6.11006 1.10999 6.33006 1.10999 6.59006V10.9501C1.10999 11.2201 1.32999 11.4301 1.58999 11.4301H11.28V6.11006H12.72V11.4301H22.41C22.68 11.4301 22.89 11.2101 22.89 10.9501V6.59006C22.89 6.32006 22.68 6.11006 22.41 6.11006ZM10.8 6.11006H9.42999C7.86999 5.69006 6.39999 5.06006 6.05999 4.25006C5.99999 4.10006 5.80999 3.65006 6.47999 2.81006C6.85999 2.34006 7.15999 2.25006 7.38999 2.25006C7.42999 2.25006 7.47999 2.25006 7.50999 2.26006C8.59999 2.41006 9.93999 4.35006 10.86 6.11006H10.8ZM14.57 6.11006H13.2H13.13C14.05 4.35006 15.39 2.41006 16.48 2.26006C16.52 2.25006 16.56 2.25006 16.6 2.25006C16.82 2.25006 17.13 2.34006 17.51 2.81006C18.19 3.65006 18 4.10006 17.94 4.25006C17.6 5.06006 16.13 5.69006 14.57 6.11006Z" fill="#969696"/>
<path d="M12.72 23.0001H21.45C21.72 23.0001 21.93 22.7801 21.93 22.5201V12.8701H12.72V23.0001Z" fill="#969696"/>
</svg>
