<?xml version="1.0" encoding="iso-8859-1"?>
<!-- Generator: Adobe Illustrator 16.0.0, SVG Export Plug-In . SVG Version: 6.00 Build 0)  -->
<!DOCTYPE svg PUBLIC "-//W3C//DTD SVG 1.1//EN" "http://www.w3.org/Graphics/SVG/1.1/DTD/svg11.dtd">
<svg version="1.1" id="Capa_1" xmlns="http://www.w3.org/2000/svg" xmlns:xlink="http://www.w3.org/1999/xlink" x="0px" y="0px"
	 width="24" height="24" fill="red" viewBox="0 0 24 24 " style="enable-background:new 0 0 97.75 97.75;" xml:space="preserve"
	>

	<path
        d="M12.65 3.04l7.66 14.165c.264.558-.04 1.2-.662 1.2H4.352c-.622 0-.926-.642-.652-1.22l7.644-14.137c.297-.61 1.025-.606 1.307-.008zM11 8.904v3.192c0 .5.448.904 1 .904s1-.405 1-.904V8.904c0-.5-.448-.904-1-.904s-1 .405-1 .904zM11 15c0 .552.448 1 1 1s1-.448 1-1-.448-1-1-1-1 .448-1 1z">
    </path>

</svg>
