<?xml version="1.0" encoding="iso-8859-1"?>
<!-- Generator: Adobe Illustrator 16.0.0, SVG Export Plug-In . SVG Version: 6.00 Build 0)  -->
<!DOCTYPE svg PUBLIC "-//W3C//DTD SVG 1.1//EN" "http://www.w3.org/Graphics/SVG/1.1/DTD/svg11.dtd">
<svg version="1.1" id="Capa_1" xmlns="http://www.w3.org/2000/svg" xmlns:xlink="http://www.w3.org/1999/xlink" x="0px" y="0px"
	 width="24" height="24" fill="rgba(0,0,0,.56)" viewBox="0 0 24 24 " style="enable-background:new 0 0 97.75 97.75;" xml:space="preserve"
	>
<g>
	<path d="M12.1288,9.9698 C10.9654659,9.9698 10.0194,10.9158659 10.0194,12.0792 C10.0194,13.2425341 10.9654659,14.1886 12.1288,14.1886 C13.2921341,14.1886 14.2382,13.2425341 14.2382,12.0792 C14.2382,10.9158659 13.2921341,9.9698 12.1288,9.9698 M12.1288,15.2433 C10.3843262,15.2433 8.9647,13.8236738 8.9647,12.0792 C8.9647,10.3347262 10.3843262,8.9151 12.1288,8.9151 C13.8732738,8.9151 15.2929,10.3347262 15.2929,12.0792 C15.2929,13.8236738 13.8732738,15.2433 12.1288,15.2433 M1.2137,12.1086953 C2.33484719,13.4091441 6.79306841,18.1648 11.9990726,18.1648 C17.2050769,18.1648 21.6643528,13.4091441 22.7855,12.10975 C21.6643528,10.8093012 17.2050769,6.0547 11.9990726,6.0547 C6.7856855,6.0547 2.33273778,10.8093012 1.2137,12.1086953 M11.9990771,19.2195 C5.48102086,19.2195 0.327748542,12.7109305 0.111534701,12.4335437 C-0.0371782336,12.2436972 -0.0371782336,11.9758028 0.111534701,11.7849016 C0.327748542,11.5075148 5.48102086,5 11.9990771,5 C18.5181881,5 23.6714604,11.5075148 23.8876743,11.7849016 C24.0374419,11.9758028 24.0374419,12.2436972 23.8876743,12.4335437 C23.6714604,12.7109305 18.5181881,19.2195 11.9990771,19.2195"></path>
</g>
<g>
</g>
<g>
</g>
<g>
</g>
<g>
</g>
<g>
</g>
<g>
</g>
<g>
</g>
<g>
</g>
<g>
</g>
<g>
</g>
<g>
</g>
<g>
</g>
<g>
</g>
<g>
</g>
<g>
</g>
</svg>
