<?xml version="1.0" encoding="iso-8859-1"?>
<!-- Generator: Adobe Illustrator 16.0.0, SVG Export Plug-In . SVG Version: 6.00 Build 0)  -->
<!DOCTYPE svg PUBLIC "-//W3C//DTD SVG 1.1//EN" "http://www.w3.org/Graphics/SVG/1.1/DTD/svg11.dtd">
<svg version="1.1" id="Capa_1" xmlns="http://www.w3.org/2000/svg" xmlns:xlink="http://www.w3.org/1999/xlink" x="0px" y="0px"
	 width="24" height="24" fill="rgba(0,0,0,.56)" viewBox="0 0 24 24 " style="enable-background:new 0 0 97.75 97.75;" xml:space="preserve"
	>

<path d="M12 22.75c5.937 0 10.75-4.813 10.75-10.75S17.937 1.25 12 1.25 1.25 6.063 1.25 12 6.063 22.75 12 22.75zm0-1.5c-5.11 0-9.25-4.14-9.25-9.25S6.89 2.75 12 2.75s9.25 4.14 9.25 9.25-4.14 9.25-9.25 9.25z"></path><path d="M7.58 12.75h9.266c.414 0 .75-.336.75-.75s-.336-.75-.75-.75H7.58c-.414 0-.75.336-.75.75s.336.75.75.75z"></path></svg>
