<svg width="20" height="20" viewBox="0 0 20 20" fill="none" xmlns="http://www.w3.org/2000/svg">
<path d="M10.77 4.80998C11.62 4.80998 12.31 4.11998 12.31 3.26998C12.31 2.41998 11.62 1.72998 10.77 1.72998C9.92 1.72998 9.23 2.41998 9.23 3.26998C9.23 4.11998 9.92 4.80998 10.77 4.80998ZM15 10.58V9.03998C13.58 9.03998 12.35 8.26998 11.65 7.15998L10.92 5.92998C10.65 5.46998 10.15 5.19998 9.61 5.19998C9.42 5.19998 9.23 5.23998 9.03 5.31998L5 6.95998V10.58H6.54V7.99998L7.89 7.41998L5.77 18.27H7.39L8.74 12.12L10.39 13.66V18.28H11.93V12.47L10.35 10.89L10.81 8.57998C11.81 9.80998 13.31 10.58 15 10.58Z" fill="#000100"/>
</svg>
