<svg width="24" height="24" viewBox="0 0 24 24" fill="none" xmlns="http://www.w3.org/2000/svg">
<path fill-rule="evenodd" clip-rule="evenodd" d="M12 17C7.63005 17 3.75196 15.0378 1.26337 12C3.75196 8.96222 7.63005 7 12 7C16.3699 7 20.248 8.96222 22.7366 12C20.248 15.0378 16.3699 17 12 17ZM12 6C16.9684 6 21.3579 8.37303 24 12C21.3579 15.627 16.9684 18 12 18C7.0316 18 2.64204 15.627 0 12C2.64204 8.37303 7.0316 6 12 6ZM14 12C14 13.1046 13.1046 14 12 14C10.8954 14 10 13.1046 10 12C10 10.8954 10.8954 10 12 10C13.1046 10 14 10.8954 14 12ZM15 12C15 13.6569 13.6569 15 12 15C10.3431 15 9 13.6569 9 12C9 10.3431 10.3431 9 12 9C13.6569 9 15 10.3431 15 12Z" fill="#6B6B6B"/>
</svg>
