<svg width="15" height="15" viewBox="0 0 15 15" fill="none" xmlns="http://www.w3.org/2000/svg">
<path d="M7.5 15C11.6421 15 15 11.6421 15 7.5C15 3.35786 11.6421 0 7.5 0C3.35786 0 0 3.35786 0 7.5C0 11.6421 3.35786 15 7.5 15Z" fill="#C3C3C2"/>
<path d="M9.99999 10.5C9.86999 10.5 9.73999 10.45 9.64999 10.35L7.49999 8.20999L5.34999 10.36C5.14999 10.56 4.83999 10.56 4.63999 10.36C4.43999 10.16 4.43999 9.84999 4.63999 9.64999L6.78999 7.49999L4.64999 5.34999C4.44999 5.14999 4.44999 4.83999 4.64999 4.63999C4.84999 4.43999 5.15999 4.43999 5.35999 4.63999L7.49999 6.78999L9.64999 4.63999C9.84999 4.43999 10.16 4.43999 10.36 4.63999C10.56 4.83999 10.56 5.14999 10.36 5.34999L8.20999 7.49999L10.36 9.64999C10.56 9.84999 10.56 10.16 10.36 10.36C10.26 10.45 10.13 10.5 9.99999 10.5Z" fill="#FEFEFE"/>
</svg>
