<svg width="183" height="264" viewBox="0 0 183 264" fill="none" xmlns="http://www.w3.org/2000/svg">
<g opacity="0.2">
<path d="M171.321 143.447C159.954 159.686 140.582 170.717 113.192 176.562C97.3605 179.947 83.1254 180.367 70.5106 177.798C57.8838 175.23 47.0454 170.477 37.9714 163.551C28.8974 156.626 21.4798 148.128 15.6945 138.022C9.90924 127.915 5.81635 117.221 3.40382 105.903C0.511188 92.3876 0.0311295 80.4329 1.95155 70.0267C3.85997 59.5844 7.7128 50.5704 13.4861 42.9007C19.2713 35.267 26.797 28.8936 36.063 23.8165C45.3171 18.6914 56.0594 14.8625 68.2661 12.258C83.4375 9.01726 96.7364 8.2851 108.175 10.1215C119.601 11.9579 129.468 15.2947 137.725 20.0597C145.995 24.8608 152.825 30.562 158.19 37.1514C163.555 43.7049 167.852 50.0783 171.081 56.3197C174.297 62.513 176.614 68.0942 178.018 73.0633C179.41 77.9844 180.263 81.1411 180.527 82.3894C185.76 106.875 182.687 127.243 171.321 143.447Z" fill="#FBDED3"/>
</g>
<path opacity="0.4" d="M87.2662 263.689C120.344 263.689 147.159 259.546 147.159 254.435C147.159 249.324 120.344 245.181 87.2662 245.181C54.1881 245.181 27.373 249.324 27.373 254.435C27.373 259.546 54.1881 263.689 87.2662 263.689Z" fill="#FBDED3"/>
<path d="M70.2466 237.295L71.987 252.862L81.7571 249.826L80.869 246.489L79.5246 230.357L70.2466 237.295Z" fill="#F7D7BB"/>
<path d="M80.4608 241.208L79.5126 230.357L70.2345 237.283L70.7506 241.496C73.9073 240.908 77.2801 241.556 80.4608 241.208Z" fill="#F3BA9B"/>
<path d="M71.2668 247.15L73.6193 248.818L82.1772 247.594L82.1412 256.056L56.2155 256.704C56.2155 256.704 55.6033 255.504 57.0557 253.595C58.9761 251.087 71.2668 247.15 71.2668 247.15Z" fill="#906848"/>
<path d="M62.8049 250.27C60.2003 251.374 57.8239 252.587 57.0677 253.571C55.6034 255.479 56.2275 256.679 56.2275 256.679L65.8896 256.439C64.9414 254.351 63.9332 252.286 62.8049 250.27Z" fill="white"/>
<path d="M57.3678 255.095L56.2275 256.68L82.1532 256.043L82.1413 254.063L57.3678 255.095Z" fill="white"/>
<path d="M69.4424 248.074L68.6143 243.933L74.2675 244.677L72.6712 250.402L69.4424 248.074Z" fill="#906848"/>
<path d="M64.9293 249.322L66.5017 251.386" stroke="white" stroke-width="0.685" stroke-miterlimit="10" stroke-linecap="round"/>
<path d="M66.8738 248.506L68.4461 250.57" stroke="white" stroke-width="0.685" stroke-miterlimit="10" stroke-linecap="round"/>
<path d="M68.9143 247.762L70.4987 249.814" stroke="white" stroke-width="0.685" stroke-miterlimit="10" stroke-linecap="round"/>
<path d="M82.1412 254.459L56.0955 255.611V256.007L82.2012 255.083L82.1412 254.459Z" fill="#00314E"/>
<path d="M105.847 238.242L107.575 253.81L117.357 250.785L116.457 247.436L115.113 231.317L105.847 238.242Z" fill="#F7D7BB"/>
<path d="M116.073 242.504L115.112 231.305L105.834 238.231L106.363 242.492C110.467 242.9 112.892 242.852 116.073 242.504Z" fill="#F3BA9B"/>
<path d="M106.867 248.097L109.219 249.765L117.777 248.541L117.741 257.003L91.8153 257.651C91.8153 257.651 91.2032 256.451 92.6555 254.542C94.5639 252.034 106.867 248.097 106.867 248.097Z" fill="#906848"/>
<path d="M98.3927 251.217C95.7881 252.322 93.4116 253.534 92.6554 254.518C91.1911 256.426 91.8153 257.627 91.8153 257.627L101.477 257.387C100.541 255.298 99.521 253.246 98.3927 251.217Z" fill="white"/>
<path d="M92.9555 256.054L91.8153 257.639L117.741 256.991L117.729 255.01L92.9555 256.054Z" fill="white"/>
<path d="M105.042 249.033L104.214 244.892L109.855 245.636L108.259 251.361L105.042 249.033Z" fill="#906848"/>
<path d="M100.517 250.281L102.101 252.334" stroke="white" stroke-width="0.685" stroke-miterlimit="10" stroke-linecap="round"/>
<path d="M102.462 249.464L104.046 251.517" stroke="white" stroke-width="0.685" stroke-miterlimit="10" stroke-linecap="round"/>
<path d="M104.514 248.708L106.098 250.773" stroke="white" stroke-width="0.685" stroke-miterlimit="10" stroke-linecap="round"/>
<path d="M117.729 255.406L91.6953 256.558V256.955L117.801 256.042L117.729 255.406Z" fill="#00314E"/>
<path d="M59.9601 125.874C59.9601 125.874 54.9551 181.291 68.5661 239.095L81.973 239.491C81.973 239.491 79.9086 186.476 81.1688 145.475L86.3659 145.871C86.3659 145.871 97.8645 213.134 104.166 240.896L116.973 241.496C116.973 241.496 109.615 150.48 107.082 124.614C104.562 98.7604 59.9601 125.874 59.9601 125.874Z" fill="#1D2631"/>
<path opacity="0.4" d="M81.1689 145.487L81.529 145.511C74.3394 144.455 63.1769 141.538 59.2161 140.482C58.6519 160.73 59.2041 199.355 68.5662 239.108L81.9731 239.504C81.9611 239.504 79.9087 186.488 81.1689 145.487Z" fill="#0F1F29"/>
<path opacity="0.1" d="M107.827 132.5C107.551 129.476 107.299 126.823 107.095 124.638C104.574 98.7728 59.9722 125.887 59.9722 125.887C59.9722 125.887 59.6721 129.175 59.42 134.961C82.8732 137.481 100.493 134.265 107.827 132.5Z" fill="#0F1F29"/>
<path d="M44.6088 127.074L33.6264 134.348C33.6264 134.348 33.4344 135.032 33.1463 136.064C32.3781 136.448 28.0451 138.705 28.9693 139.341C29.5575 139.737 31.1178 139.389 32.3541 139.017C30.8537 144.73 29.0894 152.544 33.3983 142.834C33.3983 142.834 29.9415 161.666 35.4988 143.206C35.4988 143.206 32.6421 161.738 37.6712 143.662C37.6712 143.662 35.1147 157.837 39.4716 144.334C45.0289 127.11 44.6088 127.074 44.6088 127.074Z" fill="#F7D7BB"/>
<path d="M44.6089 127.074L33.6264 134.348C33.6264 134.348 33.4344 135.032 33.1464 136.064L40.912 139.857C44.9569 127.11 44.6089 127.074 44.6089 127.074Z" fill="#F3BA9B"/>
<path d="M108.595 66.0409C108.595 66.0409 138.722 18.9425 134.413 11.0928C130.104 3.24304 90.759 7.46796 90.759 7.46796V15.9178L116.373 20.2628L98.9688 47.2687C98.9688 47.2687 72.3109 47.3287 62.4808 51.5537C52.6386 55.7786 32.3541 134.888 32.3541 134.888L42.8084 139.113C42.8084 139.113 50.19 119.225 57.1756 100.068C56.5514 110.679 56.4194 121.877 57.5597 130.663C57.5597 130.663 83.3773 137.913 110.431 130.063C110.431 130.051 104.898 88.3778 108.595 66.0409Z" fill="#FF6900"/>
<path opacity="0.1" d="M56.9236 123.426C57.0676 125.958 57.2716 128.395 57.5597 130.651C57.5597 130.651 83.3773 137.901 110.431 130.051C110.431 130.051 108.955 118.925 108.043 105.098C93.0155 115.012 75.1196 120.281 56.9236 123.426Z" fill="#0F1F29"/>
<path opacity="0.1" d="M100.421 6.7002C94.7919 7.03627 90.759 7.46836 90.759 7.46836V15.9182L99.2809 17.3586C99.5689 13.7938 100.025 10.253 100.421 6.7002Z" fill="#0F1F29"/>
<path opacity="0.1" d="M42.8084 139.112C42.8084 139.112 50.19 119.224 57.1756 100.068C56.7555 107.197 58.8199 73.4219 60.5603 53.1494C50.2381 65.1881 32.3541 134.875 32.3541 134.875L42.8084 139.112Z" fill="#0F1F29"/>
<path d="M90.3389 29.8418L91.4432 47.0416L97.0604 47.2576C97.0604 47.2576 83.7494 58.252 73.1151 48.962L78.9844 48.1818L78.1682 38.9518L90.3389 29.8418Z" fill="#F7D7BB"/>
<path d="M90.6868 36.1072L90.3267 29.8418L78.144 38.9638L78.7442 45.8413C82.441 45.0491 88.6824 42.5646 90.6868 36.1072Z" fill="#F3BA9B"/>
<path d="M92.7513 26.4929C92.7513 26.4929 91.6471 32.4822 90.5068 32.8783C89.3666 33.2744 90.1588 27.1531 90.1588 27.1531L92.7513 26.4929Z" fill="#3F3E76"/>
<path d="M65.0733 12.1859C65.0733 12.1859 65.0493 25.2567 65.8295 32.8904C66.6097 40.5121 72.0349 43.3687 76.7039 43.0807C82.2131 42.7446 90.903 37.7755 90.603 31.4621L90.3509 19.8555C90.3509 19.8555 91.3591 10.2894 84.9017 7.19275C78.4443 4.09607 66.2976 5.53639 65.0733 12.1859Z" fill="#F7D7BB"/>
<path d="M89.6306 22.9286C89.6306 22.9286 90.5307 17.9835 92.8232 18.9677C95.1157 19.9519 95.0437 29.242 90.4347 28.7619C85.8257 28.2698 89.6306 22.9286 89.6306 22.9286Z" fill="#F7D7BB"/>
<path d="M90.3628 20.66V24.0568L88.3583 23.6607L88.1543 19.8559C88.1543 19.8559 83.3532 17.6594 82.549 11.25C82.549 11.25 78.9482 15.6549 73.5471 15.6549L76.3437 13.0504C76.3437 13.0504 70.5464 16.2551 63.5369 16.2551L63.3328 13.0504L58.9279 15.4509C58.9279 15.4509 61.9285 0.243547 74.1352 0.447592C86.3419 0.651637 83.1372 7.85322 83.1372 7.85322C83.1372 7.85322 84.3375 2.24798 91.143 3.85634C97.9485 5.45269 93.3394 19.6638 93.3394 19.6638C93.3394 19.6638 90.9629 17.0593 90.3628 20.66Z" fill="#133643"/>
<path d="M68.7579 1.25135C68.7579 1.25135 83.7612 -3.54971 87.362 5.65632C90.9628 14.8623 75.5634 7.06062 75.5634 7.06062L68.7579 1.25135Z" fill="#133643"/>
<path d="M77.0399 23.8758C77.0399 23.8758 77.3039 24.2719 77.724 24.824C77.916 25.1121 78.1921 25.4002 78.4802 25.7002C78.6242 25.8443 78.7803 25.9883 78.9603 26.0843C79.0443 26.1563 79.1283 26.1804 79.2243 26.2044C79.3084 26.2404 79.3924 26.2643 79.4764 26.2523C79.6445 26.2883 79.8125 26.2164 79.9686 26.1323C80.1126 26.0123 80.2806 25.9163 80.4006 25.7362C80.5207 25.5682 80.6647 25.4362 80.7607 25.2682C80.8687 25.1001 80.9647 24.9441 81.0488 24.8C81.3728 24.1879 81.6129 23.7678 81.6129 23.7678C81.6129 23.7678 81.6009 23.8878 81.5528 24.0919C81.5048 24.2959 81.4688 24.596 81.3488 24.9321C81.1928 25.2562 81.0967 25.6762 80.7967 26.0603C80.6766 26.2644 80.4727 26.4324 80.2686 26.6004C80.0406 26.7325 79.7525 26.8765 79.4524 26.8405C79.2964 26.8405 79.1644 26.8045 79.0323 26.7445C78.9003 26.6964 78.7683 26.6364 78.6723 26.5524C78.4442 26.4084 78.2881 26.2284 78.1201 26.0603C77.82 25.7003 77.616 25.3282 77.46 25.0041C77.1239 24.3439 77.0399 23.8758 77.0399 23.8758Z" fill="#000A24"/>
<path d="M66.6215 24.4884C66.6215 24.4884 66.8855 24.8845 67.3056 25.4366C67.4977 25.7247 67.7737 26.0127 68.0618 26.3128C68.2058 26.4568 68.3619 26.6009 68.5419 26.6969C68.6259 26.7689 68.7099 26.7929 68.8059 26.8169C68.89 26.8529 68.974 26.8769 69.058 26.8649C69.2261 26.9009 69.3941 26.8289 69.5501 26.7449C69.6941 26.6249 69.8622 26.5289 69.9823 26.3488C70.1023 26.1808 70.2463 26.0487 70.3423 25.8807C70.4503 25.7127 70.5464 25.5566 70.6304 25.4126C70.9544 24.8005 71.1945 24.3804 71.1945 24.3804C71.1945 24.3804 71.1825 24.5004 71.1345 24.7045C71.0865 24.9085 71.0505 25.2086 70.9304 25.5446C70.7744 25.8687 70.6784 26.2888 70.3783 26.6729C70.2583 26.8769 70.0542 27.045 69.8502 27.213C69.6221 27.345 69.3341 27.4891 69.022 27.453C68.866 27.453 68.734 27.4171 68.6019 27.357C68.4699 27.309 68.3379 27.249 68.2419 27.165C68.0138 27.021 67.8577 26.8409 67.6897 26.6729C67.3896 26.3128 67.1856 25.9407 67.0296 25.6166C66.7175 24.9565 66.6215 24.4884 66.6215 24.4884Z" fill="#000A24"/>
<path d="M72.7189 20.8508C72.6949 22.4112 72.5869 23.9475 72.4068 25.4839C72.3348 26.252 72.2388 27.0202 72.1188 27.7884C72.0107 28.5565 71.9027 29.3247 71.7467 30.0809L71.6747 29.9008C72.5389 30.633 73.379 31.3771 74.2072 32.1453C73.259 31.5212 72.3348 30.873 71.4346 30.2009L71.3506 30.1409L71.3626 30.0209C71.4106 29.2527 71.4946 28.4845 71.5786 27.7163C71.6507 26.9482 71.7467 26.18 71.8668 25.4119C72.0828 23.8875 72.3588 22.3632 72.7189 20.8508Z" fill="#D8AC8A"/>
<path d="M74.9634 18.8586C74.9634 18.8586 75.1674 20.863 77.1599 20.863C79.1643 20.863 82.165 20.4669 83.5573 22.6634C83.5573 22.6634 84.7576 19.8668 81.7569 19.2667C78.7563 18.6665 74.9634 18.8586 74.9634 18.8586Z" fill="#133643"/>
<path d="M72.5749 18.6547C72.5749 18.6547 72.4068 20.6592 70.7624 20.6592C69.1181 20.6592 66.6455 20.2631 65.4933 22.4596C65.4933 22.4596 64.5091 19.6629 66.9817 19.0628C69.4422 18.4507 72.5749 18.6547 72.5749 18.6547Z" fill="#133643"/>
<path d="M72.1667 35.8542C72.1667 35.8542 72.3587 35.218 73.0789 34.5219C73.2709 34.3659 73.475 34.1858 73.7271 34.0418C73.9671 33.8738 74.2432 33.7537 74.5432 33.6457C74.8433 33.5617 75.1554 33.4657 75.4914 33.4417C75.8155 33.4057 76.1516 33.3817 76.4877 33.4057C76.8237 33.4177 77.1478 33.4777 77.4599 33.5617C77.784 33.6217 78.084 33.7177 78.3721 33.8257C78.9602 34.0058 79.4403 34.3179 79.8724 34.5339C80.2925 34.762 80.6046 35.026 80.8326 35.182C81.0607 35.3501 81.1807 35.4461 81.1807 35.4461C81.1807 35.4461 81.0367 35.3861 80.7726 35.2781C80.5206 35.17 80.1605 35.002 79.7164 34.834C79.2723 34.6659 78.7682 34.4619 78.204 34.3178C77.928 34.2218 77.6399 34.1498 77.3399 34.1018C77.0398 34.0418 76.7398 33.9938 76.4397 33.9938C76.1396 33.9458 75.8396 33.9698 75.5395 33.9818C75.2394 33.9938 74.9633 34.0658 74.6873 34.1258C74.4232 34.2218 74.1592 34.2818 73.9311 34.4019C73.691 34.4979 73.487 34.6419 73.2949 34.762C72.5268 35.3141 72.1667 35.8542 72.1667 35.8542Z" fill="#D8AC8A"/>
<path d="M82.0087 26.2522C82.0087 26.2522 80.9525 30.4531 82.7649 30.4531C84.5773 30.4531 82.0087 26.2522 82.0087 26.2522Z" fill="white"/>
<path d="M26.8451 30.1775C26.8451 30.1775 52.0026 32.1219 52.4227 23.78C52.8548 15.4382 43.8167 16.6625 43.8167 16.6625C43.8167 16.6625 44.0809 7.64851 35.9311 8.17663C27.7813 8.69274 29.7136 16.0863 29.7136 16.0863C29.7136 16.0863 23.1363 12.3055 21.828 20.5873C21.828 20.5873 13.8222 17.6827 14.7704 25.6765C15.1785 29.1572 26.8451 30.1775 26.8451 30.1775Z" fill="#F1F1F2"/>
</svg>
